%TF.GenerationSoftware,KiCad,Pcbnew,(5.1.10)-1*%
%TF.CreationDate,2022-09-02T18:37:03-04:00*%
%TF.ProjectId,VIC-20-Rear-Expander,5649432d-3230-42d5-9265-61722d457870,1*%
%TF.SameCoordinates,Original*%
%TF.FileFunction,Soldermask,Bot*%
%TF.FilePolarity,Negative*%
%FSLAX46Y46*%
G04 Gerber Fmt 4.6, Leading zero omitted, Abs format (unit mm)*
G04 Created by KiCad (PCBNEW (5.1.10)-1) date 2022-09-02 18:37:03*
%MOMM*%
%LPD*%
G01*
G04 APERTURE LIST*
%ADD10C,0.100000*%
%ADD11R,9.500000X2.250000*%
%ADD12R,3.200000X3.200000*%
%ADD13O,3.200000X3.200000*%
%ADD14C,3.000000*%
%ADD15O,1.800000X4.000000*%
%ADD16O,4.000000X1.800000*%
%ADD17R,4.400000X1.800000*%
%ADD18R,1.600000X1.600000*%
%ADD19O,1.600000X1.600000*%
%ADD20R,1.700000X1.700000*%
%ADD21O,1.700000X1.700000*%
%ADD22R,1.275000X1.800000*%
%ADD23O,1.275000X1.800000*%
%ADD24R,2.000000X2.000000*%
%ADD25C,2.000000*%
%ADD26O,3.160000X4.100000*%
%ADD27C,6.400000*%
%ADD28C,0.800000*%
G04 APERTURE END LIST*
D10*
%TO.C,X1*%
G36*
X64635000Y-66860000D02*
G01*
X64635000Y-157060000D01*
X74585000Y-157060000D01*
X74585000Y-66860000D01*
X64635000Y-66860000D01*
G37*
X64635000Y-66860000D02*
X64635000Y-157060000D01*
X74585000Y-157060000D01*
X74585000Y-66860000D01*
X64635000Y-66860000D01*
%TD*%
%TO.C,X2*%
G36*
G01*
X160035000Y-80165000D02*
X159035000Y-80165000D01*
G75*
G02*
X158535000Y-79665000I0J500000D01*
G01*
X158535000Y-77815000D01*
G75*
G02*
X159035000Y-77315000I500000J0D01*
G01*
X160035000Y-77315000D01*
G75*
G02*
X160535000Y-77815000I0J-500000D01*
G01*
X160535000Y-79665000D01*
G75*
G02*
X160035000Y-80165000I-500000J0D01*
G01*
G37*
G36*
G01*
X160035000Y-84125000D02*
X159035000Y-84125000D01*
G75*
G02*
X158535000Y-83625000I0J500000D01*
G01*
X158535000Y-81775000D01*
G75*
G02*
X159035000Y-81275000I500000J0D01*
G01*
X160035000Y-81275000D01*
G75*
G02*
X160535000Y-81775000I0J-500000D01*
G01*
X160535000Y-83625000D01*
G75*
G02*
X160035000Y-84125000I-500000J0D01*
G01*
G37*
G36*
G01*
X160035000Y-88085000D02*
X159035000Y-88085000D01*
G75*
G02*
X158535000Y-87585000I0J500000D01*
G01*
X158535000Y-85735000D01*
G75*
G02*
X159035000Y-85235000I500000J0D01*
G01*
X160035000Y-85235000D01*
G75*
G02*
X160535000Y-85735000I0J-500000D01*
G01*
X160535000Y-87585000D01*
G75*
G02*
X160035000Y-88085000I-500000J0D01*
G01*
G37*
G36*
G01*
X160035000Y-92045000D02*
X159035000Y-92045000D01*
G75*
G02*
X158535000Y-91545000I0J500000D01*
G01*
X158535000Y-89695000D01*
G75*
G02*
X159035000Y-89195000I500000J0D01*
G01*
X160035000Y-89195000D01*
G75*
G02*
X160535000Y-89695000I0J-500000D01*
G01*
X160535000Y-91545000D01*
G75*
G02*
X160035000Y-92045000I-500000J0D01*
G01*
G37*
G36*
G01*
X160035000Y-96005000D02*
X159035000Y-96005000D01*
G75*
G02*
X158535000Y-95505000I0J500000D01*
G01*
X158535000Y-93655000D01*
G75*
G02*
X159035000Y-93155000I500000J0D01*
G01*
X160035000Y-93155000D01*
G75*
G02*
X160535000Y-93655000I0J-500000D01*
G01*
X160535000Y-95505000D01*
G75*
G02*
X160035000Y-96005000I-500000J0D01*
G01*
G37*
G36*
G01*
X160035000Y-99965000D02*
X159035000Y-99965000D01*
G75*
G02*
X158535000Y-99465000I0J500000D01*
G01*
X158535000Y-97615000D01*
G75*
G02*
X159035000Y-97115000I500000J0D01*
G01*
X160035000Y-97115000D01*
G75*
G02*
X160535000Y-97615000I0J-500000D01*
G01*
X160535000Y-99465000D01*
G75*
G02*
X160035000Y-99965000I-500000J0D01*
G01*
G37*
G36*
G01*
X160035000Y-103925000D02*
X159035000Y-103925000D01*
G75*
G02*
X158535000Y-103425000I0J500000D01*
G01*
X158535000Y-101575000D01*
G75*
G02*
X159035000Y-101075000I500000J0D01*
G01*
X160035000Y-101075000D01*
G75*
G02*
X160535000Y-101575000I0J-500000D01*
G01*
X160535000Y-103425000D01*
G75*
G02*
X160035000Y-103925000I-500000J0D01*
G01*
G37*
G36*
G01*
X160035000Y-107885000D02*
X159035000Y-107885000D01*
G75*
G02*
X158535000Y-107385000I0J500000D01*
G01*
X158535000Y-105535000D01*
G75*
G02*
X159035000Y-105035000I500000J0D01*
G01*
X160035000Y-105035000D01*
G75*
G02*
X160535000Y-105535000I0J-500000D01*
G01*
X160535000Y-107385000D01*
G75*
G02*
X160035000Y-107885000I-500000J0D01*
G01*
G37*
G36*
G01*
X160035000Y-111845000D02*
X159035000Y-111845000D01*
G75*
G02*
X158535000Y-111345000I0J500000D01*
G01*
X158535000Y-109495000D01*
G75*
G02*
X159035000Y-108995000I500000J0D01*
G01*
X160035000Y-108995000D01*
G75*
G02*
X160535000Y-109495000I0J-500000D01*
G01*
X160535000Y-111345000D01*
G75*
G02*
X160035000Y-111845000I-500000J0D01*
G01*
G37*
G36*
G01*
X160035000Y-115805000D02*
X159035000Y-115805000D01*
G75*
G02*
X158535000Y-115305000I0J500000D01*
G01*
X158535000Y-113455000D01*
G75*
G02*
X159035000Y-112955000I500000J0D01*
G01*
X160035000Y-112955000D01*
G75*
G02*
X160535000Y-113455000I0J-500000D01*
G01*
X160535000Y-115305000D01*
G75*
G02*
X160035000Y-115805000I-500000J0D01*
G01*
G37*
G36*
G01*
X160035000Y-119765000D02*
X159035000Y-119765000D01*
G75*
G02*
X158535000Y-119265000I0J500000D01*
G01*
X158535000Y-117415000D01*
G75*
G02*
X159035000Y-116915000I500000J0D01*
G01*
X160035000Y-116915000D01*
G75*
G02*
X160535000Y-117415000I0J-500000D01*
G01*
X160535000Y-119265000D01*
G75*
G02*
X160035000Y-119765000I-500000J0D01*
G01*
G37*
G36*
G01*
X160035000Y-123725000D02*
X159035000Y-123725000D01*
G75*
G02*
X158535000Y-123225000I0J500000D01*
G01*
X158535000Y-121375000D01*
G75*
G02*
X159035000Y-120875000I500000J0D01*
G01*
X160035000Y-120875000D01*
G75*
G02*
X160535000Y-121375000I0J-500000D01*
G01*
X160535000Y-123225000D01*
G75*
G02*
X160035000Y-123725000I-500000J0D01*
G01*
G37*
G36*
G01*
X160035000Y-127685000D02*
X159035000Y-127685000D01*
G75*
G02*
X158535000Y-127185000I0J500000D01*
G01*
X158535000Y-125335000D01*
G75*
G02*
X159035000Y-124835000I500000J0D01*
G01*
X160035000Y-124835000D01*
G75*
G02*
X160535000Y-125335000I0J-500000D01*
G01*
X160535000Y-127185000D01*
G75*
G02*
X160035000Y-127685000I-500000J0D01*
G01*
G37*
G36*
G01*
X160035000Y-131645000D02*
X159035000Y-131645000D01*
G75*
G02*
X158535000Y-131145000I0J500000D01*
G01*
X158535000Y-129295000D01*
G75*
G02*
X159035000Y-128795000I500000J0D01*
G01*
X160035000Y-128795000D01*
G75*
G02*
X160535000Y-129295000I0J-500000D01*
G01*
X160535000Y-131145000D01*
G75*
G02*
X160035000Y-131645000I-500000J0D01*
G01*
G37*
G36*
G01*
X160035000Y-135605000D02*
X159035000Y-135605000D01*
G75*
G02*
X158535000Y-135105000I0J500000D01*
G01*
X158535000Y-133255000D01*
G75*
G02*
X159035000Y-132755000I500000J0D01*
G01*
X160035000Y-132755000D01*
G75*
G02*
X160535000Y-133255000I0J-500000D01*
G01*
X160535000Y-135105000D01*
G75*
G02*
X160035000Y-135605000I-500000J0D01*
G01*
G37*
G36*
G01*
X160035000Y-139565000D02*
X159035000Y-139565000D01*
G75*
G02*
X158535000Y-139065000I0J500000D01*
G01*
X158535000Y-137215000D01*
G75*
G02*
X159035000Y-136715000I500000J0D01*
G01*
X160035000Y-136715000D01*
G75*
G02*
X160535000Y-137215000I0J-500000D01*
G01*
X160535000Y-139065000D01*
G75*
G02*
X160035000Y-139565000I-500000J0D01*
G01*
G37*
G36*
G01*
X160035000Y-143525000D02*
X159035000Y-143525000D01*
G75*
G02*
X158535000Y-143025000I0J500000D01*
G01*
X158535000Y-141175000D01*
G75*
G02*
X159035000Y-140675000I500000J0D01*
G01*
X160035000Y-140675000D01*
G75*
G02*
X160535000Y-141175000I0J-500000D01*
G01*
X160535000Y-143025000D01*
G75*
G02*
X160035000Y-143525000I-500000J0D01*
G01*
G37*
G36*
G01*
X160035000Y-147485000D02*
X159035000Y-147485000D01*
G75*
G02*
X158535000Y-146985000I0J500000D01*
G01*
X158535000Y-145135000D01*
G75*
G02*
X159035000Y-144635000I500000J0D01*
G01*
X160035000Y-144635000D01*
G75*
G02*
X160535000Y-145135000I0J-500000D01*
G01*
X160535000Y-146985000D01*
G75*
G02*
X160035000Y-147485000I-500000J0D01*
G01*
G37*
G36*
G01*
X160035000Y-151445000D02*
X159035000Y-151445000D01*
G75*
G02*
X158535000Y-150945000I0J500000D01*
G01*
X158535000Y-149095000D01*
G75*
G02*
X159035000Y-148595000I500000J0D01*
G01*
X160035000Y-148595000D01*
G75*
G02*
X160535000Y-149095000I0J-500000D01*
G01*
X160535000Y-150945000D01*
G75*
G02*
X160035000Y-151445000I-500000J0D01*
G01*
G37*
G36*
G01*
X160035000Y-155405000D02*
X159035000Y-155405000D01*
G75*
G02*
X158535000Y-154905000I0J500000D01*
G01*
X158535000Y-153055000D01*
G75*
G02*
X159035000Y-152555000I500000J0D01*
G01*
X160035000Y-152555000D01*
G75*
G02*
X160535000Y-153055000I0J-500000D01*
G01*
X160535000Y-154905000D01*
G75*
G02*
X160035000Y-155405000I-500000J0D01*
G01*
G37*
G36*
G01*
X160035000Y-159365000D02*
X159035000Y-159365000D01*
G75*
G02*
X158535000Y-158865000I0J500000D01*
G01*
X158535000Y-157015000D01*
G75*
G02*
X159035000Y-156515000I500000J0D01*
G01*
X160035000Y-156515000D01*
G75*
G02*
X160535000Y-157015000I0J-500000D01*
G01*
X160535000Y-158865000D01*
G75*
G02*
X160035000Y-159365000I-500000J0D01*
G01*
G37*
G36*
G01*
X160035000Y-163325000D02*
X159035000Y-163325000D01*
G75*
G02*
X158535000Y-162825000I0J500000D01*
G01*
X158535000Y-160975000D01*
G75*
G02*
X159035000Y-160475000I500000J0D01*
G01*
X160035000Y-160475000D01*
G75*
G02*
X160535000Y-160975000I0J-500000D01*
G01*
X160535000Y-162825000D01*
G75*
G02*
X160035000Y-163325000I-500000J0D01*
G01*
G37*
G36*
G01*
X156075000Y-80165000D02*
X155075000Y-80165000D01*
G75*
G02*
X154575000Y-79665000I0J500000D01*
G01*
X154575000Y-77815000D01*
G75*
G02*
X155075000Y-77315000I500000J0D01*
G01*
X156075000Y-77315000D01*
G75*
G02*
X156575000Y-77815000I0J-500000D01*
G01*
X156575000Y-79665000D01*
G75*
G02*
X156075000Y-80165000I-500000J0D01*
G01*
G37*
G36*
G01*
X156075000Y-84125000D02*
X155075000Y-84125000D01*
G75*
G02*
X154575000Y-83625000I0J500000D01*
G01*
X154575000Y-81775000D01*
G75*
G02*
X155075000Y-81275000I500000J0D01*
G01*
X156075000Y-81275000D01*
G75*
G02*
X156575000Y-81775000I0J-500000D01*
G01*
X156575000Y-83625000D01*
G75*
G02*
X156075000Y-84125000I-500000J0D01*
G01*
G37*
G36*
G01*
X156075000Y-88085000D02*
X155075000Y-88085000D01*
G75*
G02*
X154575000Y-87585000I0J500000D01*
G01*
X154575000Y-85735000D01*
G75*
G02*
X155075000Y-85235000I500000J0D01*
G01*
X156075000Y-85235000D01*
G75*
G02*
X156575000Y-85735000I0J-500000D01*
G01*
X156575000Y-87585000D01*
G75*
G02*
X156075000Y-88085000I-500000J0D01*
G01*
G37*
G36*
G01*
X156075000Y-92045000D02*
X155075000Y-92045000D01*
G75*
G02*
X154575000Y-91545000I0J500000D01*
G01*
X154575000Y-89695000D01*
G75*
G02*
X155075000Y-89195000I500000J0D01*
G01*
X156075000Y-89195000D01*
G75*
G02*
X156575000Y-89695000I0J-500000D01*
G01*
X156575000Y-91545000D01*
G75*
G02*
X156075000Y-92045000I-500000J0D01*
G01*
G37*
G36*
G01*
X156075000Y-96005000D02*
X155075000Y-96005000D01*
G75*
G02*
X154575000Y-95505000I0J500000D01*
G01*
X154575000Y-93655000D01*
G75*
G02*
X155075000Y-93155000I500000J0D01*
G01*
X156075000Y-93155000D01*
G75*
G02*
X156575000Y-93655000I0J-500000D01*
G01*
X156575000Y-95505000D01*
G75*
G02*
X156075000Y-96005000I-500000J0D01*
G01*
G37*
G36*
G01*
X156075000Y-99965000D02*
X155075000Y-99965000D01*
G75*
G02*
X154575000Y-99465000I0J500000D01*
G01*
X154575000Y-97615000D01*
G75*
G02*
X155075000Y-97115000I500000J0D01*
G01*
X156075000Y-97115000D01*
G75*
G02*
X156575000Y-97615000I0J-500000D01*
G01*
X156575000Y-99465000D01*
G75*
G02*
X156075000Y-99965000I-500000J0D01*
G01*
G37*
G36*
G01*
X156075000Y-103925000D02*
X155075000Y-103925000D01*
G75*
G02*
X154575000Y-103425000I0J500000D01*
G01*
X154575000Y-101575000D01*
G75*
G02*
X155075000Y-101075000I500000J0D01*
G01*
X156075000Y-101075000D01*
G75*
G02*
X156575000Y-101575000I0J-500000D01*
G01*
X156575000Y-103425000D01*
G75*
G02*
X156075000Y-103925000I-500000J0D01*
G01*
G37*
G36*
G01*
X156075000Y-107885000D02*
X155075000Y-107885000D01*
G75*
G02*
X154575000Y-107385000I0J500000D01*
G01*
X154575000Y-105535000D01*
G75*
G02*
X155075000Y-105035000I500000J0D01*
G01*
X156075000Y-105035000D01*
G75*
G02*
X156575000Y-105535000I0J-500000D01*
G01*
X156575000Y-107385000D01*
G75*
G02*
X156075000Y-107885000I-500000J0D01*
G01*
G37*
G36*
G01*
X156075000Y-111845000D02*
X155075000Y-111845000D01*
G75*
G02*
X154575000Y-111345000I0J500000D01*
G01*
X154575000Y-109495000D01*
G75*
G02*
X155075000Y-108995000I500000J0D01*
G01*
X156075000Y-108995000D01*
G75*
G02*
X156575000Y-109495000I0J-500000D01*
G01*
X156575000Y-111345000D01*
G75*
G02*
X156075000Y-111845000I-500000J0D01*
G01*
G37*
G36*
G01*
X156075000Y-115805000D02*
X155075000Y-115805000D01*
G75*
G02*
X154575000Y-115305000I0J500000D01*
G01*
X154575000Y-113455000D01*
G75*
G02*
X155075000Y-112955000I500000J0D01*
G01*
X156075000Y-112955000D01*
G75*
G02*
X156575000Y-113455000I0J-500000D01*
G01*
X156575000Y-115305000D01*
G75*
G02*
X156075000Y-115805000I-500000J0D01*
G01*
G37*
G36*
G01*
X156075000Y-119765000D02*
X155075000Y-119765000D01*
G75*
G02*
X154575000Y-119265000I0J500000D01*
G01*
X154575000Y-117415000D01*
G75*
G02*
X155075000Y-116915000I500000J0D01*
G01*
X156075000Y-116915000D01*
G75*
G02*
X156575000Y-117415000I0J-500000D01*
G01*
X156575000Y-119265000D01*
G75*
G02*
X156075000Y-119765000I-500000J0D01*
G01*
G37*
G36*
G01*
X156075000Y-123725000D02*
X155075000Y-123725000D01*
G75*
G02*
X154575000Y-123225000I0J500000D01*
G01*
X154575000Y-121375000D01*
G75*
G02*
X155075000Y-120875000I500000J0D01*
G01*
X156075000Y-120875000D01*
G75*
G02*
X156575000Y-121375000I0J-500000D01*
G01*
X156575000Y-123225000D01*
G75*
G02*
X156075000Y-123725000I-500000J0D01*
G01*
G37*
G36*
G01*
X156075000Y-127685000D02*
X155075000Y-127685000D01*
G75*
G02*
X154575000Y-127185000I0J500000D01*
G01*
X154575000Y-125335000D01*
G75*
G02*
X155075000Y-124835000I500000J0D01*
G01*
X156075000Y-124835000D01*
G75*
G02*
X156575000Y-125335000I0J-500000D01*
G01*
X156575000Y-127185000D01*
G75*
G02*
X156075000Y-127685000I-500000J0D01*
G01*
G37*
G36*
G01*
X156075000Y-131645000D02*
X155075000Y-131645000D01*
G75*
G02*
X154575000Y-131145000I0J500000D01*
G01*
X154575000Y-129295000D01*
G75*
G02*
X155075000Y-128795000I500000J0D01*
G01*
X156075000Y-128795000D01*
G75*
G02*
X156575000Y-129295000I0J-500000D01*
G01*
X156575000Y-131145000D01*
G75*
G02*
X156075000Y-131645000I-500000J0D01*
G01*
G37*
G36*
G01*
X156075000Y-135605000D02*
X155075000Y-135605000D01*
G75*
G02*
X154575000Y-135105000I0J500000D01*
G01*
X154575000Y-133255000D01*
G75*
G02*
X155075000Y-132755000I500000J0D01*
G01*
X156075000Y-132755000D01*
G75*
G02*
X156575000Y-133255000I0J-500000D01*
G01*
X156575000Y-135105000D01*
G75*
G02*
X156075000Y-135605000I-500000J0D01*
G01*
G37*
G36*
G01*
X156075000Y-139565000D02*
X155075000Y-139565000D01*
G75*
G02*
X154575000Y-139065000I0J500000D01*
G01*
X154575000Y-137215000D01*
G75*
G02*
X155075000Y-136715000I500000J0D01*
G01*
X156075000Y-136715000D01*
G75*
G02*
X156575000Y-137215000I0J-500000D01*
G01*
X156575000Y-139065000D01*
G75*
G02*
X156075000Y-139565000I-500000J0D01*
G01*
G37*
G36*
G01*
X156075000Y-143525000D02*
X155075000Y-143525000D01*
G75*
G02*
X154575000Y-143025000I0J500000D01*
G01*
X154575000Y-141175000D01*
G75*
G02*
X155075000Y-140675000I500000J0D01*
G01*
X156075000Y-140675000D01*
G75*
G02*
X156575000Y-141175000I0J-500000D01*
G01*
X156575000Y-143025000D01*
G75*
G02*
X156075000Y-143525000I-500000J0D01*
G01*
G37*
G36*
G01*
X156075000Y-147485000D02*
X155075000Y-147485000D01*
G75*
G02*
X154575000Y-146985000I0J500000D01*
G01*
X154575000Y-145135000D01*
G75*
G02*
X155075000Y-144635000I500000J0D01*
G01*
X156075000Y-144635000D01*
G75*
G02*
X156575000Y-145135000I0J-500000D01*
G01*
X156575000Y-146985000D01*
G75*
G02*
X156075000Y-147485000I-500000J0D01*
G01*
G37*
G36*
G01*
X156075000Y-151445000D02*
X155075000Y-151445000D01*
G75*
G02*
X154575000Y-150945000I0J500000D01*
G01*
X154575000Y-149095000D01*
G75*
G02*
X155075000Y-148595000I500000J0D01*
G01*
X156075000Y-148595000D01*
G75*
G02*
X156575000Y-149095000I0J-500000D01*
G01*
X156575000Y-150945000D01*
G75*
G02*
X156075000Y-151445000I-500000J0D01*
G01*
G37*
G36*
G01*
X156075000Y-155405000D02*
X155075000Y-155405000D01*
G75*
G02*
X154575000Y-154905000I0J500000D01*
G01*
X154575000Y-153055000D01*
G75*
G02*
X155075000Y-152555000I500000J0D01*
G01*
X156075000Y-152555000D01*
G75*
G02*
X156575000Y-153055000I0J-500000D01*
G01*
X156575000Y-154905000D01*
G75*
G02*
X156075000Y-155405000I-500000J0D01*
G01*
G37*
G36*
G01*
X156075000Y-159365000D02*
X155075000Y-159365000D01*
G75*
G02*
X154575000Y-158865000I0J500000D01*
G01*
X154575000Y-157015000D01*
G75*
G02*
X155075000Y-156515000I500000J0D01*
G01*
X156075000Y-156515000D01*
G75*
G02*
X156575000Y-157015000I0J-500000D01*
G01*
X156575000Y-158865000D01*
G75*
G02*
X156075000Y-159365000I-500000J0D01*
G01*
G37*
G36*
G01*
X156075000Y-163325000D02*
X155075000Y-163325000D01*
G75*
G02*
X154575000Y-162825000I0J500000D01*
G01*
X154575000Y-160975000D01*
G75*
G02*
X155075000Y-160475000I500000J0D01*
G01*
X156075000Y-160475000D01*
G75*
G02*
X156575000Y-160975000I0J-500000D01*
G01*
X156575000Y-162825000D01*
G75*
G02*
X156075000Y-163325000I-500000J0D01*
G01*
G37*
%TD*%
%TO.C,X3*%
G36*
G01*
X198135000Y-80165000D02*
X197135000Y-80165000D01*
G75*
G02*
X196635000Y-79665000I0J500000D01*
G01*
X196635000Y-77815000D01*
G75*
G02*
X197135000Y-77315000I500000J0D01*
G01*
X198135000Y-77315000D01*
G75*
G02*
X198635000Y-77815000I0J-500000D01*
G01*
X198635000Y-79665000D01*
G75*
G02*
X198135000Y-80165000I-500000J0D01*
G01*
G37*
G36*
G01*
X198135000Y-84125000D02*
X197135000Y-84125000D01*
G75*
G02*
X196635000Y-83625000I0J500000D01*
G01*
X196635000Y-81775000D01*
G75*
G02*
X197135000Y-81275000I500000J0D01*
G01*
X198135000Y-81275000D01*
G75*
G02*
X198635000Y-81775000I0J-500000D01*
G01*
X198635000Y-83625000D01*
G75*
G02*
X198135000Y-84125000I-500000J0D01*
G01*
G37*
G36*
G01*
X198135000Y-88085000D02*
X197135000Y-88085000D01*
G75*
G02*
X196635000Y-87585000I0J500000D01*
G01*
X196635000Y-85735000D01*
G75*
G02*
X197135000Y-85235000I500000J0D01*
G01*
X198135000Y-85235000D01*
G75*
G02*
X198635000Y-85735000I0J-500000D01*
G01*
X198635000Y-87585000D01*
G75*
G02*
X198135000Y-88085000I-500000J0D01*
G01*
G37*
G36*
G01*
X198135000Y-92045000D02*
X197135000Y-92045000D01*
G75*
G02*
X196635000Y-91545000I0J500000D01*
G01*
X196635000Y-89695000D01*
G75*
G02*
X197135000Y-89195000I500000J0D01*
G01*
X198135000Y-89195000D01*
G75*
G02*
X198635000Y-89695000I0J-500000D01*
G01*
X198635000Y-91545000D01*
G75*
G02*
X198135000Y-92045000I-500000J0D01*
G01*
G37*
G36*
G01*
X198135000Y-96005000D02*
X197135000Y-96005000D01*
G75*
G02*
X196635000Y-95505000I0J500000D01*
G01*
X196635000Y-93655000D01*
G75*
G02*
X197135000Y-93155000I500000J0D01*
G01*
X198135000Y-93155000D01*
G75*
G02*
X198635000Y-93655000I0J-500000D01*
G01*
X198635000Y-95505000D01*
G75*
G02*
X198135000Y-96005000I-500000J0D01*
G01*
G37*
G36*
G01*
X198135000Y-99965000D02*
X197135000Y-99965000D01*
G75*
G02*
X196635000Y-99465000I0J500000D01*
G01*
X196635000Y-97615000D01*
G75*
G02*
X197135000Y-97115000I500000J0D01*
G01*
X198135000Y-97115000D01*
G75*
G02*
X198635000Y-97615000I0J-500000D01*
G01*
X198635000Y-99465000D01*
G75*
G02*
X198135000Y-99965000I-500000J0D01*
G01*
G37*
G36*
G01*
X198135000Y-103925000D02*
X197135000Y-103925000D01*
G75*
G02*
X196635000Y-103425000I0J500000D01*
G01*
X196635000Y-101575000D01*
G75*
G02*
X197135000Y-101075000I500000J0D01*
G01*
X198135000Y-101075000D01*
G75*
G02*
X198635000Y-101575000I0J-500000D01*
G01*
X198635000Y-103425000D01*
G75*
G02*
X198135000Y-103925000I-500000J0D01*
G01*
G37*
G36*
G01*
X198135000Y-107885000D02*
X197135000Y-107885000D01*
G75*
G02*
X196635000Y-107385000I0J500000D01*
G01*
X196635000Y-105535000D01*
G75*
G02*
X197135000Y-105035000I500000J0D01*
G01*
X198135000Y-105035000D01*
G75*
G02*
X198635000Y-105535000I0J-500000D01*
G01*
X198635000Y-107385000D01*
G75*
G02*
X198135000Y-107885000I-500000J0D01*
G01*
G37*
G36*
G01*
X198135000Y-111845000D02*
X197135000Y-111845000D01*
G75*
G02*
X196635000Y-111345000I0J500000D01*
G01*
X196635000Y-109495000D01*
G75*
G02*
X197135000Y-108995000I500000J0D01*
G01*
X198135000Y-108995000D01*
G75*
G02*
X198635000Y-109495000I0J-500000D01*
G01*
X198635000Y-111345000D01*
G75*
G02*
X198135000Y-111845000I-500000J0D01*
G01*
G37*
G36*
G01*
X198135000Y-115805000D02*
X197135000Y-115805000D01*
G75*
G02*
X196635000Y-115305000I0J500000D01*
G01*
X196635000Y-113455000D01*
G75*
G02*
X197135000Y-112955000I500000J0D01*
G01*
X198135000Y-112955000D01*
G75*
G02*
X198635000Y-113455000I0J-500000D01*
G01*
X198635000Y-115305000D01*
G75*
G02*
X198135000Y-115805000I-500000J0D01*
G01*
G37*
G36*
G01*
X198135000Y-119765000D02*
X197135000Y-119765000D01*
G75*
G02*
X196635000Y-119265000I0J500000D01*
G01*
X196635000Y-117415000D01*
G75*
G02*
X197135000Y-116915000I500000J0D01*
G01*
X198135000Y-116915000D01*
G75*
G02*
X198635000Y-117415000I0J-500000D01*
G01*
X198635000Y-119265000D01*
G75*
G02*
X198135000Y-119765000I-500000J0D01*
G01*
G37*
G36*
G01*
X198135000Y-123725000D02*
X197135000Y-123725000D01*
G75*
G02*
X196635000Y-123225000I0J500000D01*
G01*
X196635000Y-121375000D01*
G75*
G02*
X197135000Y-120875000I500000J0D01*
G01*
X198135000Y-120875000D01*
G75*
G02*
X198635000Y-121375000I0J-500000D01*
G01*
X198635000Y-123225000D01*
G75*
G02*
X198135000Y-123725000I-500000J0D01*
G01*
G37*
G36*
G01*
X198135000Y-127685000D02*
X197135000Y-127685000D01*
G75*
G02*
X196635000Y-127185000I0J500000D01*
G01*
X196635000Y-125335000D01*
G75*
G02*
X197135000Y-124835000I500000J0D01*
G01*
X198135000Y-124835000D01*
G75*
G02*
X198635000Y-125335000I0J-500000D01*
G01*
X198635000Y-127185000D01*
G75*
G02*
X198135000Y-127685000I-500000J0D01*
G01*
G37*
G36*
G01*
X198135000Y-131645000D02*
X197135000Y-131645000D01*
G75*
G02*
X196635000Y-131145000I0J500000D01*
G01*
X196635000Y-129295000D01*
G75*
G02*
X197135000Y-128795000I500000J0D01*
G01*
X198135000Y-128795000D01*
G75*
G02*
X198635000Y-129295000I0J-500000D01*
G01*
X198635000Y-131145000D01*
G75*
G02*
X198135000Y-131645000I-500000J0D01*
G01*
G37*
G36*
G01*
X198135000Y-135605000D02*
X197135000Y-135605000D01*
G75*
G02*
X196635000Y-135105000I0J500000D01*
G01*
X196635000Y-133255000D01*
G75*
G02*
X197135000Y-132755000I500000J0D01*
G01*
X198135000Y-132755000D01*
G75*
G02*
X198635000Y-133255000I0J-500000D01*
G01*
X198635000Y-135105000D01*
G75*
G02*
X198135000Y-135605000I-500000J0D01*
G01*
G37*
G36*
G01*
X198135000Y-139565000D02*
X197135000Y-139565000D01*
G75*
G02*
X196635000Y-139065000I0J500000D01*
G01*
X196635000Y-137215000D01*
G75*
G02*
X197135000Y-136715000I500000J0D01*
G01*
X198135000Y-136715000D01*
G75*
G02*
X198635000Y-137215000I0J-500000D01*
G01*
X198635000Y-139065000D01*
G75*
G02*
X198135000Y-139565000I-500000J0D01*
G01*
G37*
G36*
G01*
X198135000Y-143525000D02*
X197135000Y-143525000D01*
G75*
G02*
X196635000Y-143025000I0J500000D01*
G01*
X196635000Y-141175000D01*
G75*
G02*
X197135000Y-140675000I500000J0D01*
G01*
X198135000Y-140675000D01*
G75*
G02*
X198635000Y-141175000I0J-500000D01*
G01*
X198635000Y-143025000D01*
G75*
G02*
X198135000Y-143525000I-500000J0D01*
G01*
G37*
G36*
G01*
X198135000Y-147485000D02*
X197135000Y-147485000D01*
G75*
G02*
X196635000Y-146985000I0J500000D01*
G01*
X196635000Y-145135000D01*
G75*
G02*
X197135000Y-144635000I500000J0D01*
G01*
X198135000Y-144635000D01*
G75*
G02*
X198635000Y-145135000I0J-500000D01*
G01*
X198635000Y-146985000D01*
G75*
G02*
X198135000Y-147485000I-500000J0D01*
G01*
G37*
G36*
G01*
X198135000Y-151445000D02*
X197135000Y-151445000D01*
G75*
G02*
X196635000Y-150945000I0J500000D01*
G01*
X196635000Y-149095000D01*
G75*
G02*
X197135000Y-148595000I500000J0D01*
G01*
X198135000Y-148595000D01*
G75*
G02*
X198635000Y-149095000I0J-500000D01*
G01*
X198635000Y-150945000D01*
G75*
G02*
X198135000Y-151445000I-500000J0D01*
G01*
G37*
G36*
G01*
X198135000Y-155405000D02*
X197135000Y-155405000D01*
G75*
G02*
X196635000Y-154905000I0J500000D01*
G01*
X196635000Y-153055000D01*
G75*
G02*
X197135000Y-152555000I500000J0D01*
G01*
X198135000Y-152555000D01*
G75*
G02*
X198635000Y-153055000I0J-500000D01*
G01*
X198635000Y-154905000D01*
G75*
G02*
X198135000Y-155405000I-500000J0D01*
G01*
G37*
G36*
G01*
X198135000Y-159365000D02*
X197135000Y-159365000D01*
G75*
G02*
X196635000Y-158865000I0J500000D01*
G01*
X196635000Y-157015000D01*
G75*
G02*
X197135000Y-156515000I500000J0D01*
G01*
X198135000Y-156515000D01*
G75*
G02*
X198635000Y-157015000I0J-500000D01*
G01*
X198635000Y-158865000D01*
G75*
G02*
X198135000Y-159365000I-500000J0D01*
G01*
G37*
G36*
G01*
X198135000Y-163325000D02*
X197135000Y-163325000D01*
G75*
G02*
X196635000Y-162825000I0J500000D01*
G01*
X196635000Y-160975000D01*
G75*
G02*
X197135000Y-160475000I500000J0D01*
G01*
X198135000Y-160475000D01*
G75*
G02*
X198635000Y-160975000I0J-500000D01*
G01*
X198635000Y-162825000D01*
G75*
G02*
X198135000Y-163325000I-500000J0D01*
G01*
G37*
G36*
G01*
X194175000Y-80165000D02*
X193175000Y-80165000D01*
G75*
G02*
X192675000Y-79665000I0J500000D01*
G01*
X192675000Y-77815000D01*
G75*
G02*
X193175000Y-77315000I500000J0D01*
G01*
X194175000Y-77315000D01*
G75*
G02*
X194675000Y-77815000I0J-500000D01*
G01*
X194675000Y-79665000D01*
G75*
G02*
X194175000Y-80165000I-500000J0D01*
G01*
G37*
G36*
G01*
X194175000Y-84125000D02*
X193175000Y-84125000D01*
G75*
G02*
X192675000Y-83625000I0J500000D01*
G01*
X192675000Y-81775000D01*
G75*
G02*
X193175000Y-81275000I500000J0D01*
G01*
X194175000Y-81275000D01*
G75*
G02*
X194675000Y-81775000I0J-500000D01*
G01*
X194675000Y-83625000D01*
G75*
G02*
X194175000Y-84125000I-500000J0D01*
G01*
G37*
G36*
G01*
X194175000Y-88085000D02*
X193175000Y-88085000D01*
G75*
G02*
X192675000Y-87585000I0J500000D01*
G01*
X192675000Y-85735000D01*
G75*
G02*
X193175000Y-85235000I500000J0D01*
G01*
X194175000Y-85235000D01*
G75*
G02*
X194675000Y-85735000I0J-500000D01*
G01*
X194675000Y-87585000D01*
G75*
G02*
X194175000Y-88085000I-500000J0D01*
G01*
G37*
G36*
G01*
X194175000Y-92045000D02*
X193175000Y-92045000D01*
G75*
G02*
X192675000Y-91545000I0J500000D01*
G01*
X192675000Y-89695000D01*
G75*
G02*
X193175000Y-89195000I500000J0D01*
G01*
X194175000Y-89195000D01*
G75*
G02*
X194675000Y-89695000I0J-500000D01*
G01*
X194675000Y-91545000D01*
G75*
G02*
X194175000Y-92045000I-500000J0D01*
G01*
G37*
G36*
G01*
X194175000Y-96005000D02*
X193175000Y-96005000D01*
G75*
G02*
X192675000Y-95505000I0J500000D01*
G01*
X192675000Y-93655000D01*
G75*
G02*
X193175000Y-93155000I500000J0D01*
G01*
X194175000Y-93155000D01*
G75*
G02*
X194675000Y-93655000I0J-500000D01*
G01*
X194675000Y-95505000D01*
G75*
G02*
X194175000Y-96005000I-500000J0D01*
G01*
G37*
G36*
G01*
X194175000Y-99965000D02*
X193175000Y-99965000D01*
G75*
G02*
X192675000Y-99465000I0J500000D01*
G01*
X192675000Y-97615000D01*
G75*
G02*
X193175000Y-97115000I500000J0D01*
G01*
X194175000Y-97115000D01*
G75*
G02*
X194675000Y-97615000I0J-500000D01*
G01*
X194675000Y-99465000D01*
G75*
G02*
X194175000Y-99965000I-500000J0D01*
G01*
G37*
G36*
G01*
X194175000Y-103925000D02*
X193175000Y-103925000D01*
G75*
G02*
X192675000Y-103425000I0J500000D01*
G01*
X192675000Y-101575000D01*
G75*
G02*
X193175000Y-101075000I500000J0D01*
G01*
X194175000Y-101075000D01*
G75*
G02*
X194675000Y-101575000I0J-500000D01*
G01*
X194675000Y-103425000D01*
G75*
G02*
X194175000Y-103925000I-500000J0D01*
G01*
G37*
G36*
G01*
X194175000Y-107885000D02*
X193175000Y-107885000D01*
G75*
G02*
X192675000Y-107385000I0J500000D01*
G01*
X192675000Y-105535000D01*
G75*
G02*
X193175000Y-105035000I500000J0D01*
G01*
X194175000Y-105035000D01*
G75*
G02*
X194675000Y-105535000I0J-500000D01*
G01*
X194675000Y-107385000D01*
G75*
G02*
X194175000Y-107885000I-500000J0D01*
G01*
G37*
G36*
G01*
X194175000Y-111845000D02*
X193175000Y-111845000D01*
G75*
G02*
X192675000Y-111345000I0J500000D01*
G01*
X192675000Y-109495000D01*
G75*
G02*
X193175000Y-108995000I500000J0D01*
G01*
X194175000Y-108995000D01*
G75*
G02*
X194675000Y-109495000I0J-500000D01*
G01*
X194675000Y-111345000D01*
G75*
G02*
X194175000Y-111845000I-500000J0D01*
G01*
G37*
G36*
G01*
X194175000Y-115805000D02*
X193175000Y-115805000D01*
G75*
G02*
X192675000Y-115305000I0J500000D01*
G01*
X192675000Y-113455000D01*
G75*
G02*
X193175000Y-112955000I500000J0D01*
G01*
X194175000Y-112955000D01*
G75*
G02*
X194675000Y-113455000I0J-500000D01*
G01*
X194675000Y-115305000D01*
G75*
G02*
X194175000Y-115805000I-500000J0D01*
G01*
G37*
G36*
G01*
X194175000Y-119765000D02*
X193175000Y-119765000D01*
G75*
G02*
X192675000Y-119265000I0J500000D01*
G01*
X192675000Y-117415000D01*
G75*
G02*
X193175000Y-116915000I500000J0D01*
G01*
X194175000Y-116915000D01*
G75*
G02*
X194675000Y-117415000I0J-500000D01*
G01*
X194675000Y-119265000D01*
G75*
G02*
X194175000Y-119765000I-500000J0D01*
G01*
G37*
G36*
G01*
X194175000Y-123725000D02*
X193175000Y-123725000D01*
G75*
G02*
X192675000Y-123225000I0J500000D01*
G01*
X192675000Y-121375000D01*
G75*
G02*
X193175000Y-120875000I500000J0D01*
G01*
X194175000Y-120875000D01*
G75*
G02*
X194675000Y-121375000I0J-500000D01*
G01*
X194675000Y-123225000D01*
G75*
G02*
X194175000Y-123725000I-500000J0D01*
G01*
G37*
G36*
G01*
X194175000Y-127685000D02*
X193175000Y-127685000D01*
G75*
G02*
X192675000Y-127185000I0J500000D01*
G01*
X192675000Y-125335000D01*
G75*
G02*
X193175000Y-124835000I500000J0D01*
G01*
X194175000Y-124835000D01*
G75*
G02*
X194675000Y-125335000I0J-500000D01*
G01*
X194675000Y-127185000D01*
G75*
G02*
X194175000Y-127685000I-500000J0D01*
G01*
G37*
G36*
G01*
X194175000Y-131645000D02*
X193175000Y-131645000D01*
G75*
G02*
X192675000Y-131145000I0J500000D01*
G01*
X192675000Y-129295000D01*
G75*
G02*
X193175000Y-128795000I500000J0D01*
G01*
X194175000Y-128795000D01*
G75*
G02*
X194675000Y-129295000I0J-500000D01*
G01*
X194675000Y-131145000D01*
G75*
G02*
X194175000Y-131645000I-500000J0D01*
G01*
G37*
G36*
G01*
X194175000Y-135605000D02*
X193175000Y-135605000D01*
G75*
G02*
X192675000Y-135105000I0J500000D01*
G01*
X192675000Y-133255000D01*
G75*
G02*
X193175000Y-132755000I500000J0D01*
G01*
X194175000Y-132755000D01*
G75*
G02*
X194675000Y-133255000I0J-500000D01*
G01*
X194675000Y-135105000D01*
G75*
G02*
X194175000Y-135605000I-500000J0D01*
G01*
G37*
G36*
G01*
X194175000Y-139565000D02*
X193175000Y-139565000D01*
G75*
G02*
X192675000Y-139065000I0J500000D01*
G01*
X192675000Y-137215000D01*
G75*
G02*
X193175000Y-136715000I500000J0D01*
G01*
X194175000Y-136715000D01*
G75*
G02*
X194675000Y-137215000I0J-500000D01*
G01*
X194675000Y-139065000D01*
G75*
G02*
X194175000Y-139565000I-500000J0D01*
G01*
G37*
G36*
G01*
X194175000Y-143525000D02*
X193175000Y-143525000D01*
G75*
G02*
X192675000Y-143025000I0J500000D01*
G01*
X192675000Y-141175000D01*
G75*
G02*
X193175000Y-140675000I500000J0D01*
G01*
X194175000Y-140675000D01*
G75*
G02*
X194675000Y-141175000I0J-500000D01*
G01*
X194675000Y-143025000D01*
G75*
G02*
X194175000Y-143525000I-500000J0D01*
G01*
G37*
G36*
G01*
X194175000Y-147485000D02*
X193175000Y-147485000D01*
G75*
G02*
X192675000Y-146985000I0J500000D01*
G01*
X192675000Y-145135000D01*
G75*
G02*
X193175000Y-144635000I500000J0D01*
G01*
X194175000Y-144635000D01*
G75*
G02*
X194675000Y-145135000I0J-500000D01*
G01*
X194675000Y-146985000D01*
G75*
G02*
X194175000Y-147485000I-500000J0D01*
G01*
G37*
G36*
G01*
X194175000Y-151445000D02*
X193175000Y-151445000D01*
G75*
G02*
X192675000Y-150945000I0J500000D01*
G01*
X192675000Y-149095000D01*
G75*
G02*
X193175000Y-148595000I500000J0D01*
G01*
X194175000Y-148595000D01*
G75*
G02*
X194675000Y-149095000I0J-500000D01*
G01*
X194675000Y-150945000D01*
G75*
G02*
X194175000Y-151445000I-500000J0D01*
G01*
G37*
G36*
G01*
X194175000Y-155405000D02*
X193175000Y-155405000D01*
G75*
G02*
X192675000Y-154905000I0J500000D01*
G01*
X192675000Y-153055000D01*
G75*
G02*
X193175000Y-152555000I500000J0D01*
G01*
X194175000Y-152555000D01*
G75*
G02*
X194675000Y-153055000I0J-500000D01*
G01*
X194675000Y-154905000D01*
G75*
G02*
X194175000Y-155405000I-500000J0D01*
G01*
G37*
G36*
G01*
X194175000Y-159365000D02*
X193175000Y-159365000D01*
G75*
G02*
X192675000Y-158865000I0J500000D01*
G01*
X192675000Y-157015000D01*
G75*
G02*
X193175000Y-156515000I500000J0D01*
G01*
X194175000Y-156515000D01*
G75*
G02*
X194675000Y-157015000I0J-500000D01*
G01*
X194675000Y-158865000D01*
G75*
G02*
X194175000Y-159365000I-500000J0D01*
G01*
G37*
G36*
G01*
X194175000Y-163325000D02*
X193175000Y-163325000D01*
G75*
G02*
X192675000Y-162825000I0J500000D01*
G01*
X192675000Y-160975000D01*
G75*
G02*
X193175000Y-160475000I500000J0D01*
G01*
X194175000Y-160475000D01*
G75*
G02*
X194675000Y-160975000I0J-500000D01*
G01*
X194675000Y-162825000D01*
G75*
G02*
X194175000Y-163325000I-500000J0D01*
G01*
G37*
%TD*%
%TO.C,X4*%
G36*
G01*
X236235000Y-80165000D02*
X235235000Y-80165000D01*
G75*
G02*
X234735000Y-79665000I0J500000D01*
G01*
X234735000Y-77815000D01*
G75*
G02*
X235235000Y-77315000I500000J0D01*
G01*
X236235000Y-77315000D01*
G75*
G02*
X236735000Y-77815000I0J-500000D01*
G01*
X236735000Y-79665000D01*
G75*
G02*
X236235000Y-80165000I-500000J0D01*
G01*
G37*
G36*
G01*
X236235000Y-84125000D02*
X235235000Y-84125000D01*
G75*
G02*
X234735000Y-83625000I0J500000D01*
G01*
X234735000Y-81775000D01*
G75*
G02*
X235235000Y-81275000I500000J0D01*
G01*
X236235000Y-81275000D01*
G75*
G02*
X236735000Y-81775000I0J-500000D01*
G01*
X236735000Y-83625000D01*
G75*
G02*
X236235000Y-84125000I-500000J0D01*
G01*
G37*
G36*
G01*
X236235000Y-88085000D02*
X235235000Y-88085000D01*
G75*
G02*
X234735000Y-87585000I0J500000D01*
G01*
X234735000Y-85735000D01*
G75*
G02*
X235235000Y-85235000I500000J0D01*
G01*
X236235000Y-85235000D01*
G75*
G02*
X236735000Y-85735000I0J-500000D01*
G01*
X236735000Y-87585000D01*
G75*
G02*
X236235000Y-88085000I-500000J0D01*
G01*
G37*
G36*
G01*
X236235000Y-92045000D02*
X235235000Y-92045000D01*
G75*
G02*
X234735000Y-91545000I0J500000D01*
G01*
X234735000Y-89695000D01*
G75*
G02*
X235235000Y-89195000I500000J0D01*
G01*
X236235000Y-89195000D01*
G75*
G02*
X236735000Y-89695000I0J-500000D01*
G01*
X236735000Y-91545000D01*
G75*
G02*
X236235000Y-92045000I-500000J0D01*
G01*
G37*
G36*
G01*
X236235000Y-96005000D02*
X235235000Y-96005000D01*
G75*
G02*
X234735000Y-95505000I0J500000D01*
G01*
X234735000Y-93655000D01*
G75*
G02*
X235235000Y-93155000I500000J0D01*
G01*
X236235000Y-93155000D01*
G75*
G02*
X236735000Y-93655000I0J-500000D01*
G01*
X236735000Y-95505000D01*
G75*
G02*
X236235000Y-96005000I-500000J0D01*
G01*
G37*
G36*
G01*
X236235000Y-99965000D02*
X235235000Y-99965000D01*
G75*
G02*
X234735000Y-99465000I0J500000D01*
G01*
X234735000Y-97615000D01*
G75*
G02*
X235235000Y-97115000I500000J0D01*
G01*
X236235000Y-97115000D01*
G75*
G02*
X236735000Y-97615000I0J-500000D01*
G01*
X236735000Y-99465000D01*
G75*
G02*
X236235000Y-99965000I-500000J0D01*
G01*
G37*
G36*
G01*
X236235000Y-103925000D02*
X235235000Y-103925000D01*
G75*
G02*
X234735000Y-103425000I0J500000D01*
G01*
X234735000Y-101575000D01*
G75*
G02*
X235235000Y-101075000I500000J0D01*
G01*
X236235000Y-101075000D01*
G75*
G02*
X236735000Y-101575000I0J-500000D01*
G01*
X236735000Y-103425000D01*
G75*
G02*
X236235000Y-103925000I-500000J0D01*
G01*
G37*
G36*
G01*
X236235000Y-107885000D02*
X235235000Y-107885000D01*
G75*
G02*
X234735000Y-107385000I0J500000D01*
G01*
X234735000Y-105535000D01*
G75*
G02*
X235235000Y-105035000I500000J0D01*
G01*
X236235000Y-105035000D01*
G75*
G02*
X236735000Y-105535000I0J-500000D01*
G01*
X236735000Y-107385000D01*
G75*
G02*
X236235000Y-107885000I-500000J0D01*
G01*
G37*
G36*
G01*
X236235000Y-111845000D02*
X235235000Y-111845000D01*
G75*
G02*
X234735000Y-111345000I0J500000D01*
G01*
X234735000Y-109495000D01*
G75*
G02*
X235235000Y-108995000I500000J0D01*
G01*
X236235000Y-108995000D01*
G75*
G02*
X236735000Y-109495000I0J-500000D01*
G01*
X236735000Y-111345000D01*
G75*
G02*
X236235000Y-111845000I-500000J0D01*
G01*
G37*
G36*
G01*
X236235000Y-115805000D02*
X235235000Y-115805000D01*
G75*
G02*
X234735000Y-115305000I0J500000D01*
G01*
X234735000Y-113455000D01*
G75*
G02*
X235235000Y-112955000I500000J0D01*
G01*
X236235000Y-112955000D01*
G75*
G02*
X236735000Y-113455000I0J-500000D01*
G01*
X236735000Y-115305000D01*
G75*
G02*
X236235000Y-115805000I-500000J0D01*
G01*
G37*
G36*
G01*
X236235000Y-119765000D02*
X235235000Y-119765000D01*
G75*
G02*
X234735000Y-119265000I0J500000D01*
G01*
X234735000Y-117415000D01*
G75*
G02*
X235235000Y-116915000I500000J0D01*
G01*
X236235000Y-116915000D01*
G75*
G02*
X236735000Y-117415000I0J-500000D01*
G01*
X236735000Y-119265000D01*
G75*
G02*
X236235000Y-119765000I-500000J0D01*
G01*
G37*
G36*
G01*
X236235000Y-123725000D02*
X235235000Y-123725000D01*
G75*
G02*
X234735000Y-123225000I0J500000D01*
G01*
X234735000Y-121375000D01*
G75*
G02*
X235235000Y-120875000I500000J0D01*
G01*
X236235000Y-120875000D01*
G75*
G02*
X236735000Y-121375000I0J-500000D01*
G01*
X236735000Y-123225000D01*
G75*
G02*
X236235000Y-123725000I-500000J0D01*
G01*
G37*
G36*
G01*
X236235000Y-127685000D02*
X235235000Y-127685000D01*
G75*
G02*
X234735000Y-127185000I0J500000D01*
G01*
X234735000Y-125335000D01*
G75*
G02*
X235235000Y-124835000I500000J0D01*
G01*
X236235000Y-124835000D01*
G75*
G02*
X236735000Y-125335000I0J-500000D01*
G01*
X236735000Y-127185000D01*
G75*
G02*
X236235000Y-127685000I-500000J0D01*
G01*
G37*
G36*
G01*
X236235000Y-131645000D02*
X235235000Y-131645000D01*
G75*
G02*
X234735000Y-131145000I0J500000D01*
G01*
X234735000Y-129295000D01*
G75*
G02*
X235235000Y-128795000I500000J0D01*
G01*
X236235000Y-128795000D01*
G75*
G02*
X236735000Y-129295000I0J-500000D01*
G01*
X236735000Y-131145000D01*
G75*
G02*
X236235000Y-131645000I-500000J0D01*
G01*
G37*
G36*
G01*
X236235000Y-135605000D02*
X235235000Y-135605000D01*
G75*
G02*
X234735000Y-135105000I0J500000D01*
G01*
X234735000Y-133255000D01*
G75*
G02*
X235235000Y-132755000I500000J0D01*
G01*
X236235000Y-132755000D01*
G75*
G02*
X236735000Y-133255000I0J-500000D01*
G01*
X236735000Y-135105000D01*
G75*
G02*
X236235000Y-135605000I-500000J0D01*
G01*
G37*
G36*
G01*
X236235000Y-139565000D02*
X235235000Y-139565000D01*
G75*
G02*
X234735000Y-139065000I0J500000D01*
G01*
X234735000Y-137215000D01*
G75*
G02*
X235235000Y-136715000I500000J0D01*
G01*
X236235000Y-136715000D01*
G75*
G02*
X236735000Y-137215000I0J-500000D01*
G01*
X236735000Y-139065000D01*
G75*
G02*
X236235000Y-139565000I-500000J0D01*
G01*
G37*
G36*
G01*
X236235000Y-143525000D02*
X235235000Y-143525000D01*
G75*
G02*
X234735000Y-143025000I0J500000D01*
G01*
X234735000Y-141175000D01*
G75*
G02*
X235235000Y-140675000I500000J0D01*
G01*
X236235000Y-140675000D01*
G75*
G02*
X236735000Y-141175000I0J-500000D01*
G01*
X236735000Y-143025000D01*
G75*
G02*
X236235000Y-143525000I-500000J0D01*
G01*
G37*
G36*
G01*
X236235000Y-147485000D02*
X235235000Y-147485000D01*
G75*
G02*
X234735000Y-146985000I0J500000D01*
G01*
X234735000Y-145135000D01*
G75*
G02*
X235235000Y-144635000I500000J0D01*
G01*
X236235000Y-144635000D01*
G75*
G02*
X236735000Y-145135000I0J-500000D01*
G01*
X236735000Y-146985000D01*
G75*
G02*
X236235000Y-147485000I-500000J0D01*
G01*
G37*
G36*
G01*
X236235000Y-151445000D02*
X235235000Y-151445000D01*
G75*
G02*
X234735000Y-150945000I0J500000D01*
G01*
X234735000Y-149095000D01*
G75*
G02*
X235235000Y-148595000I500000J0D01*
G01*
X236235000Y-148595000D01*
G75*
G02*
X236735000Y-149095000I0J-500000D01*
G01*
X236735000Y-150945000D01*
G75*
G02*
X236235000Y-151445000I-500000J0D01*
G01*
G37*
G36*
G01*
X236235000Y-155405000D02*
X235235000Y-155405000D01*
G75*
G02*
X234735000Y-154905000I0J500000D01*
G01*
X234735000Y-153055000D01*
G75*
G02*
X235235000Y-152555000I500000J0D01*
G01*
X236235000Y-152555000D01*
G75*
G02*
X236735000Y-153055000I0J-500000D01*
G01*
X236735000Y-154905000D01*
G75*
G02*
X236235000Y-155405000I-500000J0D01*
G01*
G37*
G36*
G01*
X236235000Y-159365000D02*
X235235000Y-159365000D01*
G75*
G02*
X234735000Y-158865000I0J500000D01*
G01*
X234735000Y-157015000D01*
G75*
G02*
X235235000Y-156515000I500000J0D01*
G01*
X236235000Y-156515000D01*
G75*
G02*
X236735000Y-157015000I0J-500000D01*
G01*
X236735000Y-158865000D01*
G75*
G02*
X236235000Y-159365000I-500000J0D01*
G01*
G37*
G36*
G01*
X236235000Y-163325000D02*
X235235000Y-163325000D01*
G75*
G02*
X234735000Y-162825000I0J500000D01*
G01*
X234735000Y-160975000D01*
G75*
G02*
X235235000Y-160475000I500000J0D01*
G01*
X236235000Y-160475000D01*
G75*
G02*
X236735000Y-160975000I0J-500000D01*
G01*
X236735000Y-162825000D01*
G75*
G02*
X236235000Y-163325000I-500000J0D01*
G01*
G37*
G36*
G01*
X232275000Y-80165000D02*
X231275000Y-80165000D01*
G75*
G02*
X230775000Y-79665000I0J500000D01*
G01*
X230775000Y-77815000D01*
G75*
G02*
X231275000Y-77315000I500000J0D01*
G01*
X232275000Y-77315000D01*
G75*
G02*
X232775000Y-77815000I0J-500000D01*
G01*
X232775000Y-79665000D01*
G75*
G02*
X232275000Y-80165000I-500000J0D01*
G01*
G37*
G36*
G01*
X232275000Y-84125000D02*
X231275000Y-84125000D01*
G75*
G02*
X230775000Y-83625000I0J500000D01*
G01*
X230775000Y-81775000D01*
G75*
G02*
X231275000Y-81275000I500000J0D01*
G01*
X232275000Y-81275000D01*
G75*
G02*
X232775000Y-81775000I0J-500000D01*
G01*
X232775000Y-83625000D01*
G75*
G02*
X232275000Y-84125000I-500000J0D01*
G01*
G37*
G36*
G01*
X232275000Y-88085000D02*
X231275000Y-88085000D01*
G75*
G02*
X230775000Y-87585000I0J500000D01*
G01*
X230775000Y-85735000D01*
G75*
G02*
X231275000Y-85235000I500000J0D01*
G01*
X232275000Y-85235000D01*
G75*
G02*
X232775000Y-85735000I0J-500000D01*
G01*
X232775000Y-87585000D01*
G75*
G02*
X232275000Y-88085000I-500000J0D01*
G01*
G37*
G36*
G01*
X232275000Y-92045000D02*
X231275000Y-92045000D01*
G75*
G02*
X230775000Y-91545000I0J500000D01*
G01*
X230775000Y-89695000D01*
G75*
G02*
X231275000Y-89195000I500000J0D01*
G01*
X232275000Y-89195000D01*
G75*
G02*
X232775000Y-89695000I0J-500000D01*
G01*
X232775000Y-91545000D01*
G75*
G02*
X232275000Y-92045000I-500000J0D01*
G01*
G37*
G36*
G01*
X232275000Y-96005000D02*
X231275000Y-96005000D01*
G75*
G02*
X230775000Y-95505000I0J500000D01*
G01*
X230775000Y-93655000D01*
G75*
G02*
X231275000Y-93155000I500000J0D01*
G01*
X232275000Y-93155000D01*
G75*
G02*
X232775000Y-93655000I0J-500000D01*
G01*
X232775000Y-95505000D01*
G75*
G02*
X232275000Y-96005000I-500000J0D01*
G01*
G37*
G36*
G01*
X232275000Y-99965000D02*
X231275000Y-99965000D01*
G75*
G02*
X230775000Y-99465000I0J500000D01*
G01*
X230775000Y-97615000D01*
G75*
G02*
X231275000Y-97115000I500000J0D01*
G01*
X232275000Y-97115000D01*
G75*
G02*
X232775000Y-97615000I0J-500000D01*
G01*
X232775000Y-99465000D01*
G75*
G02*
X232275000Y-99965000I-500000J0D01*
G01*
G37*
G36*
G01*
X232275000Y-103925000D02*
X231275000Y-103925000D01*
G75*
G02*
X230775000Y-103425000I0J500000D01*
G01*
X230775000Y-101575000D01*
G75*
G02*
X231275000Y-101075000I500000J0D01*
G01*
X232275000Y-101075000D01*
G75*
G02*
X232775000Y-101575000I0J-500000D01*
G01*
X232775000Y-103425000D01*
G75*
G02*
X232275000Y-103925000I-500000J0D01*
G01*
G37*
G36*
G01*
X232275000Y-107885000D02*
X231275000Y-107885000D01*
G75*
G02*
X230775000Y-107385000I0J500000D01*
G01*
X230775000Y-105535000D01*
G75*
G02*
X231275000Y-105035000I500000J0D01*
G01*
X232275000Y-105035000D01*
G75*
G02*
X232775000Y-105535000I0J-500000D01*
G01*
X232775000Y-107385000D01*
G75*
G02*
X232275000Y-107885000I-500000J0D01*
G01*
G37*
G36*
G01*
X232275000Y-111845000D02*
X231275000Y-111845000D01*
G75*
G02*
X230775000Y-111345000I0J500000D01*
G01*
X230775000Y-109495000D01*
G75*
G02*
X231275000Y-108995000I500000J0D01*
G01*
X232275000Y-108995000D01*
G75*
G02*
X232775000Y-109495000I0J-500000D01*
G01*
X232775000Y-111345000D01*
G75*
G02*
X232275000Y-111845000I-500000J0D01*
G01*
G37*
G36*
G01*
X232275000Y-115805000D02*
X231275000Y-115805000D01*
G75*
G02*
X230775000Y-115305000I0J500000D01*
G01*
X230775000Y-113455000D01*
G75*
G02*
X231275000Y-112955000I500000J0D01*
G01*
X232275000Y-112955000D01*
G75*
G02*
X232775000Y-113455000I0J-500000D01*
G01*
X232775000Y-115305000D01*
G75*
G02*
X232275000Y-115805000I-500000J0D01*
G01*
G37*
G36*
G01*
X232275000Y-119765000D02*
X231275000Y-119765000D01*
G75*
G02*
X230775000Y-119265000I0J500000D01*
G01*
X230775000Y-117415000D01*
G75*
G02*
X231275000Y-116915000I500000J0D01*
G01*
X232275000Y-116915000D01*
G75*
G02*
X232775000Y-117415000I0J-500000D01*
G01*
X232775000Y-119265000D01*
G75*
G02*
X232275000Y-119765000I-500000J0D01*
G01*
G37*
G36*
G01*
X232275000Y-123725000D02*
X231275000Y-123725000D01*
G75*
G02*
X230775000Y-123225000I0J500000D01*
G01*
X230775000Y-121375000D01*
G75*
G02*
X231275000Y-120875000I500000J0D01*
G01*
X232275000Y-120875000D01*
G75*
G02*
X232775000Y-121375000I0J-500000D01*
G01*
X232775000Y-123225000D01*
G75*
G02*
X232275000Y-123725000I-500000J0D01*
G01*
G37*
G36*
G01*
X232275000Y-127685000D02*
X231275000Y-127685000D01*
G75*
G02*
X230775000Y-127185000I0J500000D01*
G01*
X230775000Y-125335000D01*
G75*
G02*
X231275000Y-124835000I500000J0D01*
G01*
X232275000Y-124835000D01*
G75*
G02*
X232775000Y-125335000I0J-500000D01*
G01*
X232775000Y-127185000D01*
G75*
G02*
X232275000Y-127685000I-500000J0D01*
G01*
G37*
G36*
G01*
X232275000Y-131645000D02*
X231275000Y-131645000D01*
G75*
G02*
X230775000Y-131145000I0J500000D01*
G01*
X230775000Y-129295000D01*
G75*
G02*
X231275000Y-128795000I500000J0D01*
G01*
X232275000Y-128795000D01*
G75*
G02*
X232775000Y-129295000I0J-500000D01*
G01*
X232775000Y-131145000D01*
G75*
G02*
X232275000Y-131645000I-500000J0D01*
G01*
G37*
G36*
G01*
X232275000Y-135605000D02*
X231275000Y-135605000D01*
G75*
G02*
X230775000Y-135105000I0J500000D01*
G01*
X230775000Y-133255000D01*
G75*
G02*
X231275000Y-132755000I500000J0D01*
G01*
X232275000Y-132755000D01*
G75*
G02*
X232775000Y-133255000I0J-500000D01*
G01*
X232775000Y-135105000D01*
G75*
G02*
X232275000Y-135605000I-500000J0D01*
G01*
G37*
G36*
G01*
X232275000Y-139565000D02*
X231275000Y-139565000D01*
G75*
G02*
X230775000Y-139065000I0J500000D01*
G01*
X230775000Y-137215000D01*
G75*
G02*
X231275000Y-136715000I500000J0D01*
G01*
X232275000Y-136715000D01*
G75*
G02*
X232775000Y-137215000I0J-500000D01*
G01*
X232775000Y-139065000D01*
G75*
G02*
X232275000Y-139565000I-500000J0D01*
G01*
G37*
G36*
G01*
X232275000Y-143525000D02*
X231275000Y-143525000D01*
G75*
G02*
X230775000Y-143025000I0J500000D01*
G01*
X230775000Y-141175000D01*
G75*
G02*
X231275000Y-140675000I500000J0D01*
G01*
X232275000Y-140675000D01*
G75*
G02*
X232775000Y-141175000I0J-500000D01*
G01*
X232775000Y-143025000D01*
G75*
G02*
X232275000Y-143525000I-500000J0D01*
G01*
G37*
G36*
G01*
X232275000Y-147485000D02*
X231275000Y-147485000D01*
G75*
G02*
X230775000Y-146985000I0J500000D01*
G01*
X230775000Y-145135000D01*
G75*
G02*
X231275000Y-144635000I500000J0D01*
G01*
X232275000Y-144635000D01*
G75*
G02*
X232775000Y-145135000I0J-500000D01*
G01*
X232775000Y-146985000D01*
G75*
G02*
X232275000Y-147485000I-500000J0D01*
G01*
G37*
G36*
G01*
X232275000Y-151445000D02*
X231275000Y-151445000D01*
G75*
G02*
X230775000Y-150945000I0J500000D01*
G01*
X230775000Y-149095000D01*
G75*
G02*
X231275000Y-148595000I500000J0D01*
G01*
X232275000Y-148595000D01*
G75*
G02*
X232775000Y-149095000I0J-500000D01*
G01*
X232775000Y-150945000D01*
G75*
G02*
X232275000Y-151445000I-500000J0D01*
G01*
G37*
G36*
G01*
X232275000Y-155405000D02*
X231275000Y-155405000D01*
G75*
G02*
X230775000Y-154905000I0J500000D01*
G01*
X230775000Y-153055000D01*
G75*
G02*
X231275000Y-152555000I500000J0D01*
G01*
X232275000Y-152555000D01*
G75*
G02*
X232775000Y-153055000I0J-500000D01*
G01*
X232775000Y-154905000D01*
G75*
G02*
X232275000Y-155405000I-500000J0D01*
G01*
G37*
G36*
G01*
X232275000Y-159365000D02*
X231275000Y-159365000D01*
G75*
G02*
X230775000Y-158865000I0J500000D01*
G01*
X230775000Y-157015000D01*
G75*
G02*
X231275000Y-156515000I500000J0D01*
G01*
X232275000Y-156515000D01*
G75*
G02*
X232775000Y-157015000I0J-500000D01*
G01*
X232775000Y-158865000D01*
G75*
G02*
X232275000Y-159365000I-500000J0D01*
G01*
G37*
G36*
G01*
X232275000Y-163325000D02*
X231275000Y-163325000D01*
G75*
G02*
X230775000Y-162825000I0J500000D01*
G01*
X230775000Y-160975000D01*
G75*
G02*
X231275000Y-160475000I500000J0D01*
G01*
X232275000Y-160475000D01*
G75*
G02*
X232775000Y-160975000I0J-500000D01*
G01*
X232775000Y-162825000D01*
G75*
G02*
X232275000Y-163325000I-500000J0D01*
G01*
G37*
%TD*%
%TO.C,X5*%
G36*
G01*
X274335000Y-80165000D02*
X273335000Y-80165000D01*
G75*
G02*
X272835000Y-79665000I0J500000D01*
G01*
X272835000Y-77815000D01*
G75*
G02*
X273335000Y-77315000I500000J0D01*
G01*
X274335000Y-77315000D01*
G75*
G02*
X274835000Y-77815000I0J-500000D01*
G01*
X274835000Y-79665000D01*
G75*
G02*
X274335000Y-80165000I-500000J0D01*
G01*
G37*
G36*
G01*
X274335000Y-84125000D02*
X273335000Y-84125000D01*
G75*
G02*
X272835000Y-83625000I0J500000D01*
G01*
X272835000Y-81775000D01*
G75*
G02*
X273335000Y-81275000I500000J0D01*
G01*
X274335000Y-81275000D01*
G75*
G02*
X274835000Y-81775000I0J-500000D01*
G01*
X274835000Y-83625000D01*
G75*
G02*
X274335000Y-84125000I-500000J0D01*
G01*
G37*
G36*
G01*
X274335000Y-88085000D02*
X273335000Y-88085000D01*
G75*
G02*
X272835000Y-87585000I0J500000D01*
G01*
X272835000Y-85735000D01*
G75*
G02*
X273335000Y-85235000I500000J0D01*
G01*
X274335000Y-85235000D01*
G75*
G02*
X274835000Y-85735000I0J-500000D01*
G01*
X274835000Y-87585000D01*
G75*
G02*
X274335000Y-88085000I-500000J0D01*
G01*
G37*
G36*
G01*
X274335000Y-92045000D02*
X273335000Y-92045000D01*
G75*
G02*
X272835000Y-91545000I0J500000D01*
G01*
X272835000Y-89695000D01*
G75*
G02*
X273335000Y-89195000I500000J0D01*
G01*
X274335000Y-89195000D01*
G75*
G02*
X274835000Y-89695000I0J-500000D01*
G01*
X274835000Y-91545000D01*
G75*
G02*
X274335000Y-92045000I-500000J0D01*
G01*
G37*
G36*
G01*
X274335000Y-96005000D02*
X273335000Y-96005000D01*
G75*
G02*
X272835000Y-95505000I0J500000D01*
G01*
X272835000Y-93655000D01*
G75*
G02*
X273335000Y-93155000I500000J0D01*
G01*
X274335000Y-93155000D01*
G75*
G02*
X274835000Y-93655000I0J-500000D01*
G01*
X274835000Y-95505000D01*
G75*
G02*
X274335000Y-96005000I-500000J0D01*
G01*
G37*
G36*
G01*
X274335000Y-99965000D02*
X273335000Y-99965000D01*
G75*
G02*
X272835000Y-99465000I0J500000D01*
G01*
X272835000Y-97615000D01*
G75*
G02*
X273335000Y-97115000I500000J0D01*
G01*
X274335000Y-97115000D01*
G75*
G02*
X274835000Y-97615000I0J-500000D01*
G01*
X274835000Y-99465000D01*
G75*
G02*
X274335000Y-99965000I-500000J0D01*
G01*
G37*
G36*
G01*
X274335000Y-103925000D02*
X273335000Y-103925000D01*
G75*
G02*
X272835000Y-103425000I0J500000D01*
G01*
X272835000Y-101575000D01*
G75*
G02*
X273335000Y-101075000I500000J0D01*
G01*
X274335000Y-101075000D01*
G75*
G02*
X274835000Y-101575000I0J-500000D01*
G01*
X274835000Y-103425000D01*
G75*
G02*
X274335000Y-103925000I-500000J0D01*
G01*
G37*
G36*
G01*
X274335000Y-107885000D02*
X273335000Y-107885000D01*
G75*
G02*
X272835000Y-107385000I0J500000D01*
G01*
X272835000Y-105535000D01*
G75*
G02*
X273335000Y-105035000I500000J0D01*
G01*
X274335000Y-105035000D01*
G75*
G02*
X274835000Y-105535000I0J-500000D01*
G01*
X274835000Y-107385000D01*
G75*
G02*
X274335000Y-107885000I-500000J0D01*
G01*
G37*
G36*
G01*
X274335000Y-111845000D02*
X273335000Y-111845000D01*
G75*
G02*
X272835000Y-111345000I0J500000D01*
G01*
X272835000Y-109495000D01*
G75*
G02*
X273335000Y-108995000I500000J0D01*
G01*
X274335000Y-108995000D01*
G75*
G02*
X274835000Y-109495000I0J-500000D01*
G01*
X274835000Y-111345000D01*
G75*
G02*
X274335000Y-111845000I-500000J0D01*
G01*
G37*
G36*
G01*
X274335000Y-115805000D02*
X273335000Y-115805000D01*
G75*
G02*
X272835000Y-115305000I0J500000D01*
G01*
X272835000Y-113455000D01*
G75*
G02*
X273335000Y-112955000I500000J0D01*
G01*
X274335000Y-112955000D01*
G75*
G02*
X274835000Y-113455000I0J-500000D01*
G01*
X274835000Y-115305000D01*
G75*
G02*
X274335000Y-115805000I-500000J0D01*
G01*
G37*
G36*
G01*
X274335000Y-119765000D02*
X273335000Y-119765000D01*
G75*
G02*
X272835000Y-119265000I0J500000D01*
G01*
X272835000Y-117415000D01*
G75*
G02*
X273335000Y-116915000I500000J0D01*
G01*
X274335000Y-116915000D01*
G75*
G02*
X274835000Y-117415000I0J-500000D01*
G01*
X274835000Y-119265000D01*
G75*
G02*
X274335000Y-119765000I-500000J0D01*
G01*
G37*
G36*
G01*
X274335000Y-123725000D02*
X273335000Y-123725000D01*
G75*
G02*
X272835000Y-123225000I0J500000D01*
G01*
X272835000Y-121375000D01*
G75*
G02*
X273335000Y-120875000I500000J0D01*
G01*
X274335000Y-120875000D01*
G75*
G02*
X274835000Y-121375000I0J-500000D01*
G01*
X274835000Y-123225000D01*
G75*
G02*
X274335000Y-123725000I-500000J0D01*
G01*
G37*
G36*
G01*
X274335000Y-127685000D02*
X273335000Y-127685000D01*
G75*
G02*
X272835000Y-127185000I0J500000D01*
G01*
X272835000Y-125335000D01*
G75*
G02*
X273335000Y-124835000I500000J0D01*
G01*
X274335000Y-124835000D01*
G75*
G02*
X274835000Y-125335000I0J-500000D01*
G01*
X274835000Y-127185000D01*
G75*
G02*
X274335000Y-127685000I-500000J0D01*
G01*
G37*
G36*
G01*
X274335000Y-131645000D02*
X273335000Y-131645000D01*
G75*
G02*
X272835000Y-131145000I0J500000D01*
G01*
X272835000Y-129295000D01*
G75*
G02*
X273335000Y-128795000I500000J0D01*
G01*
X274335000Y-128795000D01*
G75*
G02*
X274835000Y-129295000I0J-500000D01*
G01*
X274835000Y-131145000D01*
G75*
G02*
X274335000Y-131645000I-500000J0D01*
G01*
G37*
G36*
G01*
X274335000Y-135605000D02*
X273335000Y-135605000D01*
G75*
G02*
X272835000Y-135105000I0J500000D01*
G01*
X272835000Y-133255000D01*
G75*
G02*
X273335000Y-132755000I500000J0D01*
G01*
X274335000Y-132755000D01*
G75*
G02*
X274835000Y-133255000I0J-500000D01*
G01*
X274835000Y-135105000D01*
G75*
G02*
X274335000Y-135605000I-500000J0D01*
G01*
G37*
G36*
G01*
X274335000Y-139565000D02*
X273335000Y-139565000D01*
G75*
G02*
X272835000Y-139065000I0J500000D01*
G01*
X272835000Y-137215000D01*
G75*
G02*
X273335000Y-136715000I500000J0D01*
G01*
X274335000Y-136715000D01*
G75*
G02*
X274835000Y-137215000I0J-500000D01*
G01*
X274835000Y-139065000D01*
G75*
G02*
X274335000Y-139565000I-500000J0D01*
G01*
G37*
G36*
G01*
X274335000Y-143525000D02*
X273335000Y-143525000D01*
G75*
G02*
X272835000Y-143025000I0J500000D01*
G01*
X272835000Y-141175000D01*
G75*
G02*
X273335000Y-140675000I500000J0D01*
G01*
X274335000Y-140675000D01*
G75*
G02*
X274835000Y-141175000I0J-500000D01*
G01*
X274835000Y-143025000D01*
G75*
G02*
X274335000Y-143525000I-500000J0D01*
G01*
G37*
G36*
G01*
X274335000Y-147485000D02*
X273335000Y-147485000D01*
G75*
G02*
X272835000Y-146985000I0J500000D01*
G01*
X272835000Y-145135000D01*
G75*
G02*
X273335000Y-144635000I500000J0D01*
G01*
X274335000Y-144635000D01*
G75*
G02*
X274835000Y-145135000I0J-500000D01*
G01*
X274835000Y-146985000D01*
G75*
G02*
X274335000Y-147485000I-500000J0D01*
G01*
G37*
G36*
G01*
X274335000Y-151445000D02*
X273335000Y-151445000D01*
G75*
G02*
X272835000Y-150945000I0J500000D01*
G01*
X272835000Y-149095000D01*
G75*
G02*
X273335000Y-148595000I500000J0D01*
G01*
X274335000Y-148595000D01*
G75*
G02*
X274835000Y-149095000I0J-500000D01*
G01*
X274835000Y-150945000D01*
G75*
G02*
X274335000Y-151445000I-500000J0D01*
G01*
G37*
G36*
G01*
X274335000Y-155405000D02*
X273335000Y-155405000D01*
G75*
G02*
X272835000Y-154905000I0J500000D01*
G01*
X272835000Y-153055000D01*
G75*
G02*
X273335000Y-152555000I500000J0D01*
G01*
X274335000Y-152555000D01*
G75*
G02*
X274835000Y-153055000I0J-500000D01*
G01*
X274835000Y-154905000D01*
G75*
G02*
X274335000Y-155405000I-500000J0D01*
G01*
G37*
G36*
G01*
X274335000Y-159365000D02*
X273335000Y-159365000D01*
G75*
G02*
X272835000Y-158865000I0J500000D01*
G01*
X272835000Y-157015000D01*
G75*
G02*
X273335000Y-156515000I500000J0D01*
G01*
X274335000Y-156515000D01*
G75*
G02*
X274835000Y-157015000I0J-500000D01*
G01*
X274835000Y-158865000D01*
G75*
G02*
X274335000Y-159365000I-500000J0D01*
G01*
G37*
G36*
G01*
X274335000Y-163325000D02*
X273335000Y-163325000D01*
G75*
G02*
X272835000Y-162825000I0J500000D01*
G01*
X272835000Y-160975000D01*
G75*
G02*
X273335000Y-160475000I500000J0D01*
G01*
X274335000Y-160475000D01*
G75*
G02*
X274835000Y-160975000I0J-500000D01*
G01*
X274835000Y-162825000D01*
G75*
G02*
X274335000Y-163325000I-500000J0D01*
G01*
G37*
G36*
G01*
X270375000Y-80165000D02*
X269375000Y-80165000D01*
G75*
G02*
X268875000Y-79665000I0J500000D01*
G01*
X268875000Y-77815000D01*
G75*
G02*
X269375000Y-77315000I500000J0D01*
G01*
X270375000Y-77315000D01*
G75*
G02*
X270875000Y-77815000I0J-500000D01*
G01*
X270875000Y-79665000D01*
G75*
G02*
X270375000Y-80165000I-500000J0D01*
G01*
G37*
G36*
G01*
X270375000Y-84125000D02*
X269375000Y-84125000D01*
G75*
G02*
X268875000Y-83625000I0J500000D01*
G01*
X268875000Y-81775000D01*
G75*
G02*
X269375000Y-81275000I500000J0D01*
G01*
X270375000Y-81275000D01*
G75*
G02*
X270875000Y-81775000I0J-500000D01*
G01*
X270875000Y-83625000D01*
G75*
G02*
X270375000Y-84125000I-500000J0D01*
G01*
G37*
G36*
G01*
X270375000Y-88085000D02*
X269375000Y-88085000D01*
G75*
G02*
X268875000Y-87585000I0J500000D01*
G01*
X268875000Y-85735000D01*
G75*
G02*
X269375000Y-85235000I500000J0D01*
G01*
X270375000Y-85235000D01*
G75*
G02*
X270875000Y-85735000I0J-500000D01*
G01*
X270875000Y-87585000D01*
G75*
G02*
X270375000Y-88085000I-500000J0D01*
G01*
G37*
G36*
G01*
X270375000Y-92045000D02*
X269375000Y-92045000D01*
G75*
G02*
X268875000Y-91545000I0J500000D01*
G01*
X268875000Y-89695000D01*
G75*
G02*
X269375000Y-89195000I500000J0D01*
G01*
X270375000Y-89195000D01*
G75*
G02*
X270875000Y-89695000I0J-500000D01*
G01*
X270875000Y-91545000D01*
G75*
G02*
X270375000Y-92045000I-500000J0D01*
G01*
G37*
G36*
G01*
X270375000Y-96005000D02*
X269375000Y-96005000D01*
G75*
G02*
X268875000Y-95505000I0J500000D01*
G01*
X268875000Y-93655000D01*
G75*
G02*
X269375000Y-93155000I500000J0D01*
G01*
X270375000Y-93155000D01*
G75*
G02*
X270875000Y-93655000I0J-500000D01*
G01*
X270875000Y-95505000D01*
G75*
G02*
X270375000Y-96005000I-500000J0D01*
G01*
G37*
G36*
G01*
X270375000Y-99965000D02*
X269375000Y-99965000D01*
G75*
G02*
X268875000Y-99465000I0J500000D01*
G01*
X268875000Y-97615000D01*
G75*
G02*
X269375000Y-97115000I500000J0D01*
G01*
X270375000Y-97115000D01*
G75*
G02*
X270875000Y-97615000I0J-500000D01*
G01*
X270875000Y-99465000D01*
G75*
G02*
X270375000Y-99965000I-500000J0D01*
G01*
G37*
G36*
G01*
X270375000Y-103925000D02*
X269375000Y-103925000D01*
G75*
G02*
X268875000Y-103425000I0J500000D01*
G01*
X268875000Y-101575000D01*
G75*
G02*
X269375000Y-101075000I500000J0D01*
G01*
X270375000Y-101075000D01*
G75*
G02*
X270875000Y-101575000I0J-500000D01*
G01*
X270875000Y-103425000D01*
G75*
G02*
X270375000Y-103925000I-500000J0D01*
G01*
G37*
G36*
G01*
X270375000Y-107885000D02*
X269375000Y-107885000D01*
G75*
G02*
X268875000Y-107385000I0J500000D01*
G01*
X268875000Y-105535000D01*
G75*
G02*
X269375000Y-105035000I500000J0D01*
G01*
X270375000Y-105035000D01*
G75*
G02*
X270875000Y-105535000I0J-500000D01*
G01*
X270875000Y-107385000D01*
G75*
G02*
X270375000Y-107885000I-500000J0D01*
G01*
G37*
G36*
G01*
X270375000Y-111845000D02*
X269375000Y-111845000D01*
G75*
G02*
X268875000Y-111345000I0J500000D01*
G01*
X268875000Y-109495000D01*
G75*
G02*
X269375000Y-108995000I500000J0D01*
G01*
X270375000Y-108995000D01*
G75*
G02*
X270875000Y-109495000I0J-500000D01*
G01*
X270875000Y-111345000D01*
G75*
G02*
X270375000Y-111845000I-500000J0D01*
G01*
G37*
G36*
G01*
X270375000Y-115805000D02*
X269375000Y-115805000D01*
G75*
G02*
X268875000Y-115305000I0J500000D01*
G01*
X268875000Y-113455000D01*
G75*
G02*
X269375000Y-112955000I500000J0D01*
G01*
X270375000Y-112955000D01*
G75*
G02*
X270875000Y-113455000I0J-500000D01*
G01*
X270875000Y-115305000D01*
G75*
G02*
X270375000Y-115805000I-500000J0D01*
G01*
G37*
G36*
G01*
X270375000Y-119765000D02*
X269375000Y-119765000D01*
G75*
G02*
X268875000Y-119265000I0J500000D01*
G01*
X268875000Y-117415000D01*
G75*
G02*
X269375000Y-116915000I500000J0D01*
G01*
X270375000Y-116915000D01*
G75*
G02*
X270875000Y-117415000I0J-500000D01*
G01*
X270875000Y-119265000D01*
G75*
G02*
X270375000Y-119765000I-500000J0D01*
G01*
G37*
G36*
G01*
X270375000Y-123725000D02*
X269375000Y-123725000D01*
G75*
G02*
X268875000Y-123225000I0J500000D01*
G01*
X268875000Y-121375000D01*
G75*
G02*
X269375000Y-120875000I500000J0D01*
G01*
X270375000Y-120875000D01*
G75*
G02*
X270875000Y-121375000I0J-500000D01*
G01*
X270875000Y-123225000D01*
G75*
G02*
X270375000Y-123725000I-500000J0D01*
G01*
G37*
G36*
G01*
X270375000Y-127685000D02*
X269375000Y-127685000D01*
G75*
G02*
X268875000Y-127185000I0J500000D01*
G01*
X268875000Y-125335000D01*
G75*
G02*
X269375000Y-124835000I500000J0D01*
G01*
X270375000Y-124835000D01*
G75*
G02*
X270875000Y-125335000I0J-500000D01*
G01*
X270875000Y-127185000D01*
G75*
G02*
X270375000Y-127685000I-500000J0D01*
G01*
G37*
G36*
G01*
X270375000Y-131645000D02*
X269375000Y-131645000D01*
G75*
G02*
X268875000Y-131145000I0J500000D01*
G01*
X268875000Y-129295000D01*
G75*
G02*
X269375000Y-128795000I500000J0D01*
G01*
X270375000Y-128795000D01*
G75*
G02*
X270875000Y-129295000I0J-500000D01*
G01*
X270875000Y-131145000D01*
G75*
G02*
X270375000Y-131645000I-500000J0D01*
G01*
G37*
G36*
G01*
X270375000Y-135605000D02*
X269375000Y-135605000D01*
G75*
G02*
X268875000Y-135105000I0J500000D01*
G01*
X268875000Y-133255000D01*
G75*
G02*
X269375000Y-132755000I500000J0D01*
G01*
X270375000Y-132755000D01*
G75*
G02*
X270875000Y-133255000I0J-500000D01*
G01*
X270875000Y-135105000D01*
G75*
G02*
X270375000Y-135605000I-500000J0D01*
G01*
G37*
G36*
G01*
X270375000Y-139565000D02*
X269375000Y-139565000D01*
G75*
G02*
X268875000Y-139065000I0J500000D01*
G01*
X268875000Y-137215000D01*
G75*
G02*
X269375000Y-136715000I500000J0D01*
G01*
X270375000Y-136715000D01*
G75*
G02*
X270875000Y-137215000I0J-500000D01*
G01*
X270875000Y-139065000D01*
G75*
G02*
X270375000Y-139565000I-500000J0D01*
G01*
G37*
G36*
G01*
X270375000Y-143525000D02*
X269375000Y-143525000D01*
G75*
G02*
X268875000Y-143025000I0J500000D01*
G01*
X268875000Y-141175000D01*
G75*
G02*
X269375000Y-140675000I500000J0D01*
G01*
X270375000Y-140675000D01*
G75*
G02*
X270875000Y-141175000I0J-500000D01*
G01*
X270875000Y-143025000D01*
G75*
G02*
X270375000Y-143525000I-500000J0D01*
G01*
G37*
G36*
G01*
X270375000Y-147485000D02*
X269375000Y-147485000D01*
G75*
G02*
X268875000Y-146985000I0J500000D01*
G01*
X268875000Y-145135000D01*
G75*
G02*
X269375000Y-144635000I500000J0D01*
G01*
X270375000Y-144635000D01*
G75*
G02*
X270875000Y-145135000I0J-500000D01*
G01*
X270875000Y-146985000D01*
G75*
G02*
X270375000Y-147485000I-500000J0D01*
G01*
G37*
G36*
G01*
X270375000Y-151445000D02*
X269375000Y-151445000D01*
G75*
G02*
X268875000Y-150945000I0J500000D01*
G01*
X268875000Y-149095000D01*
G75*
G02*
X269375000Y-148595000I500000J0D01*
G01*
X270375000Y-148595000D01*
G75*
G02*
X270875000Y-149095000I0J-500000D01*
G01*
X270875000Y-150945000D01*
G75*
G02*
X270375000Y-151445000I-500000J0D01*
G01*
G37*
G36*
G01*
X270375000Y-155405000D02*
X269375000Y-155405000D01*
G75*
G02*
X268875000Y-154905000I0J500000D01*
G01*
X268875000Y-153055000D01*
G75*
G02*
X269375000Y-152555000I500000J0D01*
G01*
X270375000Y-152555000D01*
G75*
G02*
X270875000Y-153055000I0J-500000D01*
G01*
X270875000Y-154905000D01*
G75*
G02*
X270375000Y-155405000I-500000J0D01*
G01*
G37*
G36*
G01*
X270375000Y-159365000D02*
X269375000Y-159365000D01*
G75*
G02*
X268875000Y-158865000I0J500000D01*
G01*
X268875000Y-157015000D01*
G75*
G02*
X269375000Y-156515000I500000J0D01*
G01*
X270375000Y-156515000D01*
G75*
G02*
X270875000Y-157015000I0J-500000D01*
G01*
X270875000Y-158865000D01*
G75*
G02*
X270375000Y-159365000I-500000J0D01*
G01*
G37*
G36*
G01*
X270375000Y-163325000D02*
X269375000Y-163325000D01*
G75*
G02*
X268875000Y-162825000I0J500000D01*
G01*
X268875000Y-160975000D01*
G75*
G02*
X269375000Y-160475000I500000J0D01*
G01*
X270375000Y-160475000D01*
G75*
G02*
X270875000Y-160975000I0J-500000D01*
G01*
X270875000Y-162825000D01*
G75*
G02*
X270375000Y-163325000I-500000J0D01*
G01*
G37*
%TD*%
D11*
%TO.C,X1*%
X69885000Y-74340000D03*
X69885000Y-78300000D03*
X69885000Y-109980000D03*
X69885000Y-82260000D03*
X69885000Y-86220000D03*
X69885000Y-113940000D03*
X69885000Y-125820000D03*
X69885000Y-94140000D03*
X69885000Y-106020000D03*
X69885000Y-117900000D03*
X69885000Y-133740000D03*
X69885000Y-121860000D03*
X69885000Y-90180000D03*
X69885000Y-98100000D03*
X69885000Y-102060000D03*
X69885000Y-129780000D03*
X69885000Y-137700000D03*
X69885000Y-141660000D03*
X69885000Y-145620000D03*
X69885000Y-149580000D03*
%TD*%
D12*
%TO.C,D1*%
X196215000Y-202565000D03*
D13*
X180975000Y-202565000D03*
%TD*%
D14*
%TO.C,F1*%
X170815000Y-190754000D03*
X170815000Y-185554000D03*
X170815000Y-175454000D03*
X170815000Y-170254000D03*
%TD*%
D15*
%TO.C,J1*%
X252450000Y-218646000D03*
D16*
X247650000Y-221446000D03*
D17*
X247650000Y-215646000D03*
%TD*%
D18*
%TO.C,RN1*%
X94615000Y-153670000D03*
D19*
X94615000Y-151130000D03*
X94615000Y-148590000D03*
X94615000Y-146050000D03*
X94615000Y-143510000D03*
X94615000Y-140970000D03*
X94615000Y-138430000D03*
X94615000Y-135890000D03*
X94615000Y-133350000D03*
X94615000Y-130810000D03*
%TD*%
%TO.C,RN2*%
X132715000Y-109855000D03*
X132715000Y-112395000D03*
X132715000Y-114935000D03*
X132715000Y-117475000D03*
X132715000Y-120015000D03*
X132715000Y-122555000D03*
X132715000Y-125095000D03*
D18*
X132715000Y-127635000D03*
%TD*%
%TO.C,RN3*%
X170815000Y-127635000D03*
D19*
X170815000Y-125095000D03*
X170815000Y-122555000D03*
X170815000Y-120015000D03*
X170815000Y-117475000D03*
X170815000Y-114935000D03*
X170815000Y-112395000D03*
X170815000Y-109855000D03*
%TD*%
%TO.C,RN4*%
X208915000Y-109855000D03*
X208915000Y-112395000D03*
X208915000Y-114935000D03*
X208915000Y-117475000D03*
X208915000Y-120015000D03*
X208915000Y-122555000D03*
X208915000Y-125095000D03*
D18*
X208915000Y-127635000D03*
%TD*%
%TO.C,RN5*%
X247015000Y-127635000D03*
D19*
X247015000Y-125095000D03*
X247015000Y-122555000D03*
X247015000Y-120015000D03*
X247015000Y-117475000D03*
X247015000Y-114935000D03*
X247015000Y-112395000D03*
X247015000Y-109855000D03*
%TD*%
D20*
%TO.C,SW2*%
X155575000Y-196215000D03*
D21*
X153035000Y-196215000D03*
%TD*%
%TO.C,SW3*%
X189865000Y-196215000D03*
D20*
X192405000Y-196215000D03*
%TD*%
%TO.C,SW4*%
X230505000Y-196215000D03*
D21*
X227965000Y-196215000D03*
%TD*%
%TO.C,SW5*%
X266065000Y-196215000D03*
D20*
X268605000Y-196215000D03*
%TD*%
D22*
%TO.C,U7*%
X174180500Y-210185000D03*
D23*
X172480500Y-210185000D03*
X170780500Y-210185000D03*
X169080500Y-210185000D03*
X167380500Y-210185000D03*
%TD*%
D24*
%TO.C,C1*%
X208280000Y-206375000D03*
D25*
X208280000Y-201375000D03*
%TD*%
D20*
%TO.C,J2*%
X95377000Y-69596000D03*
D21*
X92837000Y-69596000D03*
%TD*%
%TO.C,SW1*%
G36*
G01*
X212400000Y-214100000D02*
X212400000Y-217700000D01*
G75*
G02*
X212150000Y-217950000I-250000J0D01*
G01*
X209490000Y-217950000D01*
G75*
G02*
X209240000Y-217700000I0J250000D01*
G01*
X209240000Y-214100000D01*
G75*
G02*
X209490000Y-213850000I250000J0D01*
G01*
X212150000Y-213850000D01*
G75*
G02*
X212400000Y-214100000I0J-250000D01*
G01*
G37*
D26*
X206860000Y-215900000D03*
%TD*%
D27*
%TO.C,H1*%
X138430000Y-218440000D03*
D28*
X140830000Y-218440000D03*
X140127056Y-220137056D03*
X138430000Y-220840000D03*
X136732944Y-220137056D03*
X136030000Y-218440000D03*
X136732944Y-216742944D03*
X138430000Y-216040000D03*
X140127056Y-216742944D03*
%TD*%
D27*
%TO.C,H2*%
X279400000Y-218440000D03*
D28*
X281800000Y-218440000D03*
X281097056Y-220137056D03*
X279400000Y-220840000D03*
X277702944Y-220137056D03*
X277000000Y-218440000D03*
X277702944Y-216742944D03*
X279400000Y-216040000D03*
X281097056Y-216742944D03*
%TD*%
D27*
%TO.C,H3*%
X109728000Y-158877000D03*
D28*
X112128000Y-158877000D03*
X111425056Y-160574056D03*
X109728000Y-161277000D03*
X108030944Y-160574056D03*
X107328000Y-158877000D03*
X108030944Y-157179944D03*
X109728000Y-156477000D03*
X111425056Y-157179944D03*
%TD*%
%TO.C,H4*%
X111425056Y-63326944D03*
X109728000Y-62624000D03*
X108030944Y-63326944D03*
X107328000Y-65024000D03*
X108030944Y-66721056D03*
X109728000Y-67424000D03*
X111425056Y-66721056D03*
X112128000Y-65024000D03*
D27*
X109728000Y-65024000D03*
%TD*%
D24*
%TO.C,C12*%
X172339000Y-197311000D03*
D25*
X172339000Y-202311000D03*
%TD*%
D27*
%TO.C,H5*%
X247015000Y-53340000D03*
D28*
X249415000Y-53340000D03*
X248712056Y-55037056D03*
X247015000Y-55740000D03*
X245317944Y-55037056D03*
X244615000Y-53340000D03*
X245317944Y-51642944D03*
X247015000Y-50940000D03*
X248712056Y-51642944D03*
%TD*%
M02*
