M48
; DRILL file {KiCad (5.1.10)-1} date 08/24/22 18:43:56
; FORMAT={-:-/ absolute / inch / decimal}
; #@! TF.CreationDate,2022-08-24T18:43:56-04:00
; #@! TF.GenerationSoftware,Kicad,Pcbnew,(5.1.10)-1
; #@! TF.FileFunction,Plated,1,2,PTH
FMAT,2
INCH
T1C0.0138
T2C0.0157
T3C0.0197
T4C0.0315
T5C0.0394
T6C0.0433
T7C0.0512
T8C0.0630
T9C0.0669
T10C0.0984
T11C0.1260
%
G90
G05
T1
X2.995Y-5.84
X3.04Y-3.96
X3.0671Y-3.5504
X3.125Y-3.0525
X3.125Y-3.2
X3.13Y-5.795
X3.135Y-3.62
X3.17Y-5.345
X3.175Y-2.85
X3.2925Y-3.5825
X3.295Y-5.475
X3.305Y-2.965
X3.3805Y-3.3945
X3.52Y-5.495
X3.545Y-5.6
X3.725Y-3.8925
X3.785Y-3.3125
X3.8175Y-3.3275
X3.8175Y-4.075
X3.8175Y-4.175
X3.8175Y-4.2875
X3.8175Y-4.4
X3.88Y-5.445
X3.89Y-5.625
X3.93Y-5.495
X3.95Y-5.335
X3.99Y-3.115
X4.015Y-4.775
X4.015Y-4.875
X4.015Y-4.975
X4.015Y-5.075
X4.03Y-3.35
X4.04Y-5.41
X4.0587Y-3.3737
X4.065Y-4.14
X4.1075Y-3.175
X4.1075Y-3.2
X4.1075Y-3.25
X4.1075Y-3.3
X4.125Y-3.7675
X4.13Y-3.275
X4.14Y-3.225
X4.145Y-3.175
X4.155Y-3.8
X4.2Y-2.985
X4.2225Y-4.2975
X4.225Y-3.055
X4.2525Y-3.7
X4.2625Y-3.35
X4.265Y-3.225
X4.265Y-3.275
X4.27Y-3.65
X4.285Y-4.2425
X4.29Y-4.46
X4.305Y-4.2
X4.3163Y-4.1013
X4.3325Y-5.37
X4.335Y-3.2
X4.335Y-3.625
X4.335Y-4.175
X4.335Y-5.17
X4.34Y-3.15
X4.34Y-3.25
X4.34Y-3.3
X4.34Y-3.35
X4.3513Y-3.9863
X4.365Y-5.1725
X4.365Y-5.205
X4.365Y-5.2375
X4.3885Y-5.3815
X4.4825Y-3.355
X4.485Y-3.1
X4.5125Y-2.7325
X4.5125Y-2.77
X4.525Y-2.81
X4.525Y-2.85
X4.5525Y-2.88
X4.5825Y-2.9125
X4.685Y-3.315
X4.775Y-4.4775
X4.815Y-3.5975
X4.84Y-3.56
X4.855Y-4.01
X4.855Y-4.5025
X4.89Y-4.7
X4.955Y-3.605
X4.9725Y-4.2325
X4.9775Y-4.1125
X4.9858Y-2.8492
X4.9864Y-2.7311
X4.9875Y-2.81
X4.988Y-2.7705
X4.995Y-3.105
X5.0479Y-4.0354
X5.0487Y-4.1913
X5.0828Y-2.9203
X5.085Y-4.305
X5.105Y-2.945
X5.1275Y-2.875
X5.15Y-2.9125
X5.1725Y-2.8975
X5.195Y-2.9275
X5.2Y-3.26
X5.22Y-3.085
X5.2875Y-2.94
X5.3658Y-2.8492
X5.3686Y-2.7311
X5.37Y-2.81
X5.3705Y-2.7705
X5.43Y-2.92
X5.46Y-5.55
X5.46Y-5.6
X5.46Y-5.65
X5.46Y-5.7
X5.46Y-5.75
X5.46Y-5.8
X5.46Y-5.85
X5.485Y-5.4925
X5.5587Y-5.3788
X5.56Y-5.0725
X5.56Y-5.1525
X5.56Y-5.185
X5.56Y-5.22
X5.56Y-5.26
X5.56Y-5.2975
X5.56Y-5.34
X5.56Y-5.4925
X5.5925Y-5.4925
X5.6275Y-5.4925
X5.725Y-5.415
X5.77Y-5.315
X5.775Y-5.935
X5.83Y-5.055
X5.9Y-5.895
X5.92Y-5.57
X5.935Y-5.105
X5.94Y-3.6225
X5.94Y-4.2675
X5.975Y-4.325
X6.0Y-4.425
X6.01Y-5.86
X6.02Y-4.075
X6.025Y-5.15
X6.03Y-5.715
X6.5225Y-2.901
X6.5448Y-2.8793
X6.5575Y-2.81
X6.5583Y-2.8492
X6.5595Y-2.7705
X6.5614Y-2.7311
X6.6725Y-2.9575
X6.695Y-2.94
X6.7175Y-2.895
X6.73Y-2.9175
X6.735Y-3.1
X6.79Y-2.885
X6.825Y-2.925
X6.8762Y-2.9062
X6.9013Y-2.8788
X6.91Y-4.8
X6.9138Y-2.7262
X6.915Y-4.65
X6.915Y-4.7
X6.915Y-4.75
X6.9558Y-2.8492
X6.956Y-2.8188
X7.0475Y-2.7311
X7.053Y-2.7705
X7.0577Y-2.8098
X7.135Y-4.55
X7.135Y-4.615
X7.34Y-4.3
X7.34Y-4.35
X7.34Y-4.4
X7.34Y-4.45
X7.34Y-4.5
X7.4825Y-4.325
X7.505Y-4.425
X7.525Y-4.075
X8.0437Y-2.9062
X8.06Y-2.88
X8.155Y-6.6875
X8.16Y-2.9525
X8.175Y-2.8575
X8.1963Y-2.7406
X8.1963Y-2.7712
X8.1975Y-2.81
X8.1975Y-2.9525
X8.2475Y-2.93
X8.3225Y-2.9975
X8.345Y-3.0175
X8.3825Y-2.905
X8.42Y-2.91
X8.4337Y-2.8662
X8.4369Y-2.7281
X8.445Y-2.9025
X8.465Y-2.855
X8.52Y-2.9075
X8.5336Y-2.7311
X8.5355Y-2.7705
X8.5377Y-2.8098
X8.5408Y-2.8492
X8.9Y-4.295
X8.905Y-4.35
X8.915Y-4.4
X8.945Y-4.45
X8.945Y-4.5
X8.9925Y-4.325
X9.0225Y-4.425
X9.0325Y-4.0725
X9.65Y-6.685
X9.66Y-2.88
X9.665Y-2.8475
X9.725Y-2.825
X9.73Y-3.1
X9.7575Y-2.75
X9.7623Y-2.7773
X9.7775Y-2.8725
X9.785Y-2.7925
X9.785Y-2.825
X10.21Y-4.295
X10.215Y-4.35
X10.215Y-4.4
X10.215Y-4.45
X10.22Y-4.5
X10.24Y-4.55
X10.505Y-4.305
X11.0175Y-2.5875
X11.0225Y-8.29
T2
X3.0Y-4.4
X3.03Y-4.22
X3.03Y-4.52
X3.04Y-5.2
X3.07Y-4.09
X3.075Y-3.15
X3.16Y-3.78
X3.16Y-5.185
X3.175Y-5.055
X3.18Y-3.665
X3.195Y-3.905
X3.2225Y-2.6325
X3.2225Y-6.1825
X3.435Y-3.585
X3.57Y-5.805
X3.575Y-5.9
X3.595Y-5.695
X3.7575Y-3.025
X4.1025Y-6.12
X4.105Y-5.3675
X4.1413Y-6.1812
X4.19Y-4.6375
X4.22Y-5.115
X4.235Y-5.025
X4.24Y-4.375
X4.24Y-4.93
X4.255Y-5.3625
X4.2837Y-3.4512
X4.34Y-4.385
X4.355Y-5.42
X4.3625Y-3.025
X4.3925Y-3.5075
X4.4363Y-5.4037
X4.45Y-4.6975
X4.45Y-5.225
X4.49Y-3.8275
X4.49Y-3.9475
X4.505Y-3.48
X4.505Y-6.12
X4.5594Y-3.9475
X4.58Y-3.1075
X4.58Y-4.88
X4.58Y-4.985
X4.58Y-5.075
X4.585Y-4.18
X4.585Y-4.275
X4.585Y-4.37
X4.7Y-2.9075
X4.71Y-2.585
X4.715Y-3.38
X4.815Y-5.065
X4.835Y-4.99
X4.8925Y-3.335
X5.0041Y-2.5584
X5.12Y-2.5625
X5.3625Y-6.3325
X5.53Y-3.685
X5.6Y-3.25
X5.675Y-3.45
X5.75Y-3.8
X5.825Y-3.375
X5.85Y-3.525
X5.875Y-8.225
X6.0Y-3.6
X6.295Y-7.75
X6.475Y-3.45
X6.48Y-4.32
X6.495Y-4.44
X6.5Y-3.25
X6.5Y-3.375
X6.5Y-3.525
X6.5Y-3.675
X6.5Y-3.95
X6.525Y-3.6
X6.535Y-5.255
X6.54Y-5.32
X6.54Y-5.395
X6.545Y-5.48
X6.545Y-5.555
X6.545Y-5.71
X6.55Y-3.8
X6.55Y-5.635
X6.55Y-5.8
X6.55Y-5.875
X6.55Y-5.95
X6.55Y-6.025
X6.55Y-6.1
X6.55Y-6.175
X6.725Y-6.48
X6.8Y-2.6475
X7.096Y-6.374
X7.1Y-3.1
X7.135Y-3.1
X7.135Y-6.3725
X7.17Y-3.1
X7.1735Y-6.374
X7.34Y-4.075
X7.345Y-4.16
X7.35Y-4.23
X7.36Y-4.93
X7.365Y-4.86
X7.37Y-4.705
X7.37Y-4.775
X7.44Y-5.11
X7.525Y-5.17
X7.925Y-4.575
X7.925Y-4.75
X7.925Y-4.875
X7.945Y-4.47
X7.95Y-4.375
X8.025Y-5.025
X8.03Y-3.255
X8.04Y-3.53
X8.04Y-3.765
X8.045Y-3.605
X8.045Y-3.68
X8.045Y-3.955
X8.045Y-4.075
X8.045Y-4.155
X8.05Y-4.23
X8.2922Y-2.6478
X8.45Y-5.025
X8.69Y-5.165
X8.69Y-5.475
X8.69Y-6.1
X8.69Y-6.18
X8.695Y-5.245
X8.695Y-5.395
X8.695Y-5.555
X8.695Y-5.71
X8.695Y-5.865
X8.695Y-5.945
X8.695Y-6.02
X8.7Y-5.63
X8.7Y-5.79
X8.705Y-4.81
X8.705Y-5.32
X8.76Y-4.935
X8.88Y-4.775
X8.89Y-4.7
X8.95Y-4.62
X9.015Y-4.54
X9.03Y-5.09
X9.41Y-4.565
X9.445Y-4.34
X9.48Y-3.795
X9.52Y-3.97
X9.52Y-4.155
X9.525Y-4.95
X9.54Y-4.44
X9.5536Y-2.8886
X9.56Y-4.63
X9.565Y-4.075
X9.565Y-4.725
X9.57Y-4.23
X9.7822Y-2.6478
X9.85Y-5.0
X10.225Y-3.375
X10.225Y-3.45
X10.225Y-3.53
X10.23Y-3.265
X10.23Y-3.685
X10.235Y-3.605
X10.35Y-4.7
X10.35Y-4.775
X10.35Y-4.855
X10.35Y-4.93
X10.355Y-4.62
X10.3625Y-4.325
X10.46Y-4.425
X10.46Y-5.475
X10.46Y-5.63
X10.46Y-5.79
X10.46Y-5.865
X10.46Y-6.025
X10.465Y-5.555
X10.465Y-5.71
X10.465Y-5.95
X10.465Y-6.1
X10.465Y-6.175
X10.47Y-5.085
X10.47Y-5.165
X10.47Y-5.32
X10.47Y-5.395
X10.475Y-5.24
X10.5225Y-3.8025
X10.525Y-3.9575
T3
X4.2255Y-2.56
X4.2255Y-6.255
X4.2532Y-2.4932
X4.2532Y-2.6268
X4.2532Y-6.1882
X4.2532Y-6.3218
X4.32Y-2.4655
X4.32Y-2.6545
X4.32Y-6.1605
X4.32Y-6.3495
X4.3868Y-2.4932
X4.3868Y-2.6268
X4.3868Y-6.1882
X4.3868Y-6.3218
X4.4145Y-2.56
X4.4145Y-6.255
X5.3555Y-8.6
X5.3832Y-8.5332
X5.3832Y-8.6668
X5.45Y-8.5055
X5.45Y-8.6945
X5.5168Y-8.5332
X5.5168Y-8.6668
X5.5445Y-8.6
X9.6305Y-2.1
X9.6582Y-2.0332
X9.6582Y-2.1668
X9.725Y-2.0055
X9.725Y-2.1945
X9.7918Y-2.0332
X9.7918Y-2.1668
X9.8195Y-2.1
X10.9055Y-8.6
X10.9332Y-8.5332
X10.9332Y-8.6668
X11.0Y-8.5055
X11.0Y-8.6945
X11.0668Y-8.5332
X11.0668Y-8.6668
X11.0945Y-8.6
T4
X3.725Y-5.15
X3.725Y-5.25
X3.725Y-5.35
X3.725Y-5.45
X3.725Y-5.55
X3.725Y-5.65
X3.725Y-5.75
X3.725Y-5.85
X3.725Y-5.95
X3.725Y-6.05
X5.225Y-4.325
X5.225Y-4.425
X5.225Y-4.525
X5.225Y-4.625
X5.225Y-4.725
X5.225Y-4.825
X5.225Y-4.925
X5.225Y-5.025
X6.725Y-4.325
X6.725Y-4.425
X6.725Y-4.525
X6.725Y-4.625
X6.725Y-4.725
X6.725Y-4.825
X6.725Y-4.925
X6.725Y-5.025
X8.225Y-4.325
X8.225Y-4.425
X8.225Y-4.525
X8.225Y-4.625
X8.225Y-4.725
X8.225Y-4.825
X8.225Y-4.925
X8.225Y-5.025
X9.725Y-4.325
X9.725Y-4.425
X9.725Y-4.525
X9.725Y-4.625
X9.725Y-4.725
X9.725Y-4.825
X9.725Y-4.925
X9.725Y-5.025
T5
X3.655Y-2.74
X3.755Y-2.74
X6.025Y-7.725
X6.125Y-7.725
X6.785Y-7.7681
X6.785Y-7.965
X7.475Y-7.725
X7.575Y-7.725
X8.2Y-7.9281
X8.2Y-8.125
X8.975Y-7.725
X9.075Y-7.725
X10.475Y-7.725
X10.575Y-7.725
T6
X6.5898Y-8.275
X6.6567Y-8.275
X6.7236Y-8.275
X6.7906Y-8.275
X6.8575Y-8.275
T7
X6.725Y-6.7029
X6.725Y-6.9076
X6.725Y-7.3053
X6.725Y-7.51
T8
X7.125Y-7.975
X7.725Y-7.975
T9
X8.1441Y-8.5
X8.3Y-8.5
T10
X8.4Y-3.3
X8.4Y-6.525
T11
X4.32Y-2.56
X4.32Y-6.255
X5.45Y-8.6
X9.725Y-2.1
X11.0Y-8.6
T4
G00X9.6988Y-8.49
M15
G01X9.8012Y-8.49
M16
G05
G00X9.7067Y-8.7183
M15
G01X9.7933Y-8.7183
M16
G05
G00X9.939Y-8.6514
M15
G01X9.939Y-8.5648
M16
G05
T5
G00X6.125Y-3.1236
M15
G01X6.125Y-3.0764
M16
G05
G00X6.125Y-3.2795
M15
G01X6.125Y-3.2323
M16
G05
G00X6.125Y-3.4354
M15
G01X6.125Y-3.3882
M16
G05
G00X6.125Y-3.5913
M15
G01X6.125Y-3.5441
M16
G05
G00X6.125Y-3.7472
M15
G01X6.125Y-3.7
M16
G05
G00X6.125Y-3.9031
M15
G01X6.125Y-3.8559
M16
G05
G00X6.125Y-4.0591
M15
G01X6.125Y-4.0118
M16
G05
G00X6.125Y-4.215
M15
G01X6.125Y-4.1677
M16
G05
G00X6.125Y-4.3709
M15
G01X6.125Y-4.3236
M16
G05
G00X6.125Y-4.5268
M15
G01X6.125Y-4.4795
M16
G05
G00X6.125Y-4.6827
M15
G01X6.125Y-4.6354
M16
G05
G00X6.125Y-4.8386
M15
G01X6.125Y-4.7913
M16
G05
G00X6.125Y-4.9945
M15
G01X6.125Y-4.9472
M16
G05
G00X6.125Y-5.1504
M15
G01X6.125Y-5.1031
M16
G05
G00X6.125Y-5.3063
M15
G01X6.125Y-5.2591
M16
G05
G00X6.125Y-5.4622
M15
G01X6.125Y-5.415
M16
G05
G00X6.125Y-5.6181
M15
G01X6.125Y-5.5709
M16
G05
G00X6.125Y-5.774
M15
G01X6.125Y-5.7268
M16
G05
G00X6.125Y-5.9299
M15
G01X6.125Y-5.8827
M16
G05
G00X6.125Y-6.0858
M15
G01X6.125Y-6.0386
M16
G05
G00X6.125Y-6.2417
M15
G01X6.125Y-6.1945
M16
G05
G00X6.125Y-6.3976
M15
G01X6.125Y-6.3504
M16
G05
G00X6.2809Y-3.1236
M15
G01X6.2809Y-3.0764
M16
G05
G00X6.2809Y-3.2795
M15
G01X6.2809Y-3.2323
M16
G05
G00X6.2809Y-3.4354
M15
G01X6.2809Y-3.3882
M16
G05
G00X6.2809Y-3.5913
M15
G01X6.2809Y-3.5441
M16
G05
G00X6.2809Y-3.7472
M15
G01X6.2809Y-3.7
M16
G05
G00X6.2809Y-3.9031
M15
G01X6.2809Y-3.8559
M16
G05
G00X6.2809Y-4.0591
M15
G01X6.2809Y-4.0118
M16
G05
G00X6.2809Y-4.215
M15
G01X6.2809Y-4.1677
M16
G05
G00X6.2809Y-4.3709
M15
G01X6.2809Y-4.3236
M16
G05
G00X6.2809Y-4.5268
M15
G01X6.2809Y-4.4795
M16
G05
G00X6.2809Y-4.6827
M15
G01X6.2809Y-4.6354
M16
G05
G00X6.2809Y-4.8386
M15
G01X6.2809Y-4.7913
M16
G05
G00X6.2809Y-4.9945
M15
G01X6.2809Y-4.9472
M16
G05
G00X6.2809Y-5.1504
M15
G01X6.2809Y-5.1031
M16
G05
G00X6.2809Y-5.3063
M15
G01X6.2809Y-5.2591
M16
G05
G00X6.2809Y-5.4622
M15
G01X6.2809Y-5.415
M16
G05
G00X6.2809Y-5.6181
M15
G01X6.2809Y-5.5709
M16
G05
G00X6.2809Y-5.774
M15
G01X6.2809Y-5.7268
M16
G05
G00X6.2809Y-5.9299
M15
G01X6.2809Y-5.8827
M16
G05
G00X6.2809Y-6.0858
M15
G01X6.2809Y-6.0386
M16
G05
G00X6.2809Y-6.2417
M15
G01X6.2809Y-6.1945
M16
G05
G00X6.2809Y-6.3976
M15
G01X6.2809Y-6.3504
M16
G05
G00X7.625Y-3.1236
M15
G01X7.625Y-3.0764
M16
G05
G00X7.625Y-3.2795
M15
G01X7.625Y-3.2323
M16
G05
G00X7.625Y-3.4354
M15
G01X7.625Y-3.3882
M16
G05
G00X7.625Y-3.5913
M15
G01X7.625Y-3.5441
M16
G05
G00X7.625Y-3.7472
M15
G01X7.625Y-3.7
M16
G05
G00X7.625Y-3.9031
M15
G01X7.625Y-3.8559
M16
G05
G00X7.625Y-4.0591
M15
G01X7.625Y-4.0118
M16
G05
G00X7.625Y-4.215
M15
G01X7.625Y-4.1677
M16
G05
G00X7.625Y-4.3709
M15
G01X7.625Y-4.3236
M16
G05
G00X7.625Y-4.5268
M15
G01X7.625Y-4.4795
M16
G05
G00X7.625Y-4.6827
M15
G01X7.625Y-4.6354
M16
G05
G00X7.625Y-4.8386
M15
G01X7.625Y-4.7913
M16
G05
G00X7.625Y-4.9945
M15
G01X7.625Y-4.9472
M16
G05
G00X7.625Y-5.1504
M15
G01X7.625Y-5.1031
M16
G05
G00X7.625Y-5.3063
M15
G01X7.625Y-5.2591
M16
G05
G00X7.625Y-5.4622
M15
G01X7.625Y-5.415
M16
G05
G00X7.625Y-5.6181
M15
G01X7.625Y-5.5709
M16
G05
G00X7.625Y-5.774
M15
G01X7.625Y-5.7268
M16
G05
G00X7.625Y-5.9299
M15
G01X7.625Y-5.8827
M16
G05
G00X7.625Y-6.0858
M15
G01X7.625Y-6.0386
M16
G05
G00X7.625Y-6.2417
M15
G01X7.625Y-6.1945
M16
G05
G00X7.625Y-6.3976
M15
G01X7.625Y-6.3504
M16
G05
G00X7.7809Y-3.1236
M15
G01X7.7809Y-3.0764
M16
G05
G00X7.7809Y-3.2795
M15
G01X7.7809Y-3.2323
M16
G05
G00X7.7809Y-3.4354
M15
G01X7.7809Y-3.3882
M16
G05
G00X7.7809Y-3.5913
M15
G01X7.7809Y-3.5441
M16
G05
G00X7.7809Y-3.7472
M15
G01X7.7809Y-3.7
M16
G05
G00X7.7809Y-3.9031
M15
G01X7.7809Y-3.8559
M16
G05
G00X7.7809Y-4.0591
M15
G01X7.7809Y-4.0118
M16
G05
G00X7.7809Y-4.215
M15
G01X7.7809Y-4.1677
M16
G05
G00X7.7809Y-4.3709
M15
G01X7.7809Y-4.3236
M16
G05
G00X7.7809Y-4.5268
M15
G01X7.7809Y-4.4795
M16
G05
G00X7.7809Y-4.6827
M15
G01X7.7809Y-4.6354
M16
G05
G00X7.7809Y-4.8386
M15
G01X7.7809Y-4.7913
M16
G05
G00X7.7809Y-4.9945
M15
G01X7.7809Y-4.9472
M16
G05
G00X7.7809Y-5.1504
M15
G01X7.7809Y-5.1031
M16
G05
G00X7.7809Y-5.3063
M15
G01X7.7809Y-5.2591
M16
G05
G00X7.7809Y-5.4622
M15
G01X7.7809Y-5.415
M16
G05
G00X7.7809Y-5.6181
M15
G01X7.7809Y-5.5709
M16
G05
G00X7.7809Y-5.774
M15
G01X7.7809Y-5.7268
M16
G05
G00X7.7809Y-5.9299
M15
G01X7.7809Y-5.8827
M16
G05
G00X7.7809Y-6.0858
M15
G01X7.7809Y-6.0386
M16
G05
G00X7.7809Y-6.2417
M15
G01X7.7809Y-6.1945
M16
G05
G00X7.7809Y-6.3976
M15
G01X7.7809Y-6.3504
M16
G05
G00X9.125Y-3.1236
M15
G01X9.125Y-3.0764
M16
G05
G00X9.125Y-3.2795
M15
G01X9.125Y-3.2323
M16
G05
G00X9.125Y-3.4354
M15
G01X9.125Y-3.3882
M16
G05
G00X9.125Y-3.5913
M15
G01X9.125Y-3.5441
M16
G05
G00X9.125Y-3.7472
M15
G01X9.125Y-3.7
M16
G05
G00X9.125Y-3.9031
M15
G01X9.125Y-3.8559
M16
G05
G00X9.125Y-4.0591
M15
G01X9.125Y-4.0118
M16
G05
G00X9.125Y-4.215
M15
G01X9.125Y-4.1677
M16
G05
G00X9.125Y-4.3709
M15
G01X9.125Y-4.3236
M16
G05
G00X9.125Y-4.5268
M15
G01X9.125Y-4.4795
M16
G05
G00X9.125Y-4.6827
M15
G01X9.125Y-4.6354
M16
G05
G00X9.125Y-4.8386
M15
G01X9.125Y-4.7913
M16
G05
G00X9.125Y-4.9945
M15
G01X9.125Y-4.9472
M16
G05
G00X9.125Y-5.1504
M15
G01X9.125Y-5.1031
M16
G05
G00X9.125Y-5.3063
M15
G01X9.125Y-5.2591
M16
G05
G00X9.125Y-5.4622
M15
G01X9.125Y-5.415
M16
G05
G00X9.125Y-5.6181
M15
G01X9.125Y-5.5709
M16
G05
G00X9.125Y-5.774
M15
G01X9.125Y-5.7268
M16
G05
G00X9.125Y-5.9299
M15
G01X9.125Y-5.8827
M16
G05
G00X9.125Y-6.0858
M15
G01X9.125Y-6.0386
M16
G05
G00X9.125Y-6.2417
M15
G01X9.125Y-6.1945
M16
G05
G00X9.125Y-6.3976
M15
G01X9.125Y-6.3504
M16
G05
G00X9.2809Y-3.1236
M15
G01X9.2809Y-3.0764
M16
G05
G00X9.2809Y-3.2795
M15
G01X9.2809Y-3.2323
M16
G05
G00X9.2809Y-3.4354
M15
G01X9.2809Y-3.3882
M16
G05
G00X9.2809Y-3.5913
M15
G01X9.2809Y-3.5441
M16
G05
G00X9.2809Y-3.7472
M15
G01X9.2809Y-3.7
M16
G05
G00X9.2809Y-3.9031
M15
G01X9.2809Y-3.8559
M16
G05
G00X9.2809Y-4.0591
M15
G01X9.2809Y-4.0118
M16
G05
G00X9.2809Y-4.215
M15
G01X9.2809Y-4.1677
M16
G05
G00X9.2809Y-4.3709
M15
G01X9.2809Y-4.3236
M16
G05
G00X9.2809Y-4.5268
M15
G01X9.2809Y-4.4795
M16
G05
G00X9.2809Y-4.6827
M15
G01X9.2809Y-4.6354
M16
G05
G00X9.2809Y-4.8386
M15
G01X9.2809Y-4.7913
M16
G05
G00X9.2809Y-4.9945
M15
G01X9.2809Y-4.9472
M16
G05
G00X9.2809Y-5.1504
M15
G01X9.2809Y-5.1031
M16
G05
G00X9.2809Y-5.3063
M15
G01X9.2809Y-5.2591
M16
G05
G00X9.2809Y-5.4622
M15
G01X9.2809Y-5.415
M16
G05
G00X9.2809Y-5.6181
M15
G01X9.2809Y-5.5709
M16
G05
G00X9.2809Y-5.774
M15
G01X9.2809Y-5.7268
M16
G05
G00X9.2809Y-5.9299
M15
G01X9.2809Y-5.8827
M16
G05
G00X9.2809Y-6.0858
M15
G01X9.2809Y-6.0386
M16
G05
G00X9.2809Y-6.2417
M15
G01X9.2809Y-6.1945
M16
G05
G00X9.2809Y-6.3976
M15
G01X9.2809Y-6.3504
M16
G05
G00X10.625Y-3.1236
M15
G01X10.625Y-3.0764
M16
G05
G00X10.625Y-3.2795
M15
G01X10.625Y-3.2323
M16
G05
G00X10.625Y-3.4354
M15
G01X10.625Y-3.3882
M16
G05
G00X10.625Y-3.5913
M15
G01X10.625Y-3.5441
M16
G05
G00X10.625Y-3.7472
M15
G01X10.625Y-3.7
M16
G05
G00X10.625Y-3.9031
M15
G01X10.625Y-3.8559
M16
G05
G00X10.625Y-4.0591
M15
G01X10.625Y-4.0118
M16
G05
G00X10.625Y-4.215
M15
G01X10.625Y-4.1677
M16
G05
G00X10.625Y-4.3709
M15
G01X10.625Y-4.3236
M16
G05
G00X10.625Y-4.5268
M15
G01X10.625Y-4.4795
M16
G05
G00X10.625Y-4.6827
M15
G01X10.625Y-4.6354
M16
G05
G00X10.625Y-4.8386
M15
G01X10.625Y-4.7913
M16
G05
G00X10.625Y-4.9945
M15
G01X10.625Y-4.9472
M16
G05
G00X10.625Y-5.1504
M15
G01X10.625Y-5.1031
M16
G05
G00X10.625Y-5.3063
M15
G01X10.625Y-5.2591
M16
G05
G00X10.625Y-5.4622
M15
G01X10.625Y-5.415
M16
G05
G00X10.625Y-5.6181
M15
G01X10.625Y-5.5709
M16
G05
G00X10.625Y-5.774
M15
G01X10.625Y-5.7268
M16
G05
G00X10.625Y-5.9299
M15
G01X10.625Y-5.8827
M16
G05
G00X10.625Y-6.0858
M15
G01X10.625Y-6.0386
M16
G05
G00X10.625Y-6.2417
M15
G01X10.625Y-6.1945
M16
G05
G00X10.625Y-6.3976
M15
G01X10.625Y-6.3504
M16
G05
G00X10.7809Y-3.1236
M15
G01X10.7809Y-3.0764
M16
G05
G00X10.7809Y-3.2795
M15
G01X10.7809Y-3.2323
M16
G05
G00X10.7809Y-3.4354
M15
G01X10.7809Y-3.3882
M16
G05
G00X10.7809Y-3.5913
M15
G01X10.7809Y-3.5441
M16
G05
G00X10.7809Y-3.7472
M15
G01X10.7809Y-3.7
M16
G05
G00X10.7809Y-3.9031
M15
G01X10.7809Y-3.8559
M16
G05
G00X10.7809Y-4.0591
M15
G01X10.7809Y-4.0118
M16
G05
G00X10.7809Y-4.215
M15
G01X10.7809Y-4.1677
M16
G05
G00X10.7809Y-4.3709
M15
G01X10.7809Y-4.3236
M16
G05
G00X10.7809Y-4.5268
M15
G01X10.7809Y-4.4795
M16
G05
G00X10.7809Y-4.6827
M15
G01X10.7809Y-4.6354
M16
G05
G00X10.7809Y-4.8386
M15
G01X10.7809Y-4.7913
M16
G05
G00X10.7809Y-4.9945
M15
G01X10.7809Y-4.9472
M16
G05
G00X10.7809Y-5.1504
M15
G01X10.7809Y-5.1031
M16
G05
G00X10.7809Y-5.3063
M15
G01X10.7809Y-5.2591
M16
G05
G00X10.7809Y-5.4622
M15
G01X10.7809Y-5.415
M16
G05
G00X10.7809Y-5.6181
M15
G01X10.7809Y-5.5709
M16
G05
G00X10.7809Y-5.774
M15
G01X10.7809Y-5.7268
M16
G05
G00X10.7809Y-5.9299
M15
G01X10.7809Y-5.8827
M16
G05
G00X10.7809Y-6.0858
M15
G01X10.7809Y-6.0386
M16
G05
G00X10.7809Y-6.2417
M15
G01X10.7809Y-6.1945
M16
G05
G00X10.7809Y-6.3976
M15
G01X10.7809Y-6.3504
M16
G05
T0
M30
