%TF.GenerationSoftware,KiCad,Pcbnew,(5.1.10)-1*%
%TF.CreationDate,2022-09-02T18:37:02-04:00*%
%TF.ProjectId,VIC-20-Rear-Expander,5649432d-3230-42d5-9265-61722d457870,1*%
%TF.SameCoordinates,Original*%
%TF.FileFunction,Legend,Top*%
%TF.FilePolarity,Positive*%
%FSLAX46Y46*%
G04 Gerber Fmt 4.6, Leading zero omitted, Abs format (unit mm)*
G04 Created by KiCad (PCBNEW (5.1.10)-1) date 2022-09-02 18:37:02*
%MOMM*%
%LPD*%
G01*
G04 APERTURE LIST*
%ADD10C,0.300000*%
%ADD11C,0.350000*%
%ADD12C,0.600000*%
%ADD13C,0.120000*%
%ADD14C,0.100000*%
%ADD15C,0.150000*%
G04 APERTURE END LIST*
D10*
X157871619Y-218098761D02*
X158252571Y-218098761D01*
X158443047Y-218194000D01*
X158633523Y-218384476D01*
X158728761Y-218765428D01*
X158728761Y-219432095D01*
X158633523Y-219813047D01*
X158443047Y-220003523D01*
X158252571Y-220098761D01*
X157871619Y-220098761D01*
X157681142Y-220003523D01*
X157490666Y-219813047D01*
X157395428Y-219432095D01*
X157395428Y-218765428D01*
X157490666Y-218384476D01*
X157681142Y-218194000D01*
X157871619Y-218098761D01*
X159585904Y-218098761D02*
X159585904Y-219717809D01*
X159681142Y-219908285D01*
X159776380Y-220003523D01*
X159966857Y-220098761D01*
X160347809Y-220098761D01*
X160538285Y-220003523D01*
X160633523Y-219908285D01*
X160728761Y-219717809D01*
X160728761Y-218098761D01*
X161395428Y-218098761D02*
X162538285Y-218098761D01*
X161966857Y-220098761D02*
X161966857Y-218098761D01*
X163204952Y-220098761D02*
X163204952Y-218098761D01*
X163966857Y-218098761D01*
X164157333Y-218194000D01*
X164252571Y-218289238D01*
X164347809Y-218479714D01*
X164347809Y-218765428D01*
X164252571Y-218955904D01*
X164157333Y-219051142D01*
X163966857Y-219146380D01*
X163204952Y-219146380D01*
X165204952Y-218098761D02*
X165204952Y-219717809D01*
X165300190Y-219908285D01*
X165395428Y-220003523D01*
X165585904Y-220098761D01*
X165966857Y-220098761D01*
X166157333Y-220003523D01*
X166252571Y-219908285D01*
X166347809Y-219717809D01*
X166347809Y-218098761D01*
X167014476Y-218098761D02*
X168157333Y-218098761D01*
X167585904Y-220098761D02*
X167585904Y-218098761D01*
X168824000Y-219908285D02*
X168919238Y-220003523D01*
X168824000Y-220098761D01*
X168728761Y-220003523D01*
X168824000Y-219908285D01*
X168824000Y-220098761D01*
X168824000Y-218860666D02*
X168919238Y-218955904D01*
X168824000Y-219051142D01*
X168728761Y-218955904D01*
X168824000Y-218860666D01*
X168824000Y-219051142D01*
X172252571Y-218098761D02*
X171300190Y-218098761D01*
X171204952Y-219051142D01*
X171300190Y-218955904D01*
X171490666Y-218860666D01*
X171966857Y-218860666D01*
X172157333Y-218955904D01*
X172252571Y-219051142D01*
X172347809Y-219241619D01*
X172347809Y-219717809D01*
X172252571Y-219908285D01*
X172157333Y-220003523D01*
X171966857Y-220098761D01*
X171490666Y-220098761D01*
X171300190Y-220003523D01*
X171204952Y-219908285D01*
X172919238Y-218098761D02*
X173585904Y-220098761D01*
X174252571Y-218098761D01*
X174919238Y-220098761D02*
X174919238Y-218098761D01*
X175395428Y-218098761D01*
X175681142Y-218194000D01*
X175871619Y-218384476D01*
X175966857Y-218574952D01*
X176062095Y-218955904D01*
X176062095Y-219241619D01*
X175966857Y-219622571D01*
X175871619Y-219813047D01*
X175681142Y-220003523D01*
X175395428Y-220098761D01*
X174919238Y-220098761D01*
X178062095Y-219908285D02*
X177966857Y-220003523D01*
X177681142Y-220098761D01*
X177490666Y-220098761D01*
X177204952Y-220003523D01*
X177014476Y-219813047D01*
X176919238Y-219622571D01*
X176824000Y-219241619D01*
X176824000Y-218955904D01*
X176919238Y-218574952D01*
X177014476Y-218384476D01*
X177204952Y-218194000D01*
X177490666Y-218098761D01*
X177681142Y-218098761D01*
X177966857Y-218194000D01*
X178062095Y-218289238D01*
X180157333Y-219146380D02*
X180062095Y-219051142D01*
X179871619Y-218955904D01*
X179681142Y-218955904D01*
X179490666Y-219051142D01*
X179395428Y-219146380D01*
X179300190Y-219336857D01*
X179300190Y-219527333D01*
X179395428Y-219717809D01*
X179490666Y-219813047D01*
X179681142Y-219908285D01*
X179871619Y-219908285D01*
X180062095Y-219813047D01*
X180157333Y-219717809D01*
X180157333Y-218955904D02*
X180157333Y-219717809D01*
X180252571Y-219813047D01*
X180347809Y-219813047D01*
X180538285Y-219717809D01*
X180633523Y-219527333D01*
X180633523Y-219051142D01*
X180443047Y-218765428D01*
X180157333Y-218574952D01*
X179776380Y-218479714D01*
X179395428Y-218574952D01*
X179109714Y-218765428D01*
X178919238Y-219051142D01*
X178824000Y-219432095D01*
X178919238Y-219813047D01*
X179109714Y-220098761D01*
X179395428Y-220289238D01*
X179776380Y-220384476D01*
X180157333Y-220289238D01*
X180443047Y-220098761D01*
X181300190Y-218098761D02*
X182538285Y-218098761D01*
X181871619Y-218860666D01*
X182157333Y-218860666D01*
X182347809Y-218955904D01*
X182443047Y-219051142D01*
X182538285Y-219241619D01*
X182538285Y-219717809D01*
X182443047Y-219908285D01*
X182347809Y-220003523D01*
X182157333Y-220098761D01*
X181585904Y-220098761D01*
X181395428Y-220003523D01*
X181300190Y-219908285D01*
X183300190Y-219527333D02*
X184252571Y-219527333D01*
X183109714Y-220098761D02*
X183776380Y-218098761D01*
X184443047Y-220098761D01*
X214845952Y-215654761D02*
X214845952Y-213654761D01*
X215607857Y-213654761D01*
X215798333Y-213750000D01*
X215893571Y-213845238D01*
X215988809Y-214035714D01*
X215988809Y-214321428D01*
X215893571Y-214511904D01*
X215798333Y-214607142D01*
X215607857Y-214702380D01*
X214845952Y-214702380D01*
X217226904Y-213654761D02*
X217607857Y-213654761D01*
X217798333Y-213750000D01*
X217988809Y-213940476D01*
X218084047Y-214321428D01*
X218084047Y-214988095D01*
X217988809Y-215369047D01*
X217798333Y-215559523D01*
X217607857Y-215654761D01*
X217226904Y-215654761D01*
X217036428Y-215559523D01*
X216845952Y-215369047D01*
X216750714Y-214988095D01*
X216750714Y-214321428D01*
X216845952Y-213940476D01*
X217036428Y-213750000D01*
X217226904Y-213654761D01*
X218750714Y-213654761D02*
X219226904Y-215654761D01*
X219607857Y-214226190D01*
X219988809Y-215654761D01*
X220465000Y-213654761D01*
X221226904Y-214607142D02*
X221893571Y-214607142D01*
X222179285Y-215654761D02*
X221226904Y-215654761D01*
X221226904Y-213654761D01*
X222179285Y-213654761D01*
X224179285Y-215654761D02*
X223512619Y-214702380D01*
X223036428Y-215654761D02*
X223036428Y-213654761D01*
X223798333Y-213654761D01*
X223988809Y-213750000D01*
X224084047Y-213845238D01*
X224179285Y-214035714D01*
X224179285Y-214321428D01*
X224084047Y-214511904D01*
X223988809Y-214607142D01*
X223798333Y-214702380D01*
X223036428Y-214702380D01*
X214465000Y-218859523D02*
X214750714Y-218954761D01*
X215226904Y-218954761D01*
X215417380Y-218859523D01*
X215512619Y-218764285D01*
X215607857Y-218573809D01*
X215607857Y-218383333D01*
X215512619Y-218192857D01*
X215417380Y-218097619D01*
X215226904Y-218002380D01*
X214845952Y-217907142D01*
X214655476Y-217811904D01*
X214560238Y-217716666D01*
X214465000Y-217526190D01*
X214465000Y-217335714D01*
X214560238Y-217145238D01*
X214655476Y-217050000D01*
X214845952Y-216954761D01*
X215322142Y-216954761D01*
X215607857Y-217050000D01*
X216274523Y-216954761D02*
X216750714Y-218954761D01*
X217131666Y-217526190D01*
X217512619Y-218954761D01*
X217988809Y-216954761D01*
X218750714Y-218954761D02*
X218750714Y-216954761D01*
X219417380Y-216954761D02*
X220560238Y-216954761D01*
X219988809Y-218954761D02*
X219988809Y-216954761D01*
X222369761Y-218764285D02*
X222274523Y-218859523D01*
X221988809Y-218954761D01*
X221798333Y-218954761D01*
X221512619Y-218859523D01*
X221322142Y-218669047D01*
X221226904Y-218478571D01*
X221131666Y-218097619D01*
X221131666Y-217811904D01*
X221226904Y-217430952D01*
X221322142Y-217240476D01*
X221512619Y-217050000D01*
X221798333Y-216954761D01*
X221988809Y-216954761D01*
X222274523Y-217050000D01*
X222369761Y-217145238D01*
X223226904Y-218954761D02*
X223226904Y-216954761D01*
X223226904Y-217907142D02*
X224369761Y-217907142D01*
X224369761Y-218954761D02*
X224369761Y-216954761D01*
X244411904Y-209439761D02*
X243269047Y-209439761D01*
X243840476Y-209439761D02*
X243840476Y-207439761D01*
X243650000Y-207725476D01*
X243459523Y-207915952D01*
X243269047Y-208011190D01*
X245173809Y-207630238D02*
X245269047Y-207535000D01*
X245459523Y-207439761D01*
X245935714Y-207439761D01*
X246126190Y-207535000D01*
X246221428Y-207630238D01*
X246316666Y-207820714D01*
X246316666Y-208011190D01*
X246221428Y-208296904D01*
X245078571Y-209439761D01*
X246316666Y-209439761D01*
X246888095Y-207439761D02*
X247554761Y-209439761D01*
X248221428Y-207439761D01*
X248888095Y-209439761D02*
X248888095Y-207439761D01*
X249364285Y-207439761D01*
X249650000Y-207535000D01*
X249840476Y-207725476D01*
X249935714Y-207915952D01*
X250030952Y-208296904D01*
X250030952Y-208582619D01*
X249935714Y-208963571D01*
X249840476Y-209154047D01*
X249650000Y-209344523D01*
X249364285Y-209439761D01*
X248888095Y-209439761D01*
X252030952Y-209249285D02*
X251935714Y-209344523D01*
X251650000Y-209439761D01*
X251459523Y-209439761D01*
X251173809Y-209344523D01*
X250983333Y-209154047D01*
X250888095Y-208963571D01*
X250792857Y-208582619D01*
X250792857Y-208296904D01*
X250888095Y-207915952D01*
X250983333Y-207725476D01*
X251173809Y-207535000D01*
X251459523Y-207439761D01*
X251650000Y-207439761D01*
X251935714Y-207535000D01*
X252030952Y-207630238D01*
X243792857Y-212739761D02*
X243792857Y-210739761D01*
X244745238Y-212739761D02*
X244745238Y-210739761D01*
X245888095Y-212739761D01*
X245888095Y-210739761D01*
X246840476Y-212739761D02*
X246840476Y-210739761D01*
X247602380Y-210739761D01*
X247792857Y-210835000D01*
X247888095Y-210930238D01*
X247983333Y-211120714D01*
X247983333Y-211406428D01*
X247888095Y-211596904D01*
X247792857Y-211692142D01*
X247602380Y-211787380D01*
X246840476Y-211787380D01*
X248840476Y-210739761D02*
X248840476Y-212358809D01*
X248935714Y-212549285D01*
X249030952Y-212644523D01*
X249221428Y-212739761D01*
X249602380Y-212739761D01*
X249792857Y-212644523D01*
X249888095Y-212549285D01*
X249983333Y-212358809D01*
X249983333Y-210739761D01*
X250650000Y-210739761D02*
X251792857Y-210739761D01*
X251221428Y-212739761D02*
X251221428Y-210739761D01*
D11*
X77536428Y-159304761D02*
X77536428Y-160733333D01*
X77441190Y-161019047D01*
X77250714Y-161209523D01*
X76965000Y-161304761D01*
X76774523Y-161304761D01*
X79345952Y-161304761D02*
X79345952Y-160257142D01*
X79250714Y-160066666D01*
X79060238Y-159971428D01*
X78679285Y-159971428D01*
X78488809Y-160066666D01*
X79345952Y-161209523D02*
X79155476Y-161304761D01*
X78679285Y-161304761D01*
X78488809Y-161209523D01*
X78393571Y-161019047D01*
X78393571Y-160828571D01*
X78488809Y-160638095D01*
X78679285Y-160542857D01*
X79155476Y-160542857D01*
X79345952Y-160447619D01*
X80107857Y-159971428D02*
X80584047Y-161304761D01*
X81060238Y-159971428D02*
X80584047Y-161304761D01*
X80393571Y-161780952D01*
X80298333Y-161876190D01*
X80107857Y-161971428D01*
X81726904Y-161209523D02*
X81917380Y-161304761D01*
X82298333Y-161304761D01*
X82488809Y-161209523D01*
X82584047Y-161019047D01*
X82584047Y-160923809D01*
X82488809Y-160733333D01*
X82298333Y-160638095D01*
X82012619Y-160638095D01*
X81822142Y-160542857D01*
X81726904Y-160352380D01*
X81726904Y-160257142D01*
X81822142Y-160066666D01*
X82012619Y-159971428D01*
X82298333Y-159971428D01*
X82488809Y-160066666D01*
X83155476Y-159971428D02*
X83917380Y-159971428D01*
X83441190Y-159304761D02*
X83441190Y-161019047D01*
X83536428Y-161209523D01*
X83726904Y-161304761D01*
X83917380Y-161304761D01*
X84869761Y-161304761D02*
X84679285Y-161209523D01*
X84584047Y-161114285D01*
X84488809Y-160923809D01*
X84488809Y-160352380D01*
X84584047Y-160161904D01*
X84679285Y-160066666D01*
X84869761Y-159971428D01*
X85155476Y-159971428D01*
X85345952Y-160066666D01*
X85441190Y-160161904D01*
X85536428Y-160352380D01*
X85536428Y-160923809D01*
X85441190Y-161114285D01*
X85345952Y-161209523D01*
X85155476Y-161304761D01*
X84869761Y-161304761D01*
X86393571Y-159971428D02*
X86393571Y-161304761D01*
X86393571Y-160161904D02*
X86488809Y-160066666D01*
X86679285Y-159971428D01*
X86965000Y-159971428D01*
X87155476Y-160066666D01*
X87250714Y-160257142D01*
X87250714Y-161304761D01*
X88203095Y-161304761D02*
X88203095Y-159971428D01*
X88203095Y-159304761D02*
X88107857Y-159400000D01*
X88203095Y-159495238D01*
X88298333Y-159400000D01*
X88203095Y-159304761D01*
X88203095Y-159495238D01*
X90012619Y-161304761D02*
X90012619Y-160257142D01*
X89917380Y-160066666D01*
X89726904Y-159971428D01*
X89345952Y-159971428D01*
X89155476Y-160066666D01*
X90012619Y-161209523D02*
X89822142Y-161304761D01*
X89345952Y-161304761D01*
X89155476Y-161209523D01*
X89060238Y-161019047D01*
X89060238Y-160828571D01*
X89155476Y-160638095D01*
X89345952Y-160542857D01*
X89822142Y-160542857D01*
X90012619Y-160447619D01*
X90965000Y-159971428D02*
X90965000Y-161304761D01*
X90965000Y-160161904D02*
X91060238Y-160066666D01*
X91250714Y-159971428D01*
X91536428Y-159971428D01*
X91726904Y-160066666D01*
X91822142Y-160257142D01*
X91822142Y-161304761D01*
X94203095Y-159495238D02*
X94298333Y-159400000D01*
X94488809Y-159304761D01*
X94965000Y-159304761D01*
X95155476Y-159400000D01*
X95250714Y-159495238D01*
X95345952Y-159685714D01*
X95345952Y-159876190D01*
X95250714Y-160161904D01*
X94107857Y-161304761D01*
X95345952Y-161304761D01*
X96584047Y-159304761D02*
X96774523Y-159304761D01*
X96965000Y-159400000D01*
X97060238Y-159495238D01*
X97155476Y-159685714D01*
X97250714Y-160066666D01*
X97250714Y-160542857D01*
X97155476Y-160923809D01*
X97060238Y-161114285D01*
X96965000Y-161209523D01*
X96774523Y-161304761D01*
X96584047Y-161304761D01*
X96393571Y-161209523D01*
X96298333Y-161114285D01*
X96203095Y-160923809D01*
X96107857Y-160542857D01*
X96107857Y-160066666D01*
X96203095Y-159685714D01*
X96298333Y-159495238D01*
X96393571Y-159400000D01*
X96584047Y-159304761D01*
X98012619Y-159495238D02*
X98107857Y-159400000D01*
X98298333Y-159304761D01*
X98774523Y-159304761D01*
X98965000Y-159400000D01*
X99060238Y-159495238D01*
X99155476Y-159685714D01*
X99155476Y-159876190D01*
X99060238Y-160161904D01*
X97917380Y-161304761D01*
X99155476Y-161304761D01*
X99917380Y-159495238D02*
X100012619Y-159400000D01*
X100203095Y-159304761D01*
X100679285Y-159304761D01*
X100869761Y-159400000D01*
X100965000Y-159495238D01*
X101060238Y-159685714D01*
X101060238Y-159876190D01*
X100965000Y-160161904D01*
X99822142Y-161304761D01*
X101060238Y-161304761D01*
D12*
X82155476Y-75423809D02*
X78155476Y-76757142D01*
X82155476Y-78090476D01*
X78155476Y-79423809D02*
X82155476Y-79423809D01*
X78536428Y-83614285D02*
X78345952Y-83423809D01*
X78155476Y-82852380D01*
X78155476Y-82471428D01*
X78345952Y-81900000D01*
X78726904Y-81519047D01*
X79107857Y-81328571D01*
X79869761Y-81138095D01*
X80441190Y-81138095D01*
X81203095Y-81328571D01*
X81584047Y-81519047D01*
X81965000Y-81900000D01*
X82155476Y-82471428D01*
X82155476Y-82852380D01*
X81965000Y-83423809D01*
X81774523Y-83614285D01*
X79679285Y-85328571D02*
X79679285Y-88376190D01*
X81774523Y-90090476D02*
X81965000Y-90280952D01*
X82155476Y-90661904D01*
X82155476Y-91614285D01*
X81965000Y-91995238D01*
X81774523Y-92185714D01*
X81393571Y-92376190D01*
X81012619Y-92376190D01*
X80441190Y-92185714D01*
X78155476Y-89900000D01*
X78155476Y-92376190D01*
X82155476Y-94852380D02*
X82155476Y-95233333D01*
X81965000Y-95614285D01*
X81774523Y-95804761D01*
X81393571Y-95995238D01*
X80631666Y-96185714D01*
X79679285Y-96185714D01*
X78917380Y-95995238D01*
X78536428Y-95804761D01*
X78345952Y-95614285D01*
X78155476Y-95233333D01*
X78155476Y-94852380D01*
X78345952Y-94471428D01*
X78536428Y-94280952D01*
X78917380Y-94090476D01*
X79679285Y-93900000D01*
X80631666Y-93900000D01*
X81393571Y-94090476D01*
X81774523Y-94280952D01*
X81965000Y-94471428D01*
X82155476Y-94852380D01*
X78155476Y-103233333D02*
X80060238Y-101900000D01*
X78155476Y-100947619D02*
X82155476Y-100947619D01*
X82155476Y-102471428D01*
X81965000Y-102852380D01*
X81774523Y-103042857D01*
X81393571Y-103233333D01*
X80822142Y-103233333D01*
X80441190Y-103042857D01*
X80250714Y-102852380D01*
X80060238Y-102471428D01*
X80060238Y-100947619D01*
X80250714Y-104947619D02*
X80250714Y-106280952D01*
X78155476Y-106852380D02*
X78155476Y-104947619D01*
X82155476Y-104947619D01*
X82155476Y-106852380D01*
X79298333Y-108376190D02*
X79298333Y-110280952D01*
X78155476Y-107995238D02*
X82155476Y-109328571D01*
X78155476Y-110661904D01*
X78155476Y-114280952D02*
X80060238Y-112947619D01*
X78155476Y-111995238D02*
X82155476Y-111995238D01*
X82155476Y-113519047D01*
X81965000Y-113900000D01*
X81774523Y-114090476D01*
X81393571Y-114280952D01*
X80822142Y-114280952D01*
X80441190Y-114090476D01*
X80250714Y-113900000D01*
X80060238Y-113519047D01*
X80060238Y-111995238D01*
X80250714Y-119042857D02*
X80250714Y-120376190D01*
X78155476Y-120947619D02*
X78155476Y-119042857D01*
X82155476Y-119042857D01*
X82155476Y-120947619D01*
X82155476Y-122280952D02*
X78155476Y-124947619D01*
X82155476Y-124947619D02*
X78155476Y-122280952D01*
X78155476Y-126471428D02*
X82155476Y-126471428D01*
X82155476Y-127995238D01*
X81965000Y-128376190D01*
X81774523Y-128566666D01*
X81393571Y-128757142D01*
X80822142Y-128757142D01*
X80441190Y-128566666D01*
X80250714Y-128376190D01*
X80060238Y-127995238D01*
X80060238Y-126471428D01*
X79298333Y-130280952D02*
X79298333Y-132185714D01*
X78155476Y-129900000D02*
X82155476Y-131233333D01*
X78155476Y-132566666D01*
X78155476Y-133900000D02*
X82155476Y-133900000D01*
X78155476Y-136185714D01*
X82155476Y-136185714D01*
X78155476Y-138090476D02*
X82155476Y-138090476D01*
X82155476Y-139042857D01*
X81965000Y-139614285D01*
X81584047Y-139995238D01*
X81203095Y-140185714D01*
X80441190Y-140376190D01*
X79869761Y-140376190D01*
X79107857Y-140185714D01*
X78726904Y-139995238D01*
X78345952Y-139614285D01*
X78155476Y-139042857D01*
X78155476Y-138090476D01*
X80250714Y-142090476D02*
X80250714Y-143423809D01*
X78155476Y-143995238D02*
X78155476Y-142090476D01*
X82155476Y-142090476D01*
X82155476Y-143995238D01*
X78155476Y-147995238D02*
X80060238Y-146661904D01*
X78155476Y-145709523D02*
X82155476Y-145709523D01*
X82155476Y-147233333D01*
X81965000Y-147614285D01*
X81774523Y-147804761D01*
X81393571Y-147995238D01*
X80822142Y-147995238D01*
X80441190Y-147804761D01*
X80250714Y-147614285D01*
X80060238Y-147233333D01*
X80060238Y-145709523D01*
D10*
X89941190Y-64570000D02*
X91941190Y-64570000D01*
X91560238Y-67304761D02*
X90893571Y-66352380D01*
X90417380Y-67304761D02*
X90417380Y-65304761D01*
X91179285Y-65304761D01*
X91369761Y-65400000D01*
X91465000Y-65495238D01*
X91560238Y-65685714D01*
X91560238Y-65971428D01*
X91465000Y-66161904D01*
X91369761Y-66257142D01*
X91179285Y-66352380D01*
X90417380Y-66352380D01*
X91941190Y-64570000D02*
X93750714Y-64570000D01*
X92417380Y-66257142D02*
X93084047Y-66257142D01*
X93369761Y-67304761D02*
X92417380Y-67304761D01*
X92417380Y-65304761D01*
X93369761Y-65304761D01*
X93750714Y-64570000D02*
X95655476Y-64570000D01*
X94131666Y-67209523D02*
X94417380Y-67304761D01*
X94893571Y-67304761D01*
X95084047Y-67209523D01*
X95179285Y-67114285D01*
X95274523Y-66923809D01*
X95274523Y-66733333D01*
X95179285Y-66542857D01*
X95084047Y-66447619D01*
X94893571Y-66352380D01*
X94512619Y-66257142D01*
X94322142Y-66161904D01*
X94226904Y-66066666D01*
X94131666Y-65876190D01*
X94131666Y-65685714D01*
X94226904Y-65495238D01*
X94322142Y-65400000D01*
X94512619Y-65304761D01*
X94988809Y-65304761D01*
X95274523Y-65400000D01*
X95655476Y-64570000D02*
X97465000Y-64570000D01*
X96131666Y-66257142D02*
X96798333Y-66257142D01*
X97084047Y-67304761D02*
X96131666Y-67304761D01*
X96131666Y-65304761D01*
X97084047Y-65304761D01*
X97465000Y-64570000D02*
X98988809Y-64570000D01*
X97655476Y-65304761D02*
X98798333Y-65304761D01*
X98226904Y-67304761D02*
X98226904Y-65304761D01*
D13*
%TO.C,X2*%
X161515000Y-163880000D02*
X153595000Y-163880000D01*
X153595000Y-163880000D02*
X153595000Y-76760000D01*
X153595000Y-76760000D02*
X161515000Y-76760000D01*
X161134000Y-163880000D02*
X161134000Y-76760000D01*
X153618000Y-162674500D02*
X154824500Y-163881000D01*
%TO.C,X3*%
X199615000Y-163880000D02*
X191695000Y-163880000D01*
X191695000Y-163880000D02*
X191695000Y-76760000D01*
X191695000Y-76760000D02*
X199615000Y-76760000D01*
X199234000Y-163880000D02*
X199234000Y-76760000D01*
X191718000Y-162674500D02*
X192924500Y-163881000D01*
%TO.C,X4*%
X237715000Y-163880000D02*
X229795000Y-163880000D01*
X229795000Y-163880000D02*
X229795000Y-76760000D01*
X229795000Y-76760000D02*
X237715000Y-76760000D01*
X237334000Y-163880000D02*
X237334000Y-76760000D01*
X229818000Y-162674500D02*
X231024500Y-163881000D01*
%TO.C,X5*%
X275815000Y-163880000D02*
X267895000Y-163880000D01*
X267895000Y-163880000D02*
X267895000Y-76760000D01*
X267895000Y-76760000D02*
X275815000Y-76760000D01*
X275434000Y-163880000D02*
X275434000Y-76760000D01*
X267918000Y-162674500D02*
X269124500Y-163881000D01*
D14*
%TO.C,X1*%
G36*
X76635000Y-156960000D02*
G01*
X74635000Y-156960000D01*
X74635000Y-66960000D01*
X76635000Y-66960000D01*
X76635000Y-156960000D01*
G37*
X76635000Y-156960000D02*
X74635000Y-156960000D01*
X74635000Y-66960000D01*
X76635000Y-66960000D01*
X76635000Y-156960000D01*
D13*
%TO.C,C2*%
X111931267Y-76325000D02*
X111588733Y-76325000D01*
X111931267Y-77345000D02*
X111588733Y-77345000D01*
%TO.C,C3*%
X114763733Y-100776500D02*
X115106267Y-100776500D01*
X114763733Y-99756500D02*
X115106267Y-99756500D01*
%TO.C,C4*%
X105937233Y-153731500D02*
X106279767Y-153731500D01*
X105937233Y-154751500D02*
X106279767Y-154751500D01*
%TO.C,C5*%
X106279767Y-135892000D02*
X105937233Y-135892000D01*
X106279767Y-134872000D02*
X105937233Y-134872000D01*
%TO.C,C6*%
X120330500Y-83775733D02*
X120330500Y-84118267D01*
X121350500Y-83775733D02*
X121350500Y-84118267D01*
%TO.C,C7*%
X111652233Y-88902000D02*
X111994767Y-88902000D01*
X111652233Y-87882000D02*
X111994767Y-87882000D01*
%TO.C,D1*%
X193465000Y-205285000D02*
X193465000Y-199845000D01*
X193465000Y-199845000D02*
X183725000Y-199845000D01*
X183725000Y-199845000D02*
X183725000Y-205285000D01*
X183725000Y-205285000D02*
X193465000Y-205285000D01*
X194375000Y-202565000D02*
X193465000Y-202565000D01*
X182815000Y-202565000D02*
X183725000Y-202565000D01*
X191920000Y-205285000D02*
X191920000Y-199845000D01*
X191800000Y-205285000D02*
X191800000Y-199845000D01*
X192040000Y-205285000D02*
X192040000Y-199845000D01*
%TO.C,F1*%
X167815000Y-192754000D02*
X167815000Y-167754000D01*
X167815000Y-167754000D02*
X173815000Y-167754000D01*
X173815000Y-167754000D02*
X173815000Y-192754000D01*
X173815000Y-192754000D02*
X167815000Y-192754000D01*
%TO.C,J1*%
X252250000Y-220846000D02*
X252250000Y-229346000D01*
X252250000Y-229346000D02*
X243050000Y-229346000D01*
X243050000Y-229346000D02*
X243050000Y-214646000D01*
X250150000Y-214646000D02*
X252250000Y-214646000D01*
X252250000Y-214646000D02*
X252250000Y-216446000D01*
X244450000Y-214346000D02*
X242750000Y-214346000D01*
X242750000Y-214346000D02*
X242750000Y-215946000D01*
X243050000Y-214646000D02*
X245150000Y-214646000D01*
%TO.C,L1*%
X142050000Y-211105000D02*
X136900000Y-207905000D01*
X150050000Y-199105000D02*
X155200000Y-202305000D01*
D15*
X155200000Y-207905000D02*
X150050000Y-211105000D01*
D13*
X136900000Y-202305000D02*
X142050000Y-199105000D01*
X150041605Y-211110589D02*
G75*
G02*
X142050000Y-211105000I-3991605J6005589D01*
G01*
X142058395Y-199099411D02*
G75*
G02*
X150050000Y-199105000I3991605J-6005589D01*
G01*
%TO.C,RN1*%
X93215000Y-155110000D02*
X96015000Y-155110000D01*
X96015000Y-155110000D02*
X96015000Y-129370000D01*
X96015000Y-129370000D02*
X93215000Y-129370000D01*
X93215000Y-129370000D02*
X93215000Y-155110000D01*
X93215000Y-152400000D02*
X96015000Y-152400000D01*
%TO.C,RN2*%
X131315000Y-126365000D02*
X134115000Y-126365000D01*
X131315000Y-108415000D02*
X131315000Y-129075000D01*
X134115000Y-108415000D02*
X131315000Y-108415000D01*
X134115000Y-129075000D02*
X134115000Y-108415000D01*
X131315000Y-129075000D02*
X134115000Y-129075000D01*
%TO.C,RN3*%
X169415000Y-129075000D02*
X172215000Y-129075000D01*
X172215000Y-129075000D02*
X172215000Y-108415000D01*
X172215000Y-108415000D02*
X169415000Y-108415000D01*
X169415000Y-108415000D02*
X169415000Y-129075000D01*
X169415000Y-126365000D02*
X172215000Y-126365000D01*
%TO.C,RN4*%
X207515000Y-126365000D02*
X210315000Y-126365000D01*
X207515000Y-108415000D02*
X207515000Y-129075000D01*
X210315000Y-108415000D02*
X207515000Y-108415000D01*
X210315000Y-129075000D02*
X210315000Y-108415000D01*
X207515000Y-129075000D02*
X210315000Y-129075000D01*
%TO.C,RN5*%
X245615000Y-129075000D02*
X248415000Y-129075000D01*
X248415000Y-129075000D02*
X248415000Y-108415000D01*
X248415000Y-108415000D02*
X245615000Y-108415000D01*
X245615000Y-108415000D02*
X245615000Y-129075000D01*
X245615000Y-126365000D02*
X248415000Y-126365000D01*
%TO.C,SW2*%
X151705000Y-194885000D02*
X151705000Y-197545000D01*
X154305000Y-194885000D02*
X151705000Y-194885000D01*
X154305000Y-197545000D02*
X151705000Y-197545000D01*
X154305000Y-194885000D02*
X154305000Y-197545000D01*
X155575000Y-194885000D02*
X156905000Y-194885000D01*
X156905000Y-194885000D02*
X156905000Y-196215000D01*
%TO.C,SW3*%
X193735000Y-194885000D02*
X193735000Y-196215000D01*
X192405000Y-194885000D02*
X193735000Y-194885000D01*
X191135000Y-194885000D02*
X191135000Y-197545000D01*
X191135000Y-197545000D02*
X188535000Y-197545000D01*
X191135000Y-194885000D02*
X188535000Y-194885000D01*
X188535000Y-194885000D02*
X188535000Y-197545000D01*
%TO.C,SW4*%
X226635000Y-194885000D02*
X226635000Y-197545000D01*
X229235000Y-194885000D02*
X226635000Y-194885000D01*
X229235000Y-197545000D02*
X226635000Y-197545000D01*
X229235000Y-194885000D02*
X229235000Y-197545000D01*
X230505000Y-194885000D02*
X231835000Y-194885000D01*
X231835000Y-194885000D02*
X231835000Y-196215000D01*
%TO.C,SW5*%
X269935000Y-194885000D02*
X269935000Y-196215000D01*
X268605000Y-194885000D02*
X269935000Y-194885000D01*
X267335000Y-194885000D02*
X267335000Y-197545000D01*
X267335000Y-197545000D02*
X264735000Y-197545000D01*
X267335000Y-194885000D02*
X264735000Y-194885000D01*
X264735000Y-194885000D02*
X264735000Y-197545000D01*
%TO.C,U1*%
X109220000Y-89545000D02*
X105770000Y-89545000D01*
X109220000Y-89545000D02*
X111170000Y-89545000D01*
X109220000Y-98415000D02*
X107270000Y-98415000D01*
X109220000Y-98415000D02*
X111170000Y-98415000D01*
%TO.C,U2*%
X109220000Y-86985000D02*
X111170000Y-86985000D01*
X109220000Y-86985000D02*
X107270000Y-86985000D01*
X109220000Y-78115000D02*
X111170000Y-78115000D01*
X109220000Y-78115000D02*
X105770000Y-78115000D01*
%TO.C,U3*%
X109855000Y-114460000D02*
X113715000Y-114460000D01*
X113715000Y-114460000D02*
X113715000Y-114225000D01*
X109855000Y-114460000D02*
X105995000Y-114460000D01*
X105995000Y-114460000D02*
X105995000Y-114225000D01*
X109855000Y-101440000D02*
X113715000Y-101440000D01*
X113715000Y-101440000D02*
X113715000Y-101675000D01*
X109855000Y-101440000D02*
X105995000Y-101440000D01*
X105995000Y-101440000D02*
X105995000Y-101675000D01*
X105995000Y-101675000D02*
X104305000Y-101675000D01*
%TO.C,U4*%
X109855000Y-138270000D02*
X105995000Y-138270000D01*
X105995000Y-138270000D02*
X105995000Y-138505000D01*
X109855000Y-138270000D02*
X113715000Y-138270000D01*
X113715000Y-138270000D02*
X113715000Y-138505000D01*
X109855000Y-151290000D02*
X105995000Y-151290000D01*
X105995000Y-151290000D02*
X105995000Y-151055000D01*
X109855000Y-151290000D02*
X113715000Y-151290000D01*
X113715000Y-151290000D02*
X113715000Y-151055000D01*
X113715000Y-151055000D02*
X115405000Y-151055000D01*
%TO.C,U5*%
X113715000Y-133275000D02*
X115405000Y-133275000D01*
X113715000Y-133510000D02*
X113715000Y-133275000D01*
X109855000Y-133510000D02*
X113715000Y-133510000D01*
X105995000Y-133510000D02*
X105995000Y-133275000D01*
X109855000Y-133510000D02*
X105995000Y-133510000D01*
X113715000Y-120490000D02*
X113715000Y-120725000D01*
X109855000Y-120490000D02*
X113715000Y-120490000D01*
X105995000Y-120490000D02*
X105995000Y-120725000D01*
X109855000Y-120490000D02*
X105995000Y-120490000D01*
%TO.C,U6*%
X118683000Y-82088500D02*
X116783000Y-82088500D01*
X117283000Y-84408500D02*
X118683000Y-84408500D01*
%TO.C,U7*%
X175901500Y-213455000D02*
X165660500Y-213455000D01*
X175901500Y-208814000D02*
X165660500Y-208814000D01*
X175901500Y-213455000D02*
X175901500Y-208814000D01*
X165660500Y-213455000D02*
X165660500Y-208814000D01*
X175901500Y-211945000D02*
X165660500Y-211945000D01*
X172630500Y-213455000D02*
X172630500Y-211945000D01*
X168930500Y-213455000D02*
X168930500Y-211945000D01*
%TO.C,C1*%
X213400000Y-203875000D02*
G75*
G03*
X213400000Y-203875000I-5120000J0D01*
G01*
X203200000Y-203875000D02*
X213360000Y-203875000D01*
X203200000Y-203835000D02*
X213360000Y-203835000D01*
X203200000Y-203795000D02*
X213360000Y-203795000D01*
X203201000Y-203755000D02*
X213359000Y-203755000D01*
X203202000Y-203715000D02*
X213358000Y-203715000D01*
X203203000Y-203675000D02*
X213357000Y-203675000D01*
X203205000Y-203635000D02*
X213355000Y-203635000D01*
X203207000Y-203595000D02*
X213353000Y-203595000D01*
X203210000Y-203555000D02*
X213350000Y-203555000D01*
X203212000Y-203515000D02*
X213348000Y-203515000D01*
X203215000Y-203475000D02*
X213345000Y-203475000D01*
X203218000Y-203435000D02*
X213342000Y-203435000D01*
X203222000Y-203395000D02*
X213338000Y-203395000D01*
X203226000Y-203355000D02*
X213334000Y-203355000D01*
X203230000Y-203315000D02*
X213330000Y-203315000D01*
X203235000Y-203275000D02*
X213325000Y-203275000D01*
X203240000Y-203235000D02*
X213320000Y-203235000D01*
X203245000Y-203195000D02*
X213315000Y-203195000D01*
X203250000Y-203154000D02*
X213310000Y-203154000D01*
X203256000Y-203114000D02*
X213304000Y-203114000D01*
X203262000Y-203074000D02*
X213298000Y-203074000D01*
X203269000Y-203034000D02*
X213291000Y-203034000D01*
X203276000Y-202994000D02*
X213284000Y-202994000D01*
X203283000Y-202954000D02*
X213277000Y-202954000D01*
X203290000Y-202914000D02*
X213270000Y-202914000D01*
X203298000Y-202874000D02*
X213262000Y-202874000D01*
X203306000Y-202834000D02*
X213254000Y-202834000D01*
X203315000Y-202794000D02*
X213245000Y-202794000D01*
X203324000Y-202754000D02*
X213236000Y-202754000D01*
X203333000Y-202714000D02*
X213227000Y-202714000D01*
X203342000Y-202674000D02*
X213218000Y-202674000D01*
X203352000Y-202634000D02*
X213208000Y-202634000D01*
X203362000Y-202594000D02*
X207039000Y-202594000D01*
X209521000Y-202594000D02*
X213198000Y-202594000D01*
X203373000Y-202554000D02*
X207039000Y-202554000D01*
X209521000Y-202554000D02*
X213187000Y-202554000D01*
X203383000Y-202514000D02*
X207039000Y-202514000D01*
X209521000Y-202514000D02*
X213177000Y-202514000D01*
X203395000Y-202474000D02*
X207039000Y-202474000D01*
X209521000Y-202474000D02*
X213165000Y-202474000D01*
X203406000Y-202434000D02*
X207039000Y-202434000D01*
X209521000Y-202434000D02*
X213154000Y-202434000D01*
X203418000Y-202394000D02*
X207039000Y-202394000D01*
X209521000Y-202394000D02*
X213142000Y-202394000D01*
X203430000Y-202354000D02*
X207039000Y-202354000D01*
X209521000Y-202354000D02*
X213130000Y-202354000D01*
X203443000Y-202314000D02*
X207039000Y-202314000D01*
X209521000Y-202314000D02*
X213117000Y-202314000D01*
X203456000Y-202274000D02*
X207039000Y-202274000D01*
X209521000Y-202274000D02*
X213104000Y-202274000D01*
X203469000Y-202234000D02*
X207039000Y-202234000D01*
X209521000Y-202234000D02*
X213091000Y-202234000D01*
X203483000Y-202194000D02*
X207039000Y-202194000D01*
X209521000Y-202194000D02*
X213077000Y-202194000D01*
X203497000Y-202154000D02*
X207039000Y-202154000D01*
X209521000Y-202154000D02*
X213063000Y-202154000D01*
X203512000Y-202114000D02*
X207039000Y-202114000D01*
X209521000Y-202114000D02*
X213048000Y-202114000D01*
X203526000Y-202074000D02*
X207039000Y-202074000D01*
X209521000Y-202074000D02*
X213034000Y-202074000D01*
X203542000Y-202034000D02*
X207039000Y-202034000D01*
X209521000Y-202034000D02*
X213018000Y-202034000D01*
X203557000Y-201994000D02*
X207039000Y-201994000D01*
X209521000Y-201994000D02*
X213003000Y-201994000D01*
X203573000Y-201954000D02*
X207039000Y-201954000D01*
X209521000Y-201954000D02*
X212987000Y-201954000D01*
X203590000Y-201914000D02*
X207039000Y-201914000D01*
X209521000Y-201914000D02*
X212970000Y-201914000D01*
X203606000Y-201874000D02*
X207039000Y-201874000D01*
X209521000Y-201874000D02*
X212954000Y-201874000D01*
X203623000Y-201834000D02*
X207039000Y-201834000D01*
X209521000Y-201834000D02*
X212937000Y-201834000D01*
X203641000Y-201794000D02*
X207039000Y-201794000D01*
X209521000Y-201794000D02*
X212919000Y-201794000D01*
X203659000Y-201754000D02*
X207039000Y-201754000D01*
X209521000Y-201754000D02*
X212901000Y-201754000D01*
X203677000Y-201714000D02*
X207039000Y-201714000D01*
X209521000Y-201714000D02*
X212883000Y-201714000D01*
X203696000Y-201674000D02*
X207039000Y-201674000D01*
X209521000Y-201674000D02*
X212864000Y-201674000D01*
X203716000Y-201634000D02*
X207039000Y-201634000D01*
X209521000Y-201634000D02*
X212844000Y-201634000D01*
X203735000Y-201594000D02*
X207039000Y-201594000D01*
X209521000Y-201594000D02*
X212825000Y-201594000D01*
X203755000Y-201554000D02*
X207039000Y-201554000D01*
X209521000Y-201554000D02*
X212805000Y-201554000D01*
X203776000Y-201514000D02*
X207039000Y-201514000D01*
X209521000Y-201514000D02*
X212784000Y-201514000D01*
X203797000Y-201474000D02*
X207039000Y-201474000D01*
X209521000Y-201474000D02*
X212763000Y-201474000D01*
X203818000Y-201434000D02*
X207039000Y-201434000D01*
X209521000Y-201434000D02*
X212742000Y-201434000D01*
X203840000Y-201394000D02*
X207039000Y-201394000D01*
X209521000Y-201394000D02*
X212720000Y-201394000D01*
X203863000Y-201354000D02*
X207039000Y-201354000D01*
X209521000Y-201354000D02*
X212697000Y-201354000D01*
X203885000Y-201314000D02*
X207039000Y-201314000D01*
X209521000Y-201314000D02*
X212675000Y-201314000D01*
X203909000Y-201274000D02*
X207039000Y-201274000D01*
X209521000Y-201274000D02*
X212651000Y-201274000D01*
X203933000Y-201234000D02*
X207039000Y-201234000D01*
X209521000Y-201234000D02*
X212627000Y-201234000D01*
X203957000Y-201194000D02*
X207039000Y-201194000D01*
X209521000Y-201194000D02*
X212603000Y-201194000D01*
X203982000Y-201154000D02*
X207039000Y-201154000D01*
X209521000Y-201154000D02*
X212578000Y-201154000D01*
X204007000Y-201114000D02*
X207039000Y-201114000D01*
X209521000Y-201114000D02*
X212553000Y-201114000D01*
X204033000Y-201074000D02*
X207039000Y-201074000D01*
X209521000Y-201074000D02*
X212527000Y-201074000D01*
X204059000Y-201034000D02*
X207039000Y-201034000D01*
X209521000Y-201034000D02*
X212501000Y-201034000D01*
X204086000Y-200994000D02*
X207039000Y-200994000D01*
X209521000Y-200994000D02*
X212474000Y-200994000D01*
X204114000Y-200954000D02*
X207039000Y-200954000D01*
X209521000Y-200954000D02*
X212446000Y-200954000D01*
X204142000Y-200914000D02*
X207039000Y-200914000D01*
X209521000Y-200914000D02*
X212418000Y-200914000D01*
X204170000Y-200874000D02*
X207039000Y-200874000D01*
X209521000Y-200874000D02*
X212390000Y-200874000D01*
X204200000Y-200834000D02*
X207039000Y-200834000D01*
X209521000Y-200834000D02*
X212360000Y-200834000D01*
X204230000Y-200794000D02*
X207039000Y-200794000D01*
X209521000Y-200794000D02*
X212330000Y-200794000D01*
X204260000Y-200754000D02*
X207039000Y-200754000D01*
X209521000Y-200754000D02*
X212300000Y-200754000D01*
X204291000Y-200714000D02*
X207039000Y-200714000D01*
X209521000Y-200714000D02*
X212269000Y-200714000D01*
X204323000Y-200674000D02*
X207039000Y-200674000D01*
X209521000Y-200674000D02*
X212237000Y-200674000D01*
X204355000Y-200634000D02*
X207039000Y-200634000D01*
X209521000Y-200634000D02*
X212205000Y-200634000D01*
X204388000Y-200594000D02*
X207039000Y-200594000D01*
X209521000Y-200594000D02*
X212172000Y-200594000D01*
X204422000Y-200554000D02*
X207039000Y-200554000D01*
X209521000Y-200554000D02*
X212138000Y-200554000D01*
X204456000Y-200514000D02*
X207039000Y-200514000D01*
X209521000Y-200514000D02*
X212104000Y-200514000D01*
X204491000Y-200474000D02*
X207039000Y-200474000D01*
X209521000Y-200474000D02*
X212069000Y-200474000D01*
X204527000Y-200434000D02*
X207039000Y-200434000D01*
X209521000Y-200434000D02*
X212033000Y-200434000D01*
X204564000Y-200394000D02*
X207039000Y-200394000D01*
X209521000Y-200394000D02*
X211996000Y-200394000D01*
X204601000Y-200354000D02*
X207039000Y-200354000D01*
X209521000Y-200354000D02*
X211959000Y-200354000D01*
X204640000Y-200314000D02*
X207039000Y-200314000D01*
X209521000Y-200314000D02*
X211920000Y-200314000D01*
X204679000Y-200274000D02*
X207039000Y-200274000D01*
X209521000Y-200274000D02*
X211881000Y-200274000D01*
X204719000Y-200234000D02*
X207039000Y-200234000D01*
X209521000Y-200234000D02*
X211841000Y-200234000D01*
X204760000Y-200194000D02*
X207039000Y-200194000D01*
X209521000Y-200194000D02*
X211800000Y-200194000D01*
X204802000Y-200154000D02*
X207039000Y-200154000D01*
X209521000Y-200154000D02*
X211758000Y-200154000D01*
X204844000Y-200114000D02*
X211716000Y-200114000D01*
X204888000Y-200074000D02*
X211672000Y-200074000D01*
X204933000Y-200034000D02*
X211627000Y-200034000D01*
X204979000Y-199994000D02*
X211581000Y-199994000D01*
X205026000Y-199954000D02*
X211534000Y-199954000D01*
X205074000Y-199914000D02*
X211486000Y-199914000D01*
X205124000Y-199874000D02*
X211436000Y-199874000D01*
X205174000Y-199834000D02*
X211386000Y-199834000D01*
X205226000Y-199794000D02*
X211334000Y-199794000D01*
X205280000Y-199754000D02*
X211280000Y-199754000D01*
X205335000Y-199714000D02*
X211225000Y-199714000D01*
X205391000Y-199674000D02*
X211169000Y-199674000D01*
X205450000Y-199634000D02*
X211110000Y-199634000D01*
X205510000Y-199594000D02*
X211050000Y-199594000D01*
X205571000Y-199554000D02*
X210989000Y-199554000D01*
X205635000Y-199514000D02*
X210925000Y-199514000D01*
X205701000Y-199474000D02*
X210859000Y-199474000D01*
X205770000Y-199434000D02*
X210790000Y-199434000D01*
X205841000Y-199394000D02*
X210719000Y-199394000D01*
X205915000Y-199354000D02*
X210645000Y-199354000D01*
X205991000Y-199314000D02*
X210569000Y-199314000D01*
X206071000Y-199274000D02*
X210489000Y-199274000D01*
X206155000Y-199234000D02*
X210405000Y-199234000D01*
X206243000Y-199194000D02*
X210317000Y-199194000D01*
X206336000Y-199154000D02*
X210224000Y-199154000D01*
X206434000Y-199114000D02*
X210126000Y-199114000D01*
X206538000Y-199074000D02*
X210022000Y-199074000D01*
X206650000Y-199034000D02*
X209910000Y-199034000D01*
X206770000Y-198994000D02*
X209790000Y-198994000D01*
X206902000Y-198954000D02*
X209658000Y-198954000D01*
X207050000Y-198914000D02*
X209510000Y-198914000D01*
X207218000Y-198874000D02*
X209342000Y-198874000D01*
X207418000Y-198834000D02*
X209142000Y-198834000D01*
X207681000Y-198794000D02*
X208879000Y-198794000D01*
X205405000Y-209354646D02*
X205405000Y-208354646D01*
X204905000Y-208854646D02*
X205905000Y-208854646D01*
%TO.C,C14*%
X127796001Y-63840247D02*
X127796001Y-64362751D01*
X126376001Y-63840247D02*
X126376001Y-64362751D01*
%TO.C,C15*%
X130746001Y-64362751D02*
X130746001Y-63840247D01*
X129326001Y-64362751D02*
X129326001Y-63840247D01*
%TO.C,J2*%
X91507000Y-68266000D02*
X91507000Y-70926000D01*
X94107000Y-68266000D02*
X91507000Y-68266000D01*
X94107000Y-70926000D02*
X91507000Y-70926000D01*
X94107000Y-68266000D02*
X94107000Y-70926000D01*
X95377000Y-68266000D02*
X96707000Y-68266000D01*
X96707000Y-68266000D02*
X96707000Y-69596000D01*
%TO.C,SW1*%
X212840000Y-221120000D02*
X204840000Y-221120000D01*
X204840000Y-221120000D02*
X204840000Y-211895000D01*
X204840000Y-211895000D02*
X206745000Y-211895000D01*
X206745000Y-211895000D02*
X206745000Y-210890000D01*
X206745000Y-210890000D02*
X210935000Y-210890000D01*
X210935000Y-210890000D02*
X210935000Y-211895000D01*
X210935000Y-211895000D02*
X212840000Y-211895000D01*
X212840000Y-211895000D02*
X212840000Y-221120000D01*
X213130000Y-217900000D02*
X213130000Y-213900000D01*
X210820000Y-210890000D02*
X210820000Y-211890000D01*
X210820000Y-211890000D02*
X206860000Y-211890000D01*
X206860000Y-211890000D02*
X206860000Y-210890000D01*
X210820000Y-211890000D02*
X210820000Y-213560000D01*
X210820000Y-213560000D02*
X206860000Y-213560000D01*
X206860000Y-213560000D02*
X206860000Y-211890000D01*
X211620000Y-221120000D02*
X211620000Y-220520000D01*
X211620000Y-220520000D02*
X210020000Y-220520000D01*
X210020000Y-220520000D02*
X210020000Y-221120000D01*
X207660000Y-221120000D02*
X207660000Y-220520000D01*
X207660000Y-220520000D02*
X206060000Y-220520000D01*
X206060000Y-220520000D02*
X206060000Y-221120000D01*
%TO.C,C16*%
X115831252Y-156285000D02*
X115308748Y-156285000D01*
X115831252Y-154865000D02*
X115308748Y-154865000D01*
%TO.C,C12*%
X175714000Y-194831354D02*
X174714000Y-194831354D01*
X175214000Y-194331354D02*
X175214000Y-195331354D01*
X172938000Y-204892000D02*
X171740000Y-204892000D01*
X173201000Y-204852000D02*
X171477000Y-204852000D01*
X173401000Y-204812000D02*
X171277000Y-204812000D01*
X173569000Y-204772000D02*
X171109000Y-204772000D01*
X173717000Y-204732000D02*
X170961000Y-204732000D01*
X173849000Y-204692000D02*
X170829000Y-204692000D01*
X173969000Y-204652000D02*
X170709000Y-204652000D01*
X174081000Y-204612000D02*
X170597000Y-204612000D01*
X174185000Y-204572000D02*
X170493000Y-204572000D01*
X174283000Y-204532000D02*
X170395000Y-204532000D01*
X174376000Y-204492000D02*
X170302000Y-204492000D01*
X174464000Y-204452000D02*
X170214000Y-204452000D01*
X174548000Y-204412000D02*
X170130000Y-204412000D01*
X174628000Y-204372000D02*
X170050000Y-204372000D01*
X174704000Y-204332000D02*
X169974000Y-204332000D01*
X174778000Y-204292000D02*
X169900000Y-204292000D01*
X174849000Y-204252000D02*
X169829000Y-204252000D01*
X174918000Y-204212000D02*
X169760000Y-204212000D01*
X174984000Y-204172000D02*
X169694000Y-204172000D01*
X175048000Y-204132000D02*
X169630000Y-204132000D01*
X175109000Y-204092000D02*
X169569000Y-204092000D01*
X175169000Y-204052000D02*
X169509000Y-204052000D01*
X175228000Y-204012000D02*
X169450000Y-204012000D01*
X175284000Y-203972000D02*
X169394000Y-203972000D01*
X175339000Y-203932000D02*
X169339000Y-203932000D01*
X175393000Y-203892000D02*
X169285000Y-203892000D01*
X175445000Y-203852000D02*
X169233000Y-203852000D01*
X175495000Y-203812000D02*
X169183000Y-203812000D01*
X175545000Y-203772000D02*
X169133000Y-203772000D01*
X175593000Y-203732000D02*
X169085000Y-203732000D01*
X175640000Y-203692000D02*
X169038000Y-203692000D01*
X175686000Y-203652000D02*
X168992000Y-203652000D01*
X175731000Y-203612000D02*
X168947000Y-203612000D01*
X175775000Y-203572000D02*
X168903000Y-203572000D01*
X171098000Y-203532000D02*
X168861000Y-203532000D01*
X175817000Y-203532000D02*
X173580000Y-203532000D01*
X171098000Y-203492000D02*
X168819000Y-203492000D01*
X175859000Y-203492000D02*
X173580000Y-203492000D01*
X171098000Y-203452000D02*
X168778000Y-203452000D01*
X175900000Y-203452000D02*
X173580000Y-203452000D01*
X171098000Y-203412000D02*
X168738000Y-203412000D01*
X175940000Y-203412000D02*
X173580000Y-203412000D01*
X171098000Y-203372000D02*
X168699000Y-203372000D01*
X175979000Y-203372000D02*
X173580000Y-203372000D01*
X171098000Y-203332000D02*
X168660000Y-203332000D01*
X176018000Y-203332000D02*
X173580000Y-203332000D01*
X171098000Y-203292000D02*
X168623000Y-203292000D01*
X176055000Y-203292000D02*
X173580000Y-203292000D01*
X171098000Y-203252000D02*
X168586000Y-203252000D01*
X176092000Y-203252000D02*
X173580000Y-203252000D01*
X171098000Y-203212000D02*
X168550000Y-203212000D01*
X176128000Y-203212000D02*
X173580000Y-203212000D01*
X171098000Y-203172000D02*
X168515000Y-203172000D01*
X176163000Y-203172000D02*
X173580000Y-203172000D01*
X171098000Y-203132000D02*
X168481000Y-203132000D01*
X176197000Y-203132000D02*
X173580000Y-203132000D01*
X171098000Y-203092000D02*
X168447000Y-203092000D01*
X176231000Y-203092000D02*
X173580000Y-203092000D01*
X171098000Y-203052000D02*
X168414000Y-203052000D01*
X176264000Y-203052000D02*
X173580000Y-203052000D01*
X171098000Y-203012000D02*
X168382000Y-203012000D01*
X176296000Y-203012000D02*
X173580000Y-203012000D01*
X171098000Y-202972000D02*
X168350000Y-202972000D01*
X176328000Y-202972000D02*
X173580000Y-202972000D01*
X171098000Y-202932000D02*
X168319000Y-202932000D01*
X176359000Y-202932000D02*
X173580000Y-202932000D01*
X171098000Y-202892000D02*
X168289000Y-202892000D01*
X176389000Y-202892000D02*
X173580000Y-202892000D01*
X171098000Y-202852000D02*
X168259000Y-202852000D01*
X176419000Y-202852000D02*
X173580000Y-202852000D01*
X171098000Y-202812000D02*
X168229000Y-202812000D01*
X176449000Y-202812000D02*
X173580000Y-202812000D01*
X171098000Y-202772000D02*
X168201000Y-202772000D01*
X176477000Y-202772000D02*
X173580000Y-202772000D01*
X171098000Y-202732000D02*
X168173000Y-202732000D01*
X176505000Y-202732000D02*
X173580000Y-202732000D01*
X171098000Y-202692000D02*
X168145000Y-202692000D01*
X176533000Y-202692000D02*
X173580000Y-202692000D01*
X171098000Y-202652000D02*
X168118000Y-202652000D01*
X176560000Y-202652000D02*
X173580000Y-202652000D01*
X171098000Y-202612000D02*
X168092000Y-202612000D01*
X176586000Y-202612000D02*
X173580000Y-202612000D01*
X171098000Y-202572000D02*
X168066000Y-202572000D01*
X176612000Y-202572000D02*
X173580000Y-202572000D01*
X171098000Y-202532000D02*
X168041000Y-202532000D01*
X176637000Y-202532000D02*
X173580000Y-202532000D01*
X171098000Y-202492000D02*
X168016000Y-202492000D01*
X176662000Y-202492000D02*
X173580000Y-202492000D01*
X171098000Y-202452000D02*
X167992000Y-202452000D01*
X176686000Y-202452000D02*
X173580000Y-202452000D01*
X171098000Y-202412000D02*
X167968000Y-202412000D01*
X176710000Y-202412000D02*
X173580000Y-202412000D01*
X171098000Y-202372000D02*
X167944000Y-202372000D01*
X176734000Y-202372000D02*
X173580000Y-202372000D01*
X171098000Y-202332000D02*
X167922000Y-202332000D01*
X176756000Y-202332000D02*
X173580000Y-202332000D01*
X171098000Y-202292000D02*
X167899000Y-202292000D01*
X176779000Y-202292000D02*
X173580000Y-202292000D01*
X171098000Y-202252000D02*
X167877000Y-202252000D01*
X176801000Y-202252000D02*
X173580000Y-202252000D01*
X171098000Y-202212000D02*
X167856000Y-202212000D01*
X176822000Y-202212000D02*
X173580000Y-202212000D01*
X171098000Y-202172000D02*
X167835000Y-202172000D01*
X176843000Y-202172000D02*
X173580000Y-202172000D01*
X171098000Y-202132000D02*
X167814000Y-202132000D01*
X176864000Y-202132000D02*
X173580000Y-202132000D01*
X171098000Y-202092000D02*
X167794000Y-202092000D01*
X176884000Y-202092000D02*
X173580000Y-202092000D01*
X171098000Y-202052000D02*
X167775000Y-202052000D01*
X176903000Y-202052000D02*
X173580000Y-202052000D01*
X171098000Y-202012000D02*
X167755000Y-202012000D01*
X176923000Y-202012000D02*
X173580000Y-202012000D01*
X171098000Y-201972000D02*
X167736000Y-201972000D01*
X176942000Y-201972000D02*
X173580000Y-201972000D01*
X171098000Y-201932000D02*
X167718000Y-201932000D01*
X176960000Y-201932000D02*
X173580000Y-201932000D01*
X171098000Y-201892000D02*
X167700000Y-201892000D01*
X176978000Y-201892000D02*
X173580000Y-201892000D01*
X171098000Y-201852000D02*
X167682000Y-201852000D01*
X176996000Y-201852000D02*
X173580000Y-201852000D01*
X171098000Y-201812000D02*
X167665000Y-201812000D01*
X177013000Y-201812000D02*
X173580000Y-201812000D01*
X171098000Y-201772000D02*
X167649000Y-201772000D01*
X177029000Y-201772000D02*
X173580000Y-201772000D01*
X171098000Y-201732000D02*
X167632000Y-201732000D01*
X177046000Y-201732000D02*
X173580000Y-201732000D01*
X171098000Y-201692000D02*
X167616000Y-201692000D01*
X177062000Y-201692000D02*
X173580000Y-201692000D01*
X171098000Y-201652000D02*
X167601000Y-201652000D01*
X177077000Y-201652000D02*
X173580000Y-201652000D01*
X171098000Y-201612000D02*
X167585000Y-201612000D01*
X177093000Y-201612000D02*
X173580000Y-201612000D01*
X171098000Y-201572000D02*
X167571000Y-201572000D01*
X177107000Y-201572000D02*
X173580000Y-201572000D01*
X171098000Y-201532000D02*
X167556000Y-201532000D01*
X177122000Y-201532000D02*
X173580000Y-201532000D01*
X171098000Y-201492000D02*
X167542000Y-201492000D01*
X177136000Y-201492000D02*
X173580000Y-201492000D01*
X171098000Y-201452000D02*
X167528000Y-201452000D01*
X177150000Y-201452000D02*
X173580000Y-201452000D01*
X171098000Y-201412000D02*
X167515000Y-201412000D01*
X177163000Y-201412000D02*
X173580000Y-201412000D01*
X171098000Y-201372000D02*
X167502000Y-201372000D01*
X177176000Y-201372000D02*
X173580000Y-201372000D01*
X171098000Y-201332000D02*
X167489000Y-201332000D01*
X177189000Y-201332000D02*
X173580000Y-201332000D01*
X171098000Y-201292000D02*
X167477000Y-201292000D01*
X177201000Y-201292000D02*
X173580000Y-201292000D01*
X171098000Y-201252000D02*
X167465000Y-201252000D01*
X177213000Y-201252000D02*
X173580000Y-201252000D01*
X171098000Y-201212000D02*
X167454000Y-201212000D01*
X177224000Y-201212000D02*
X173580000Y-201212000D01*
X171098000Y-201172000D02*
X167442000Y-201172000D01*
X177236000Y-201172000D02*
X173580000Y-201172000D01*
X171098000Y-201132000D02*
X167432000Y-201132000D01*
X177246000Y-201132000D02*
X173580000Y-201132000D01*
X171098000Y-201092000D02*
X167421000Y-201092000D01*
X177257000Y-201092000D02*
X173580000Y-201092000D01*
X177267000Y-201052000D02*
X167411000Y-201052000D01*
X177277000Y-201012000D02*
X167401000Y-201012000D01*
X177286000Y-200972000D02*
X167392000Y-200972000D01*
X177295000Y-200932000D02*
X167383000Y-200932000D01*
X177304000Y-200892000D02*
X167374000Y-200892000D01*
X177313000Y-200852000D02*
X167365000Y-200852000D01*
X177321000Y-200812000D02*
X167357000Y-200812000D01*
X177329000Y-200772000D02*
X167349000Y-200772000D01*
X177336000Y-200732000D02*
X167342000Y-200732000D01*
X177343000Y-200692000D02*
X167335000Y-200692000D01*
X177350000Y-200652000D02*
X167328000Y-200652000D01*
X177357000Y-200612000D02*
X167321000Y-200612000D01*
X177363000Y-200572000D02*
X167315000Y-200572000D01*
X177369000Y-200532000D02*
X167309000Y-200532000D01*
X177374000Y-200491000D02*
X167304000Y-200491000D01*
X177379000Y-200451000D02*
X167299000Y-200451000D01*
X177384000Y-200411000D02*
X167294000Y-200411000D01*
X177389000Y-200371000D02*
X167289000Y-200371000D01*
X177393000Y-200331000D02*
X167285000Y-200331000D01*
X177397000Y-200291000D02*
X167281000Y-200291000D01*
X177401000Y-200251000D02*
X167277000Y-200251000D01*
X177404000Y-200211000D02*
X167274000Y-200211000D01*
X177407000Y-200171000D02*
X167271000Y-200171000D01*
X177409000Y-200131000D02*
X167269000Y-200131000D01*
X177412000Y-200091000D02*
X167266000Y-200091000D01*
X177414000Y-200051000D02*
X167264000Y-200051000D01*
X177416000Y-200011000D02*
X167262000Y-200011000D01*
X177417000Y-199971000D02*
X167261000Y-199971000D01*
X177418000Y-199931000D02*
X167260000Y-199931000D01*
X177419000Y-199891000D02*
X167259000Y-199891000D01*
X177419000Y-199851000D02*
X167259000Y-199851000D01*
X177419000Y-199811000D02*
X167259000Y-199811000D01*
X177459000Y-199811000D02*
G75*
G03*
X177459000Y-199811000I-5120000J0D01*
G01*
%TO.C,C13*%
X171550000Y-163773752D02*
X171550000Y-163251248D01*
X170080000Y-163773752D02*
X170080000Y-163251248D01*
%TO.C,C8*%
X136353733Y-64895000D02*
X136696267Y-64895000D01*
X136353733Y-65915000D02*
X136696267Y-65915000D01*
%TO.C,C9*%
X172548733Y-65915000D02*
X172891267Y-65915000D01*
X172548733Y-64895000D02*
X172891267Y-64895000D01*
%TO.C,C10*%
X210991267Y-65915000D02*
X210648733Y-65915000D01*
X210991267Y-64895000D02*
X210648733Y-64895000D01*
%TO.C,C11*%
X248748733Y-65915000D02*
X249091267Y-65915000D01*
X248748733Y-64895000D02*
X249091267Y-64895000D01*
%TO.C,U8*%
X132715000Y-67100000D02*
X129115000Y-67100000D01*
X132715000Y-67100000D02*
X134915000Y-67100000D01*
X132715000Y-73870000D02*
X130515000Y-73870000D01*
X132715000Y-73870000D02*
X134915000Y-73870000D01*
%TO.C,U9*%
X170815000Y-73870000D02*
X173015000Y-73870000D01*
X170815000Y-73870000D02*
X168615000Y-73870000D01*
X170815000Y-67100000D02*
X173015000Y-67100000D01*
X170815000Y-67100000D02*
X167215000Y-67100000D01*
%TO.C,U10*%
X208915000Y-73870000D02*
X211115000Y-73870000D01*
X208915000Y-73870000D02*
X206715000Y-73870000D01*
X208915000Y-67100000D02*
X211115000Y-67100000D01*
X208915000Y-67100000D02*
X205315000Y-67100000D01*
%TO.C,U11*%
X247015000Y-67100000D02*
X243415000Y-67100000D01*
X247015000Y-67100000D02*
X249215000Y-67100000D01*
X247015000Y-73870000D02*
X244815000Y-73870000D01*
X247015000Y-73870000D02*
X249215000Y-73870000D01*
%TO.C,X2*%
D15*
X161363380Y-119149523D02*
X162363380Y-118482857D01*
X161363380Y-118482857D02*
X162363380Y-119149523D01*
X161458619Y-118149523D02*
X161411000Y-118101904D01*
X161363380Y-118006666D01*
X161363380Y-117768571D01*
X161411000Y-117673333D01*
X161458619Y-117625714D01*
X161553857Y-117578095D01*
X161649095Y-117578095D01*
X161791952Y-117625714D01*
X162363380Y-118197142D01*
X162363380Y-117578095D01*
%TO.C,X3*%
X199463380Y-119149523D02*
X200463380Y-118482857D01*
X199463380Y-118482857D02*
X200463380Y-119149523D01*
X199463380Y-118197142D02*
X199463380Y-117578095D01*
X199844333Y-117911428D01*
X199844333Y-117768571D01*
X199891952Y-117673333D01*
X199939571Y-117625714D01*
X200034809Y-117578095D01*
X200272904Y-117578095D01*
X200368142Y-117625714D01*
X200415761Y-117673333D01*
X200463380Y-117768571D01*
X200463380Y-118054285D01*
X200415761Y-118149523D01*
X200368142Y-118197142D01*
%TO.C,X4*%
X237563380Y-119149523D02*
X238563380Y-118482857D01*
X237563380Y-118482857D02*
X238563380Y-119149523D01*
X237896714Y-117673333D02*
X238563380Y-117673333D01*
X237515761Y-117911428D02*
X238230047Y-118149523D01*
X238230047Y-117530476D01*
%TO.C,X5*%
X275663380Y-119149523D02*
X276663380Y-118482857D01*
X275663380Y-118482857D02*
X276663380Y-119149523D01*
X275663380Y-117625714D02*
X275663380Y-118101904D01*
X276139571Y-118149523D01*
X276091952Y-118101904D01*
X276044333Y-118006666D01*
X276044333Y-117768571D01*
X276091952Y-117673333D01*
X276139571Y-117625714D01*
X276234809Y-117578095D01*
X276472904Y-117578095D01*
X276568142Y-117625714D01*
X276615761Y-117673333D01*
X276663380Y-117768571D01*
X276663380Y-118006666D01*
X276615761Y-118101904D01*
X276568142Y-118149523D01*
%TO.C,D1*%
X187856904Y-203017380D02*
X187856904Y-202017380D01*
X188095000Y-202017380D01*
X188237857Y-202065000D01*
X188333095Y-202160238D01*
X188380714Y-202255476D01*
X188428333Y-202445952D01*
X188428333Y-202588809D01*
X188380714Y-202779285D01*
X188333095Y-202874523D01*
X188237857Y-202969761D01*
X188095000Y-203017380D01*
X187856904Y-203017380D01*
X189380714Y-203017380D02*
X188809285Y-203017380D01*
X189095000Y-203017380D02*
X189095000Y-202017380D01*
X188999761Y-202160238D01*
X188904523Y-202255476D01*
X188809285Y-202303095D01*
X195953095Y-205617380D02*
X195953095Y-204617380D01*
X196524523Y-205617380D02*
X196095952Y-205045952D01*
X196524523Y-204617380D02*
X195953095Y-205188809D01*
%TO.C,F1*%
X171243571Y-191087333D02*
X171243571Y-191420666D01*
X171767380Y-191420666D02*
X170767380Y-191420666D01*
X170767380Y-190944476D01*
X171767380Y-190039714D02*
X171767380Y-190611142D01*
X171767380Y-190325428D02*
X170767380Y-190325428D01*
X170910238Y-190420666D01*
X171005476Y-190515904D01*
X171053095Y-190611142D01*
%TO.C,J1*%
X241231666Y-220352380D02*
X241231666Y-221066666D01*
X241184047Y-221209523D01*
X241088809Y-221304761D01*
X240945952Y-221352380D01*
X240850714Y-221352380D01*
X242231666Y-221352380D02*
X241660238Y-221352380D01*
X241945952Y-221352380D02*
X241945952Y-220352380D01*
X241850714Y-220495238D01*
X241755476Y-220590476D01*
X241660238Y-220638095D01*
%TO.C,L1*%
X145883333Y-213857380D02*
X145407142Y-213857380D01*
X145407142Y-212857380D01*
X146740476Y-213857380D02*
X146169047Y-213857380D01*
X146454761Y-213857380D02*
X146454761Y-212857380D01*
X146359523Y-213000238D01*
X146264285Y-213095476D01*
X146169047Y-213143095D01*
%TO.C,RN1*%
X92667380Y-141660476D02*
X92191190Y-141993809D01*
X92667380Y-142231904D02*
X91667380Y-142231904D01*
X91667380Y-141850952D01*
X91715000Y-141755714D01*
X91762619Y-141708095D01*
X91857857Y-141660476D01*
X92000714Y-141660476D01*
X92095952Y-141708095D01*
X92143571Y-141755714D01*
X92191190Y-141850952D01*
X92191190Y-142231904D01*
X92667380Y-141231904D02*
X91667380Y-141231904D01*
X92667380Y-140660476D01*
X91667380Y-140660476D01*
X92667380Y-139660476D02*
X92667380Y-140231904D01*
X92667380Y-139946190D02*
X91667380Y-139946190D01*
X91810238Y-140041428D01*
X91905476Y-140136666D01*
X91953095Y-140231904D01*
%TO.C,RN2*%
X130767380Y-118165476D02*
X130291190Y-118498809D01*
X130767380Y-118736904D02*
X129767380Y-118736904D01*
X129767380Y-118355952D01*
X129815000Y-118260714D01*
X129862619Y-118213095D01*
X129957857Y-118165476D01*
X130100714Y-118165476D01*
X130195952Y-118213095D01*
X130243571Y-118260714D01*
X130291190Y-118355952D01*
X130291190Y-118736904D01*
X130767380Y-117736904D02*
X129767380Y-117736904D01*
X130767380Y-117165476D01*
X129767380Y-117165476D01*
X129862619Y-116736904D02*
X129815000Y-116689285D01*
X129767380Y-116594047D01*
X129767380Y-116355952D01*
X129815000Y-116260714D01*
X129862619Y-116213095D01*
X129957857Y-116165476D01*
X130053095Y-116165476D01*
X130195952Y-116213095D01*
X130767380Y-116784523D01*
X130767380Y-116165476D01*
%TO.C,RN3*%
X168867380Y-118165476D02*
X168391190Y-118498809D01*
X168867380Y-118736904D02*
X167867380Y-118736904D01*
X167867380Y-118355952D01*
X167915000Y-118260714D01*
X167962619Y-118213095D01*
X168057857Y-118165476D01*
X168200714Y-118165476D01*
X168295952Y-118213095D01*
X168343571Y-118260714D01*
X168391190Y-118355952D01*
X168391190Y-118736904D01*
X168867380Y-117736904D02*
X167867380Y-117736904D01*
X168867380Y-117165476D01*
X167867380Y-117165476D01*
X167867380Y-116784523D02*
X167867380Y-116165476D01*
X168248333Y-116498809D01*
X168248333Y-116355952D01*
X168295952Y-116260714D01*
X168343571Y-116213095D01*
X168438809Y-116165476D01*
X168676904Y-116165476D01*
X168772142Y-116213095D01*
X168819761Y-116260714D01*
X168867380Y-116355952D01*
X168867380Y-116641666D01*
X168819761Y-116736904D01*
X168772142Y-116784523D01*
%TO.C,RN4*%
X206967380Y-118165476D02*
X206491190Y-118498809D01*
X206967380Y-118736904D02*
X205967380Y-118736904D01*
X205967380Y-118355952D01*
X206015000Y-118260714D01*
X206062619Y-118213095D01*
X206157857Y-118165476D01*
X206300714Y-118165476D01*
X206395952Y-118213095D01*
X206443571Y-118260714D01*
X206491190Y-118355952D01*
X206491190Y-118736904D01*
X206967380Y-117736904D02*
X205967380Y-117736904D01*
X206967380Y-117165476D01*
X205967380Y-117165476D01*
X206300714Y-116260714D02*
X206967380Y-116260714D01*
X205919761Y-116498809D02*
X206634047Y-116736904D01*
X206634047Y-116117857D01*
%TO.C,RN5*%
X245067380Y-118165476D02*
X244591190Y-118498809D01*
X245067380Y-118736904D02*
X244067380Y-118736904D01*
X244067380Y-118355952D01*
X244115000Y-118260714D01*
X244162619Y-118213095D01*
X244257857Y-118165476D01*
X244400714Y-118165476D01*
X244495952Y-118213095D01*
X244543571Y-118260714D01*
X244591190Y-118355952D01*
X244591190Y-118736904D01*
X245067380Y-117736904D02*
X244067380Y-117736904D01*
X245067380Y-117165476D01*
X244067380Y-117165476D01*
X244067380Y-116213095D02*
X244067380Y-116689285D01*
X244543571Y-116736904D01*
X244495952Y-116689285D01*
X244448333Y-116594047D01*
X244448333Y-116355952D01*
X244495952Y-116260714D01*
X244543571Y-116213095D01*
X244638809Y-116165476D01*
X244876904Y-116165476D01*
X244972142Y-116213095D01*
X245019761Y-116260714D01*
X245067380Y-116355952D01*
X245067380Y-116594047D01*
X245019761Y-116689285D01*
X244972142Y-116736904D01*
%TO.C,SW2*%
X158309761Y-197548333D02*
X158357380Y-197405476D01*
X158357380Y-197167380D01*
X158309761Y-197072142D01*
X158262142Y-197024523D01*
X158166904Y-196976904D01*
X158071666Y-196976904D01*
X157976428Y-197024523D01*
X157928809Y-197072142D01*
X157881190Y-197167380D01*
X157833571Y-197357857D01*
X157785952Y-197453095D01*
X157738333Y-197500714D01*
X157643095Y-197548333D01*
X157547857Y-197548333D01*
X157452619Y-197500714D01*
X157405000Y-197453095D01*
X157357380Y-197357857D01*
X157357380Y-197119761D01*
X157405000Y-196976904D01*
X157357380Y-196643571D02*
X158357380Y-196405476D01*
X157643095Y-196215000D01*
X158357380Y-196024523D01*
X157357380Y-195786428D01*
X157452619Y-195453095D02*
X157405000Y-195405476D01*
X157357380Y-195310238D01*
X157357380Y-195072142D01*
X157405000Y-194976904D01*
X157452619Y-194929285D01*
X157547857Y-194881666D01*
X157643095Y-194881666D01*
X157785952Y-194929285D01*
X158357380Y-195500714D01*
X158357380Y-194881666D01*
%TO.C,SW3*%
X195139761Y-197548333D02*
X195187380Y-197405476D01*
X195187380Y-197167380D01*
X195139761Y-197072142D01*
X195092142Y-197024523D01*
X194996904Y-196976904D01*
X194901666Y-196976904D01*
X194806428Y-197024523D01*
X194758809Y-197072142D01*
X194711190Y-197167380D01*
X194663571Y-197357857D01*
X194615952Y-197453095D01*
X194568333Y-197500714D01*
X194473095Y-197548333D01*
X194377857Y-197548333D01*
X194282619Y-197500714D01*
X194235000Y-197453095D01*
X194187380Y-197357857D01*
X194187380Y-197119761D01*
X194235000Y-196976904D01*
X194187380Y-196643571D02*
X195187380Y-196405476D01*
X194473095Y-196215000D01*
X195187380Y-196024523D01*
X194187380Y-195786428D01*
X194187380Y-195500714D02*
X194187380Y-194881666D01*
X194568333Y-195215000D01*
X194568333Y-195072142D01*
X194615952Y-194976904D01*
X194663571Y-194929285D01*
X194758809Y-194881666D01*
X194996904Y-194881666D01*
X195092142Y-194929285D01*
X195139761Y-194976904D01*
X195187380Y-195072142D01*
X195187380Y-195357857D01*
X195139761Y-195453095D01*
X195092142Y-195500714D01*
%TO.C,SW4*%
X233239761Y-197548333D02*
X233287380Y-197405476D01*
X233287380Y-197167380D01*
X233239761Y-197072142D01*
X233192142Y-197024523D01*
X233096904Y-196976904D01*
X233001666Y-196976904D01*
X232906428Y-197024523D01*
X232858809Y-197072142D01*
X232811190Y-197167380D01*
X232763571Y-197357857D01*
X232715952Y-197453095D01*
X232668333Y-197500714D01*
X232573095Y-197548333D01*
X232477857Y-197548333D01*
X232382619Y-197500714D01*
X232335000Y-197453095D01*
X232287380Y-197357857D01*
X232287380Y-197119761D01*
X232335000Y-196976904D01*
X232287380Y-196643571D02*
X233287380Y-196405476D01*
X232573095Y-196215000D01*
X233287380Y-196024523D01*
X232287380Y-195786428D01*
X232620714Y-194976904D02*
X233287380Y-194976904D01*
X232239761Y-195215000D02*
X232954047Y-195453095D01*
X232954047Y-194834047D01*
%TO.C,SW5*%
X271339761Y-197548333D02*
X271387380Y-197405476D01*
X271387380Y-197167380D01*
X271339761Y-197072142D01*
X271292142Y-197024523D01*
X271196904Y-196976904D01*
X271101666Y-196976904D01*
X271006428Y-197024523D01*
X270958809Y-197072142D01*
X270911190Y-197167380D01*
X270863571Y-197357857D01*
X270815952Y-197453095D01*
X270768333Y-197500714D01*
X270673095Y-197548333D01*
X270577857Y-197548333D01*
X270482619Y-197500714D01*
X270435000Y-197453095D01*
X270387380Y-197357857D01*
X270387380Y-197119761D01*
X270435000Y-196976904D01*
X270387380Y-196643571D02*
X271387380Y-196405476D01*
X270673095Y-196215000D01*
X271387380Y-196024523D01*
X270387380Y-195786428D01*
X270387380Y-194929285D02*
X270387380Y-195405476D01*
X270863571Y-195453095D01*
X270815952Y-195405476D01*
X270768333Y-195310238D01*
X270768333Y-195072142D01*
X270815952Y-194976904D01*
X270863571Y-194929285D01*
X270958809Y-194881666D01*
X271196904Y-194881666D01*
X271292142Y-194929285D01*
X271339761Y-194976904D01*
X271387380Y-195072142D01*
X271387380Y-195310238D01*
X271339761Y-195405476D01*
X271292142Y-195453095D01*
%TO.C,U1*%
X108458095Y-88152380D02*
X108458095Y-88961904D01*
X108505714Y-89057142D01*
X108553333Y-89104761D01*
X108648571Y-89152380D01*
X108839047Y-89152380D01*
X108934285Y-89104761D01*
X108981904Y-89057142D01*
X109029523Y-88961904D01*
X109029523Y-88152380D01*
X110029523Y-89152380D02*
X109458095Y-89152380D01*
X109743809Y-89152380D02*
X109743809Y-88152380D01*
X109648571Y-88295238D01*
X109553333Y-88390476D01*
X109458095Y-88438095D01*
%TO.C,U2*%
X108458095Y-76722380D02*
X108458095Y-77531904D01*
X108505714Y-77627142D01*
X108553333Y-77674761D01*
X108648571Y-77722380D01*
X108839047Y-77722380D01*
X108934285Y-77674761D01*
X108981904Y-77627142D01*
X109029523Y-77531904D01*
X109029523Y-76722380D01*
X109458095Y-76817619D02*
X109505714Y-76770000D01*
X109600952Y-76722380D01*
X109839047Y-76722380D01*
X109934285Y-76770000D01*
X109981904Y-76817619D01*
X110029523Y-76912857D01*
X110029523Y-77008095D01*
X109981904Y-77150952D01*
X109410476Y-77722380D01*
X110029523Y-77722380D01*
%TO.C,U3*%
X109093095Y-100052380D02*
X109093095Y-100861904D01*
X109140714Y-100957142D01*
X109188333Y-101004761D01*
X109283571Y-101052380D01*
X109474047Y-101052380D01*
X109569285Y-101004761D01*
X109616904Y-100957142D01*
X109664523Y-100861904D01*
X109664523Y-100052380D01*
X110045476Y-100052380D02*
X110664523Y-100052380D01*
X110331190Y-100433333D01*
X110474047Y-100433333D01*
X110569285Y-100480952D01*
X110616904Y-100528571D01*
X110664523Y-100623809D01*
X110664523Y-100861904D01*
X110616904Y-100957142D01*
X110569285Y-101004761D01*
X110474047Y-101052380D01*
X110188333Y-101052380D01*
X110093095Y-101004761D01*
X110045476Y-100957142D01*
%TO.C,U4*%
X109093095Y-151582380D02*
X109093095Y-152391904D01*
X109140714Y-152487142D01*
X109188333Y-152534761D01*
X109283571Y-152582380D01*
X109474047Y-152582380D01*
X109569285Y-152534761D01*
X109616904Y-152487142D01*
X109664523Y-152391904D01*
X109664523Y-151582380D01*
X110569285Y-151915714D02*
X110569285Y-152582380D01*
X110331190Y-151534761D02*
X110093095Y-152249047D01*
X110712142Y-152249047D01*
%TO.C,U5*%
X109093095Y-133802380D02*
X109093095Y-134611904D01*
X109140714Y-134707142D01*
X109188333Y-134754761D01*
X109283571Y-134802380D01*
X109474047Y-134802380D01*
X109569285Y-134754761D01*
X109616904Y-134707142D01*
X109664523Y-134611904D01*
X109664523Y-133802380D01*
X110616904Y-133802380D02*
X110140714Y-133802380D01*
X110093095Y-134278571D01*
X110140714Y-134230952D01*
X110235952Y-134183333D01*
X110474047Y-134183333D01*
X110569285Y-134230952D01*
X110616904Y-134278571D01*
X110664523Y-134373809D01*
X110664523Y-134611904D01*
X110616904Y-134707142D01*
X110569285Y-134754761D01*
X110474047Y-134802380D01*
X110235952Y-134802380D01*
X110140714Y-134754761D01*
X110093095Y-134707142D01*
%TO.C,U6*%
X117221095Y-80700880D02*
X117221095Y-81510404D01*
X117268714Y-81605642D01*
X117316333Y-81653261D01*
X117411571Y-81700880D01*
X117602047Y-81700880D01*
X117697285Y-81653261D01*
X117744904Y-81605642D01*
X117792523Y-81510404D01*
X117792523Y-80700880D01*
X118697285Y-80700880D02*
X118506809Y-80700880D01*
X118411571Y-80748500D01*
X118363952Y-80796119D01*
X118268714Y-80938976D01*
X118221095Y-81129452D01*
X118221095Y-81510404D01*
X118268714Y-81605642D01*
X118316333Y-81653261D01*
X118411571Y-81700880D01*
X118602047Y-81700880D01*
X118697285Y-81653261D01*
X118744904Y-81605642D01*
X118792523Y-81510404D01*
X118792523Y-81272309D01*
X118744904Y-81177071D01*
X118697285Y-81129452D01*
X118602047Y-81081833D01*
X118411571Y-81081833D01*
X118316333Y-81129452D01*
X118268714Y-81177071D01*
X118221095Y-81272309D01*
%TO.C,U7*%
X170018595Y-213907380D02*
X170018595Y-214716904D01*
X170066214Y-214812142D01*
X170113833Y-214859761D01*
X170209071Y-214907380D01*
X170399547Y-214907380D01*
X170494785Y-214859761D01*
X170542404Y-214812142D01*
X170590023Y-214716904D01*
X170590023Y-213907380D01*
X170970976Y-213907380D02*
X171637642Y-213907380D01*
X171209071Y-214907380D01*
%TO.C,C1*%
X202387142Y-204041666D02*
X202434761Y-204089285D01*
X202482380Y-204232142D01*
X202482380Y-204327380D01*
X202434761Y-204470238D01*
X202339523Y-204565476D01*
X202244285Y-204613095D01*
X202053809Y-204660714D01*
X201910952Y-204660714D01*
X201720476Y-204613095D01*
X201625238Y-204565476D01*
X201530000Y-204470238D01*
X201482380Y-204327380D01*
X201482380Y-204232142D01*
X201530000Y-204089285D01*
X201577619Y-204041666D01*
X202482380Y-203089285D02*
X202482380Y-203660714D01*
X202482380Y-203375000D02*
X201482380Y-203375000D01*
X201625238Y-203470238D01*
X201720476Y-203565476D01*
X201768095Y-203660714D01*
%TO.C,J2*%
X97159380Y-69929333D02*
X97873666Y-69929333D01*
X98016523Y-69976952D01*
X98111761Y-70072190D01*
X98159380Y-70215047D01*
X98159380Y-70310285D01*
X97254619Y-69500761D02*
X97207000Y-69453142D01*
X97159380Y-69357904D01*
X97159380Y-69119809D01*
X97207000Y-69024571D01*
X97254619Y-68976952D01*
X97349857Y-68929333D01*
X97445095Y-68929333D01*
X97587952Y-68976952D01*
X98159380Y-69548380D01*
X98159380Y-68929333D01*
%TO.C,SW1*%
X207506666Y-219804761D02*
X207649523Y-219852380D01*
X207887619Y-219852380D01*
X207982857Y-219804761D01*
X208030476Y-219757142D01*
X208078095Y-219661904D01*
X208078095Y-219566666D01*
X208030476Y-219471428D01*
X207982857Y-219423809D01*
X207887619Y-219376190D01*
X207697142Y-219328571D01*
X207601904Y-219280952D01*
X207554285Y-219233333D01*
X207506666Y-219138095D01*
X207506666Y-219042857D01*
X207554285Y-218947619D01*
X207601904Y-218900000D01*
X207697142Y-218852380D01*
X207935238Y-218852380D01*
X208078095Y-218900000D01*
X208411428Y-218852380D02*
X208649523Y-219852380D01*
X208840000Y-219138095D01*
X209030476Y-219852380D01*
X209268571Y-218852380D01*
X210173333Y-219852380D02*
X209601904Y-219852380D01*
X209887619Y-219852380D02*
X209887619Y-218852380D01*
X209792380Y-218995238D01*
X209697142Y-219090476D01*
X209601904Y-219138095D01*
%TO.C,C16*%
X114927142Y-157582142D02*
X114879523Y-157629761D01*
X114736666Y-157677380D01*
X114641428Y-157677380D01*
X114498571Y-157629761D01*
X114403333Y-157534523D01*
X114355714Y-157439285D01*
X114308095Y-157248809D01*
X114308095Y-157105952D01*
X114355714Y-156915476D01*
X114403333Y-156820238D01*
X114498571Y-156725000D01*
X114641428Y-156677380D01*
X114736666Y-156677380D01*
X114879523Y-156725000D01*
X114927142Y-156772619D01*
X115879523Y-157677380D02*
X115308095Y-157677380D01*
X115593809Y-157677380D02*
X115593809Y-156677380D01*
X115498571Y-156820238D01*
X115403333Y-156915476D01*
X115308095Y-156963095D01*
X116736666Y-156677380D02*
X116546190Y-156677380D01*
X116450952Y-156725000D01*
X116403333Y-156772619D01*
X116308095Y-156915476D01*
X116260476Y-157105952D01*
X116260476Y-157486904D01*
X116308095Y-157582142D01*
X116355714Y-157629761D01*
X116450952Y-157677380D01*
X116641428Y-157677380D01*
X116736666Y-157629761D01*
X116784285Y-157582142D01*
X116831904Y-157486904D01*
X116831904Y-157248809D01*
X116784285Y-157153571D01*
X116736666Y-157105952D01*
X116641428Y-157058333D01*
X116450952Y-157058333D01*
X116355714Y-157105952D01*
X116308095Y-157153571D01*
X116260476Y-157248809D01*
%TO.C,C12*%
X178946142Y-200453857D02*
X178993761Y-200501476D01*
X179041380Y-200644333D01*
X179041380Y-200739571D01*
X178993761Y-200882428D01*
X178898523Y-200977666D01*
X178803285Y-201025285D01*
X178612809Y-201072904D01*
X178469952Y-201072904D01*
X178279476Y-201025285D01*
X178184238Y-200977666D01*
X178089000Y-200882428D01*
X178041380Y-200739571D01*
X178041380Y-200644333D01*
X178089000Y-200501476D01*
X178136619Y-200453857D01*
X179041380Y-199501476D02*
X179041380Y-200072904D01*
X179041380Y-199787190D02*
X178041380Y-199787190D01*
X178184238Y-199882428D01*
X178279476Y-199977666D01*
X178327095Y-200072904D01*
X178136619Y-199120523D02*
X178089000Y-199072904D01*
X178041380Y-198977666D01*
X178041380Y-198739571D01*
X178089000Y-198644333D01*
X178136619Y-198596714D01*
X178231857Y-198549095D01*
X178327095Y-198549095D01*
X178469952Y-198596714D01*
X179041380Y-199168142D01*
X179041380Y-198549095D01*
%TO.C,C13*%
X169492142Y-164155357D02*
X169539761Y-164202976D01*
X169587380Y-164345833D01*
X169587380Y-164441071D01*
X169539761Y-164583928D01*
X169444523Y-164679166D01*
X169349285Y-164726785D01*
X169158809Y-164774404D01*
X169015952Y-164774404D01*
X168825476Y-164726785D01*
X168730238Y-164679166D01*
X168635000Y-164583928D01*
X168587380Y-164441071D01*
X168587380Y-164345833D01*
X168635000Y-164202976D01*
X168682619Y-164155357D01*
X169587380Y-163202976D02*
X169587380Y-163774404D01*
X169587380Y-163488690D02*
X168587380Y-163488690D01*
X168730238Y-163583928D01*
X168825476Y-163679166D01*
X168873095Y-163774404D01*
X168587380Y-162869642D02*
X168587380Y-162250595D01*
X168968333Y-162583928D01*
X168968333Y-162441071D01*
X169015952Y-162345833D01*
X169063571Y-162298214D01*
X169158809Y-162250595D01*
X169396904Y-162250595D01*
X169492142Y-162298214D01*
X169539761Y-162345833D01*
X169587380Y-162441071D01*
X169587380Y-162726785D01*
X169539761Y-162822023D01*
X169492142Y-162869642D01*
%TO.C,C8*%
X136358333Y-64332142D02*
X136310714Y-64379761D01*
X136167857Y-64427380D01*
X136072619Y-64427380D01*
X135929761Y-64379761D01*
X135834523Y-64284523D01*
X135786904Y-64189285D01*
X135739285Y-63998809D01*
X135739285Y-63855952D01*
X135786904Y-63665476D01*
X135834523Y-63570238D01*
X135929761Y-63475000D01*
X136072619Y-63427380D01*
X136167857Y-63427380D01*
X136310714Y-63475000D01*
X136358333Y-63522619D01*
X136929761Y-63855952D02*
X136834523Y-63808333D01*
X136786904Y-63760714D01*
X136739285Y-63665476D01*
X136739285Y-63617857D01*
X136786904Y-63522619D01*
X136834523Y-63475000D01*
X136929761Y-63427380D01*
X137120238Y-63427380D01*
X137215476Y-63475000D01*
X137263095Y-63522619D01*
X137310714Y-63617857D01*
X137310714Y-63665476D01*
X137263095Y-63760714D01*
X137215476Y-63808333D01*
X137120238Y-63855952D01*
X136929761Y-63855952D01*
X136834523Y-63903571D01*
X136786904Y-63951190D01*
X136739285Y-64046428D01*
X136739285Y-64236904D01*
X136786904Y-64332142D01*
X136834523Y-64379761D01*
X136929761Y-64427380D01*
X137120238Y-64427380D01*
X137215476Y-64379761D01*
X137263095Y-64332142D01*
X137310714Y-64236904D01*
X137310714Y-64046428D01*
X137263095Y-63951190D01*
X137215476Y-63903571D01*
X137120238Y-63855952D01*
%TO.C,C9*%
X172553333Y-64332142D02*
X172505714Y-64379761D01*
X172362857Y-64427380D01*
X172267619Y-64427380D01*
X172124761Y-64379761D01*
X172029523Y-64284523D01*
X171981904Y-64189285D01*
X171934285Y-63998809D01*
X171934285Y-63855952D01*
X171981904Y-63665476D01*
X172029523Y-63570238D01*
X172124761Y-63475000D01*
X172267619Y-63427380D01*
X172362857Y-63427380D01*
X172505714Y-63475000D01*
X172553333Y-63522619D01*
X173029523Y-64427380D02*
X173220000Y-64427380D01*
X173315238Y-64379761D01*
X173362857Y-64332142D01*
X173458095Y-64189285D01*
X173505714Y-63998809D01*
X173505714Y-63617857D01*
X173458095Y-63522619D01*
X173410476Y-63475000D01*
X173315238Y-63427380D01*
X173124761Y-63427380D01*
X173029523Y-63475000D01*
X172981904Y-63522619D01*
X172934285Y-63617857D01*
X172934285Y-63855952D01*
X172981904Y-63951190D01*
X173029523Y-63998809D01*
X173124761Y-64046428D01*
X173315238Y-64046428D01*
X173410476Y-63998809D01*
X173458095Y-63951190D01*
X173505714Y-63855952D01*
%TO.C,C10*%
X210177142Y-64492142D02*
X210129523Y-64539761D01*
X209986666Y-64587380D01*
X209891428Y-64587380D01*
X209748571Y-64539761D01*
X209653333Y-64444523D01*
X209605714Y-64349285D01*
X209558095Y-64158809D01*
X209558095Y-64015952D01*
X209605714Y-63825476D01*
X209653333Y-63730238D01*
X209748571Y-63635000D01*
X209891428Y-63587380D01*
X209986666Y-63587380D01*
X210129523Y-63635000D01*
X210177142Y-63682619D01*
X211129523Y-64587380D02*
X210558095Y-64587380D01*
X210843809Y-64587380D02*
X210843809Y-63587380D01*
X210748571Y-63730238D01*
X210653333Y-63825476D01*
X210558095Y-63873095D01*
X211748571Y-63587380D02*
X211843809Y-63587380D01*
X211939047Y-63635000D01*
X211986666Y-63682619D01*
X212034285Y-63777857D01*
X212081904Y-63968333D01*
X212081904Y-64206428D01*
X212034285Y-64396904D01*
X211986666Y-64492142D01*
X211939047Y-64539761D01*
X211843809Y-64587380D01*
X211748571Y-64587380D01*
X211653333Y-64539761D01*
X211605714Y-64492142D01*
X211558095Y-64396904D01*
X211510476Y-64206428D01*
X211510476Y-63968333D01*
X211558095Y-63777857D01*
X211605714Y-63682619D01*
X211653333Y-63635000D01*
X211748571Y-63587380D01*
%TO.C,C11*%
X248277142Y-64332142D02*
X248229523Y-64379761D01*
X248086666Y-64427380D01*
X247991428Y-64427380D01*
X247848571Y-64379761D01*
X247753333Y-64284523D01*
X247705714Y-64189285D01*
X247658095Y-63998809D01*
X247658095Y-63855952D01*
X247705714Y-63665476D01*
X247753333Y-63570238D01*
X247848571Y-63475000D01*
X247991428Y-63427380D01*
X248086666Y-63427380D01*
X248229523Y-63475000D01*
X248277142Y-63522619D01*
X249229523Y-64427380D02*
X248658095Y-64427380D01*
X248943809Y-64427380D02*
X248943809Y-63427380D01*
X248848571Y-63570238D01*
X248753333Y-63665476D01*
X248658095Y-63713095D01*
X250181904Y-64427380D02*
X249610476Y-64427380D01*
X249896190Y-64427380D02*
X249896190Y-63427380D01*
X249800952Y-63570238D01*
X249705714Y-63665476D01*
X249610476Y-63713095D01*
%TO.C,U8*%
X131953095Y-65737380D02*
X131953095Y-66546904D01*
X132000714Y-66642142D01*
X132048333Y-66689761D01*
X132143571Y-66737380D01*
X132334047Y-66737380D01*
X132429285Y-66689761D01*
X132476904Y-66642142D01*
X132524523Y-66546904D01*
X132524523Y-65737380D01*
X133143571Y-66165952D02*
X133048333Y-66118333D01*
X133000714Y-66070714D01*
X132953095Y-65975476D01*
X132953095Y-65927857D01*
X133000714Y-65832619D01*
X133048333Y-65785000D01*
X133143571Y-65737380D01*
X133334047Y-65737380D01*
X133429285Y-65785000D01*
X133476904Y-65832619D01*
X133524523Y-65927857D01*
X133524523Y-65975476D01*
X133476904Y-66070714D01*
X133429285Y-66118333D01*
X133334047Y-66165952D01*
X133143571Y-66165952D01*
X133048333Y-66213571D01*
X133000714Y-66261190D01*
X132953095Y-66356428D01*
X132953095Y-66546904D01*
X133000714Y-66642142D01*
X133048333Y-66689761D01*
X133143571Y-66737380D01*
X133334047Y-66737380D01*
X133429285Y-66689761D01*
X133476904Y-66642142D01*
X133524523Y-66546904D01*
X133524523Y-66356428D01*
X133476904Y-66261190D01*
X133429285Y-66213571D01*
X133334047Y-66165952D01*
%TO.C,U9*%
X170053095Y-65737380D02*
X170053095Y-66546904D01*
X170100714Y-66642142D01*
X170148333Y-66689761D01*
X170243571Y-66737380D01*
X170434047Y-66737380D01*
X170529285Y-66689761D01*
X170576904Y-66642142D01*
X170624523Y-66546904D01*
X170624523Y-65737380D01*
X171148333Y-66737380D02*
X171338809Y-66737380D01*
X171434047Y-66689761D01*
X171481666Y-66642142D01*
X171576904Y-66499285D01*
X171624523Y-66308809D01*
X171624523Y-65927857D01*
X171576904Y-65832619D01*
X171529285Y-65785000D01*
X171434047Y-65737380D01*
X171243571Y-65737380D01*
X171148333Y-65785000D01*
X171100714Y-65832619D01*
X171053095Y-65927857D01*
X171053095Y-66165952D01*
X171100714Y-66261190D01*
X171148333Y-66308809D01*
X171243571Y-66356428D01*
X171434047Y-66356428D01*
X171529285Y-66308809D01*
X171576904Y-66261190D01*
X171624523Y-66165952D01*
%TO.C,U10*%
X207676904Y-65737380D02*
X207676904Y-66546904D01*
X207724523Y-66642142D01*
X207772142Y-66689761D01*
X207867380Y-66737380D01*
X208057857Y-66737380D01*
X208153095Y-66689761D01*
X208200714Y-66642142D01*
X208248333Y-66546904D01*
X208248333Y-65737380D01*
X209248333Y-66737380D02*
X208676904Y-66737380D01*
X208962619Y-66737380D02*
X208962619Y-65737380D01*
X208867380Y-65880238D01*
X208772142Y-65975476D01*
X208676904Y-66023095D01*
X209867380Y-65737380D02*
X209962619Y-65737380D01*
X210057857Y-65785000D01*
X210105476Y-65832619D01*
X210153095Y-65927857D01*
X210200714Y-66118333D01*
X210200714Y-66356428D01*
X210153095Y-66546904D01*
X210105476Y-66642142D01*
X210057857Y-66689761D01*
X209962619Y-66737380D01*
X209867380Y-66737380D01*
X209772142Y-66689761D01*
X209724523Y-66642142D01*
X209676904Y-66546904D01*
X209629285Y-66356428D01*
X209629285Y-66118333D01*
X209676904Y-65927857D01*
X209724523Y-65832619D01*
X209772142Y-65785000D01*
X209867380Y-65737380D01*
%TO.C,U11*%
X245776904Y-65737380D02*
X245776904Y-66546904D01*
X245824523Y-66642142D01*
X245872142Y-66689761D01*
X245967380Y-66737380D01*
X246157857Y-66737380D01*
X246253095Y-66689761D01*
X246300714Y-66642142D01*
X246348333Y-66546904D01*
X246348333Y-65737380D01*
X247348333Y-66737380D02*
X246776904Y-66737380D01*
X247062619Y-66737380D02*
X247062619Y-65737380D01*
X246967380Y-65880238D01*
X246872142Y-65975476D01*
X246776904Y-66023095D01*
X248300714Y-66737380D02*
X247729285Y-66737380D01*
X248015000Y-66737380D02*
X248015000Y-65737380D01*
X247919761Y-65880238D01*
X247824523Y-65975476D01*
X247729285Y-66023095D01*
%TD*%
M02*
