%FSLAX45Y45*%
G04 Gerber Fmt 4.5, Leading zero omitted, Abs format (unit mm)*
G04 Created by KiCad (PCBNEW (5.1.10)-1) date 2022-09-02 18:37:05*
%MOMM*%
%LPD*%
G01*
G04 APERTURE LIST*
%TA.AperFunction,Profile*%
%ADD10C,0.025000*%
%TD*%
%ADD11C,0.200000*%
%ADD12C,0.300000*%
G04 APERTURE END LIST*
D10*
X13398500Y-4896000D02*
X28384500Y-4896000D01*
X13398500Y-4896000D02*
X13398500Y-6096000D01*
X13398500Y-22296000D02*
X13398500Y-16296000D01*
X13398500Y-16296000D02*
X7555862Y-16296000D01*
X13398500Y-6096000D02*
X7555899Y-6096000D01*
X28384500Y-22296000D02*
X28384500Y-4896000D01*
X13398500Y-22296000D02*
X28384500Y-22296000D01*
D11*
D12*
X6748609Y-22762964D02*
X6748609Y-22462964D01*
X6820038Y-22462964D01*
X6862895Y-22477250D01*
X6891467Y-22505821D01*
X6905752Y-22534393D01*
X6920038Y-22591536D01*
X6920038Y-22634393D01*
X6905752Y-22691536D01*
X6891467Y-22720107D01*
X6862895Y-22748679D01*
X6820038Y-22762964D01*
X6748609Y-22762964D01*
X7048609Y-22762964D02*
X7048609Y-22562964D01*
X7048609Y-22620107D02*
X7062895Y-22591536D01*
X7077181Y-22577250D01*
X7105752Y-22562964D01*
X7134324Y-22562964D01*
X7234324Y-22762964D02*
X7234324Y-22562964D01*
X7234324Y-22462964D02*
X7220038Y-22477250D01*
X7234324Y-22491536D01*
X7248609Y-22477250D01*
X7234324Y-22462964D01*
X7234324Y-22491536D01*
X7420038Y-22762964D02*
X7391467Y-22748679D01*
X7377181Y-22720107D01*
X7377181Y-22462964D01*
X7577181Y-22762964D02*
X7548609Y-22748679D01*
X7534324Y-22720107D01*
X7534324Y-22462964D01*
X7920038Y-22762964D02*
X7920038Y-22462964D01*
X8020038Y-22677250D01*
X8120038Y-22462964D01*
X8120038Y-22762964D01*
X8391467Y-22762964D02*
X8391467Y-22605821D01*
X8377181Y-22577250D01*
X8348609Y-22562964D01*
X8291467Y-22562964D01*
X8262895Y-22577250D01*
X8391467Y-22748679D02*
X8362895Y-22762964D01*
X8291467Y-22762964D01*
X8262895Y-22748679D01*
X8248609Y-22720107D01*
X8248609Y-22691536D01*
X8262895Y-22662964D01*
X8291467Y-22648679D01*
X8362895Y-22648679D01*
X8391467Y-22634393D01*
X8534324Y-22562964D02*
X8534324Y-22862964D01*
X8534324Y-22577250D02*
X8562895Y-22562964D01*
X8620038Y-22562964D01*
X8648609Y-22577250D01*
X8662895Y-22591536D01*
X8677181Y-22620107D01*
X8677181Y-22705821D01*
X8662895Y-22734393D01*
X8648609Y-22748679D01*
X8620038Y-22762964D01*
X8562895Y-22762964D01*
X8534324Y-22748679D01*
X8805752Y-22734393D02*
X8820038Y-22748679D01*
X8805752Y-22762964D01*
X8791467Y-22748679D01*
X8805752Y-22734393D01*
X8805752Y-22762964D01*
X8805752Y-22577250D02*
X8820038Y-22591536D01*
X8805752Y-22605821D01*
X8791467Y-22591536D01*
X8805752Y-22577250D01*
X8805752Y-22605821D01*
M02*
