%TF.GenerationSoftware,KiCad,Pcbnew,(5.1.10)-1*%
%TF.CreationDate,2022-08-24T18:43:54-04:00*%
%TF.ProjectId,VIC-20-Rear-Expander,5649432d-3230-42d5-9265-61722d457870,2*%
%TF.SameCoordinates,Original*%
%TF.FileFunction,Profile,NP*%
%FSLAX46Y46*%
G04 Gerber Fmt 4.6, Leading zero omitted, Abs format (unit mm)*
G04 Created by KiCad (PCBNEW (5.1.10)-1) date 2022-08-24 18:43:54*
%MOMM*%
%LPD*%
G01*
G04 APERTURE LIST*
%TA.AperFunction,Profile*%
%ADD10C,0.025000*%
%TD*%
%TA.AperFunction,Profile*%
%ADD11C,0.025400*%
%TD*%
G04 APERTURE END LIST*
D10*
X133985000Y-48960000D02*
X283845000Y-48960000D01*
X133985000Y-48960000D02*
X133985000Y-60960000D01*
X133985000Y-222960000D02*
X133985000Y-162960000D01*
X133985000Y-162960000D02*
X75558620Y-162960000D01*
X133985000Y-60960000D02*
X75558990Y-60960000D01*
X283845000Y-222960000D02*
X283845000Y-48960000D01*
X133985000Y-222960000D02*
X283845000Y-222960000D01*
D11*
%TO.C,X1*%
X64634510Y-156010000D02*
X64634630Y-149298000D01*
X64635000Y-78559000D02*
X64635120Y-67907620D01*
X74626880Y-80972000D02*
X65650630Y-80972000D01*
X74627130Y-80972000D02*
X74627250Y-79575000D01*
X74627250Y-79575000D02*
X65651000Y-79575000D01*
X74626880Y-148282000D02*
X65650630Y-148282000D01*
X74627130Y-148282000D02*
X74627250Y-146885000D01*
X74627250Y-146885000D02*
X65651000Y-146885000D01*
X74627370Y-66891620D02*
X65651120Y-66891620D01*
X64634510Y-145869000D02*
X64634630Y-81988000D01*
X74624870Y-157026250D02*
X65651000Y-157026250D01*
X75558990Y-65960000D02*
X75558990Y-60960000D01*
X75558620Y-157960000D02*
X75558620Y-162960000D01*
X64634630Y-81988000D02*
G75*
G02*
X65650630Y-80972000I1016000J0D01*
G01*
X64635000Y-78559000D02*
G75*
G03*
X65651000Y-79575000I1016000J0D01*
G01*
X64634630Y-149298000D02*
G75*
G02*
X65650630Y-148282000I1016000J0D01*
G01*
X64635000Y-145869000D02*
G75*
G03*
X65651000Y-146885000I1016000J0D01*
G01*
X75558620Y-157960000D02*
G75*
G03*
X74624870Y-157026250I-933750J0D01*
G01*
X75558990Y-65960000D02*
G75*
G02*
X74627370Y-66891620I-931620J0D01*
G01*
X64635120Y-67907620D02*
G75*
G02*
X65651120Y-66891620I1016000J0D01*
G01*
X64634510Y-156010000D02*
G75*
G03*
X65650510Y-157026000I1016000J0D01*
G01*
%TD*%
M02*
